<svg xmlns="http://www.w3.org/2000/svg" width="749" height="446" fill="none"><path stroke="#FEFEFE" stroke-linecap="round" stroke-linejoin="round" stroke-width="2" d="M477.518 313.047c.828-1.013 1.655-2.026 2.817-3.438 5.678-.661 9.787-1.138 13.895-1.615l-2.395 1.099-.137-.522M370.771 39.101c-7.893 1.692-5.786 2.933-10.782 4.812-.554-.178-1.147-.355-1.739-.532m-228.944 83.697c-2.217 1.565-4.422 3.133-6.348 4.496.255.982 3.76-.027-1.158 3.593m598.395 26.016a57 57 0 0 0 2.692-1.411c3.211-4.226 5.677-7.862 8.164-11.97.78-3.04-.975-1.144-2.574.507-1.633 1.64-3.19 3.009-1.939-.611-2.887 2.587-6.155 8.862-9.825 13.883M7.37 264.642c-.503 1.089-.894 2.215-1.355 3.375.085 1.673.252 3.232.283 4.704.143 1.467.143 2.874.247 4.215.108 1.329.163 2.627.2 3.904-.002 1.28.191 2.481.253 3.711M439.21 21.399c1.88-.322 3.764-.658 6.841-1.2-4.567-.964 6.315-3.366 6.05-5.013-.778.002-2.369-.004-3.96-.01l-1.488.421 1.063.92M358.552 429.85l-2.616-.575.077-.271c2.695.292 5.408.477 8.083.706 3.39.895 6.482 1.708 9.151 2.399 3.335.3 6.311.514 9.005.678.957-.156 1.873-.297 2.804-.447M710.494 38.954c-.994-.813-2.002-1.616-3.052-2.362l-1.018-.328c.688.756 1.399 1.478 2.061 2.24l1.98 2.311.316-.292c3.075 2.06 6.114 4.248 9.082 6.906.335 1.093.495 1.622.655 2.152M379.915 440.966c4.068 1.029 8.338 1.645 12.896 1.679.098.003.562.153.747.24.109.05.008.102.005.157m88.84-433.13c-.533.489-1.054.982-1.806 1.682-1.436.367-3.963 1.1-7.145 2.016-1.686.203-4.405.522-6.88.808-1.356-.577 6.662-3.24-4.445-1.488-.29.638-2.267 1.436-3.752 2.195-1.477.777-2.447 1.505-.762 1.921M704.632 178.66a217 217 0 0 0 6.838-5.885c.479-1.266.841-2.204 1.207-3.155M10.254 251.745c.039-1.282.048-2.587.171-4.39 1.28-3.019 2.49-5.302 2.925-6.147.869.421 1.519.743 2.169 1.065-.296.481-.65 1.169-1.04 1.859M746.841 81.493c-.283-.4-.55-.81-1.135-1.673.127-1.506.123-2.282.183-3.373-.872-2.082-1.94-3.903-2.888-5.713m-9.162 76.011c.756-.01 1.512-.019 2.452-.026 1.498-4.412 2.333-7.912 3.357-11.732.302-1.337 1.147-3.512 1.67-5.327M293.305 418.875c2.397.21 4.802.436 7.523.68 1.443 1.28 2.38 2.117 3.447 3.065 1.636.105 3.179.194 4.707.293m184.263-111.72c.814-.131 1.668-.138 2.451-.42 3.123-1.146 6.216-2.4 9.32-3.608M626.451 3.991c-2.854.318-5.692.796-8.669 1.244 1.116.204 1.948.36 2.777.529M77.667 357.542c.066-.147.12-.298.194-.472 3.406 1.759 5.943 4.46 9.034 4.879.903-.974 1.558-1.678 2.2-2.385l1.32.622-.77-1.922m485.109-87.005c1.313-.28 2.623-.548 5.2-1.11.387-1.071.562-1.563.738-2.055M295.026 427.292c1.758.553 3.498 1.127 6.149 1.883 2.147-.35 4.103-.676 6.058-1.003m383.988-234.717c-.7 1.04-1.407 2.064-2.229 3.276-1.943 1.118-3.356 1.929-4.772 2.753l-.04.493c-1.475 1.34-2.904 2.736-4.413 4.022l-4.554 3.822m-531.357 175.22c-5.125-1.44-10.16-2.935-10.876-1.619-.225.406-3.926-.435-6.08-.721 3.458 2.015 4.814 1.495 6.908 1.86m460.87-379.79-1.317-.761 2.245.048-1.612 1.084-1.399-.029L597 6.15m-318.574 63.7c-.191.458-.374.934-.605 1.492-1.77.457-2.82.724-5.051 1.285 1.869-1.03 3.353-1.831 4.83-2.65m423.892-41.73c-.753-.79-1.495-1.62-2.175-2.275a131 131 0 0 0-8.03-3.445 620 620 0 0 1-3.326-2 223 223 0 0 0-3.385-1.878 52 52 0 0 0-3.719-1.789 44 44 0 0 0-4.403-1.418c-1.639-1.062-3.268-2.206-4.955-3.185M34.548 325.143l-.886-.187a36 36 0 0 1-1.384-2.233c-2.635-3.099-7.377-7.439-8.92-11.214-.492-1.283-1.128-2.712-1.687-4.059m49.619 48.277c-1.269-.141-2.548-.244-4.567-.528 2.132 1.024 3.072 1.411 3.979 1.83.08.025.138-.054.04-.142-.145-.145-.421-.347-.656-.521m-56.077-64.564c-.419-2.244-.856-4.509-1.643-6.718-.554-2.288-1.44-4.542-1.927-6.936m30.057-85.328c3.485-2.914 7.013-5.28 10.596-9.288m485.265-170.56c-2.976.14-5.964.274-9.452.43-.069.203-.146.432-.233.657M402.755 26.52c1.896-.248 3.733-.416 5.7-.738 5.63-.887 11.371-1.288 16.864-3.485M290.152 422.5c-.707.757-.163 1.678 3.517 3.032 1.567.575 2.769 1.173 5.08 2.171 1.635-.458 3.176-.89 4.731-1.331l-1.494-.482c-1.695.059-3.39.118-5.07.125m212.244-122.58c-6.214 1.867-3.68-.299-5.078-.637-1.286-.301-.887-1.326 3.074-3.342.561-.283-.055-.51-.118-.769m-249.699 114.65c1.101-.011 3.339.063 3.146-.041-2.498-1.255-5.35-2.525-8.101-3.805m378.474-170.5c-.154-.331-.312-.649-.473-.997-1.37.923-2.558 1.722-3.67 2.475-1.124.707-2.17 1.355-3.201 1.993l-.391-.323c1.431-.875 2.9-1.667 4.308-2.592m94.746-195.959c.506.923 1.038 1.797 1.542 2.818.503 1.02 1.045 2.123 1.675 3.395 1.239.947 2.389 1.908 3.534 2.84 1.09.998 2.138 1.968 3.186 2.939 1.226 1.787 2.595 3.635 3.741 5.664M26.215 312.148c.798 1.509 1.622 3.012 2.536 4.46.884 1.466 1.787 2.953 2.776 4.354m615.925-86.471c3.242-2.71 6.538-5.306 10.144-8.476.832-.675 2.353-1.915 3.859-3.146.257-.212.592-.568.569-.618s-.457.219-.704.35M11.938 290.995l1.333 1.273-.54-1.679c-1.066-.906-1.72-1.961-2.572-4.246-.391-1.153-.682-2.667-1.086-4.612-.236-.962-.263-2.096-.419-3.342-.13-1.251-.287-2.624-.296-4.174m732.053-166.41a89 89 0 0 0 2.59-8.912c.022-.078-.049-1.142-.153-2.09-.491.166-1.008.337-1.63.53.105 1.033.086 2.068.126 3.065.015 1.004.089 2.012.04 3.023M574.55 270.673c-2.787.649-5.562 1.302-9.01 1.978 1.658-1.027 3.045-1.832 4.393-2.72M278.637 418.145c3.179 1.995 6.798 1.768 10.298 2.136m51.807-372.483c1.672-.108 3.343-.26 5.091-.33a141 141 0 0 0-3.183 1.578m-214.319 88.309c-1.696 1.029-3.416 2.009-6.408 3.872 7.353-2.709 8.246-3.167 9.477-5.176M397.102 27.485c-3.497.674-6.994 1.347-10.363 2.006-.729.398-1.571.845-2.404 1.307M309.266 421.33l9.594 1.304 9.622 1.159m-76.55-12.253-9.972-3.564m246.942-97.056 7.465-.873m68.754-28.22c2.101-.8 4.194-1.617 7.486-2.877 2.066-1.599 4.658-3.619 7.261-5.636m-313.48-200.69c-.521.536-1.053 1.068-1.637 1.653-1.954.848-4.248 1.853-6.528 2.849m130.739-43.332c1.892-.277 3.773-.557 6.104-.903-1.784.944-3.522 1.86-5.642 2.992 1.562-.2 2.741-.354 6.684-.857-2.324.715-3.688 1.133-5.052 1.552m116.265 260.007c3.132-1.045 6.284-2.069 9.358-3.259 6.239-2.393 12.396-5.023 20.115-8.247.506-.132 2.569-.621 4.668-1.196 4.752-4.04 14.539-6.541 21-10.255m65.67-269.954.137-1.278-3.145-.493c-3.132.736-6.251 1.602-9.34 2.407M303.303 53.657c.749.804 1.558 1.57 2.225 2.404.274.342.215.815.31 1.225m-72.544 355.93c3.658.995 7.316 2.033 10.988 2.934M603.575 4.315c-1.061-.089-2.122-.177-3.643-.301-.011.39-.026.709-.047 1.18 1.363-.194 2.11-.305 2.857-.416M55.668 182.615c.71.37-3.508 5.368 4.399-1.072M545.08 290.294c-.533-.565-1.996.117-3.645.936-1.646.806-3.467 1.753-4.696 1.778 1.105-1.036 2.442-2.279 3.767-3.526m-422.794 84.561c-2.612-1.601-4.862-3.254-9.687-4.401m431.49-359.168c-.72.232-1.45.461-2.305.735.572.029 1.415.061 2.72.116.986-.61 1.898-1.175 2.798-1.743m47.702.753c-1.465-1.288-4.76-.718-8.048-.174M211.954 401.35c2.029.555 4.054 1.123 7.64 2.109-2.117-1.118-3.286-1.747-4.458-2.364l.914-.043c3.205 1.243 6.403 2.555 10.846 4.183.474.026 1.896.104 3.198.172.771.023 1.353-.028 2-.045 1.748.676 3.013 1.181 4.281 1.675m-123.89-267.837c4.509-2.388 5.458-2.954 7.288-4.418m622.996-56.02c.168-.157.324-.318.544-.528-.411-1.089-.769-1.922-1.072-2.511-.341-.589-.627-.934-.839-1.058-.438-.24-.578.39-.491 1.88m-14.1 72.072c.799-1.571 1.598-3.142 2.59-5.312.012-.7.015-1.5.021-2.314M285.735 61.838c-3.611.947-7.145 2.016-10.1 3.835m453.076 92.037c-.113-1.092-.233-2.199-.325-3.059-1.551 1.962-2.612 3.322-2.791 3.518-2.961 5.136-5.711 9.258-8.567 13.274-.151.275-.447.799-.417.78.85-.696 1.748-1.434 2.744-2.252-.592.962-1.253 2.043-1.926 3.121M4.507 285.38c.683 1.697 1.015 2.535 1.213 2.402.168-.115.217-1.21.315-3.316.545 1.441 1.11 2.903 1.831 4.289.707 1.395 1.312 2.842 2.15 4.166M279.498 60.757l-6.63 4.095m207.841 247.381a872 872 0 0 1 3.849-1.574c1.56-.679 3.065-1.333 4.599-2.006m97.968-37.404c1.345-.523 2.692-1.059 4.175-1.637a1969 1969 0 0 0-4.258 3.031c6.174-2.512 6.717-3.744 7.696-5.074.022-.035.523-.281.718-.359.303-.114.551-.16.821-.242M226.543 89.509c.554.052 1.107.104 2.511.246 2.025-1.893 3.462-3.23 4.903-4.58l-1.193.248c5.068-2.573 10.135-5.146 15.723-7.988-1.553.428-2.992.809-4.424 1.205M6.502 240.536c.751-2.543 1.366-3.808 1.687-4.422.346-.62.501-.556.609-.324.23.454.238 1.483 1.314-.899 1.077-2.649 1.684-3.93 2.558-5.238.421-.666.956-1.296 1.662-2.095a57 57 0 0 1 2.819-2.96c-.845-.638-1.425-1.078-2.005-1.518l-1.077 1.637-.71 2.261m682.233-197.41c1.799 1.198 3.474 2.483 5.293 3.787 1.876 1.406 3.88 2.839 5.731 4.378m-203.214 260.15c-1.35.282-2.725.387-4.033.867-5.059 1.886-9.783 3.895-13.75 6.021M3.497 253.83c-.728 1.974-1.462 3.973-2.046 6.05-.02.598-.062 1.189-.045 1.786.282-.782.642-1.538 1.185-2.811.526 1.379.096 5.853.11 11.385M386.308 32.784c-.623 1.206 2.811 1.68-3.508 3.92M369.098 430.14l9.631.95m-74.08-6.858 8.83 1.17M90.454 152.244c-3.019 1.869-5.418 3.557-6.92 5.563-.456.613-2.979 2.43-4.521 3.748M22.486 312.41c-3.07-4.406-5.8-9.098-8.301-14.911-.3.185-.497.319-.71.461M644.63 14.192c.717.569 1.856.908 3.198 1.227s2.919.547 4.531.742M611.097 1.183c-3.558-.077-7.103-.023-10.656.014M256.321 418.06c1.067.245 2.137.477 3.532.786-.941-.782-1.692-1.403-2.432-2.021M729.317 49.673c-.829-.605-1.603-1.234-2.447-1.788l-2.514-1.64M278.393 69.7l8.551-3.111c2.855-1.022 5.725-1.968 8.594-2.956l-.038.269c5.141-1.959 10.259-4.052 15.357-5.856l.812-1.13m390.172-31.396a135 135 0 0 0-13.701-7.381c-.104-.287-.314-.903-.538-1.51 5.181 1.767 9.878 4.026 11.603 6.41 1.121.446 2.152.862 3.169 1.33M75.823 357.694c-2.37-2.198-.72-2.356 3.685-.29 2.683 1.258 5.43 2.551 8.147 3.82M740.393 82.257c.34.897.68 1.795 1.028 2.708.304.942.6 1.91.922 2.914.125-1.76.245-3.199.238-4.889-.57-2.012-1.391-4.231-2.357-6.723-.251 1.86-.492 3.64-.819 5.377m-583.278 37.829 4.806 1.126-1.431.833c1.014-.405 2.037-.793 3.381-1.316.917-.802 1.799-1.615 3.044-2.663 1.149-.093 1.893-.149 2.641-.218m509.272 89.927c-1.643 1.102-3.278 2.221-5.302 3.581a1490 1490 0 0 1-3.654 3.957c-1.495.446-3.071.825-4.608 1.244M24.826 322.447c3.282 3.082 6.74 5.884 10.685 8.758 1.991-.497 2.833.153 8.427 4.361 1.314 1.253 2.386 2.273 3.331 3.168.968.861 1.803 1.622 2.63 2.367m696.807-236.458c.653-3.601 1.043-7.273 1.294-10.934-.09-.296-.318-.932-.554-1.543m-366.24-55.062-6.967 2.918M148.632 123.22c4.92-2.705 9.954-5.162 15.807-8.158-.74-.618-1.347-1.137-2.306-1.938-3.407 2.461-5.713 4.123-8.008 5.789m542.064 79.744-7.079 5.118M155.632 386.159c-4.103-1.434-8.222-2.761-12.56-4.369.797.679 1.871 1.601 2.945 2.524m230.752 55.639-2.626.518 1.071.317c3.418.046 6.847.011 10.261.028l.937.443 6.563-.207M540.381 12.005c2.978-.054 5.942.071 8.893-.68M179.77 103.938c-.737.648-1.464 1.3-2.451 2.178-1.276.193-2.042.327-2.815.443M7.965 294.511c.877.48 1.747.943 2.7 1.418-.152-1.216-.308-2.462-.465-3.793-.18-1.295-.172-2.727-.26-4.218.411 1.131.748 2.041 1.039 2.852.346.787.65 1.461.955 2.136m699.759-257.56c-1.349-.956-2.756-1.789-4.089-2.626a34 34 0 0 0-.93-1.608c-2.773-1.596-5.458-3.066-8.126-4.291a117 117 0 0 0-8.678-3.597l-2.193-.805-2.219-.715-4.418-1.451M40.334 337.542c-.651.254-.703.35 4.48 4.087m170.757 65.385c.35.732.7 1.464 1.099 2.282 4.979 1.083 6.439.147 11.223 2.011m-57.685-17.021c-2.342-1.373-8.182-3.606-2.521-3.02 1.256.756 2.426 1.471 3.595 2.185M553.239 7.975c1.081.193 2.166.374 3.496.605 1.52-.27 3.07-.558 4.616-.833m75.892 1.717 2.453.101-.945-.459-3.889-.127M219.657 400.468a45 45 0 0 0-.074-.966c1.646.642 2.861 1.104 4.073 1.579m517.493-284.964c-.564 1.042-1.143 2.093-1.637 3.017-.691 4.391-1.526 8.594-2.708 12.714M74.02 349.433c2.16.794 4.344 1.498 6.506 2.237m98.784-246.488 1.319 1.283m227.034-74.481c5.309-1.413 10.606-2.956 16.497-4.42 3.438.152 7.17.313 10.901.474m61.315-17.254c-.535.235-.889.529-1.613.69-4.637.91-9.369 1.848-15.038 2.961 1.942.556 3.247.92 4.548 1.297l1.129-.241c-.444.7-.891 1.415-1.39 2.224l4.691-.092m-297.044 85.165a54 54 0 0 1-.287-.866c4.01-1.971 7.286-3.574 10.32-5.058 4.068-1.475 7.997-2.896 11.93-4.33M57.482 177.39a234 234 0 0 0-4.89 3.657l.335.516m41.66 186.887 4.376-.067m203.142 51.766c3.915.516 4.066-1.208 10.506.824m255.781-145.209c.364-.727.733-1.466 1.204-2.397l5.015-2.562M229.444 84.762l-9.231 3.82-.218.422 5.831-1.906m5.626-7.245c-1.989 1.413-3.967 2.83-6.049 4.31.385.167.922.41 1.462.64M109.796 374.629c2.859.893 5.733 1.735 8.607 2.576m-97.66-61.84c.921 1.113 1.843 2.225 2.803 3.378.978 1.131 2.035 2.245 3.138 3.459l-1.061-4.351c1.643 1.753 2.732 3.06 3.947 4.226m496.436-29.136.724-3.494m198.665-124.985c.406-2.542-2.854 1.021-5.141 2.704m7.655-114.852c2.365 3.532 4.569 7.196 6.258 11.158m4.255 8.403-1.335-3.2-1.533-3.068M275.1 66.879c-.484.45-.98.894-1.911 1.748 1.661-.112 4.926-.312 8.184-.529m-63.502 24.16-8.409 3.705.286-.274-6.57 2.342m-52.626 285.254c6.03 2.392 7.764 1.755 10.175 1.829 1.199.034.226-1.025-.173-1.716-.268-.452-1.282-1.102-1.961-1.672m450.801-120.505 2.89-4.049M22.889 218.233c1.855-2.076 7.255-9.788 5.237-4.756M329.01 430.575c8.081 1.154 16.011 2.274 23.098 4.332m25.617 4.018c2.494-.266 2.915-.623-1.465-1.33m292.645-220.596-7.158 2.983M388.281 439.357l3.916-.806 1.052.254s.1-.136.006-.152a180 180 0 0 0-2.381-.444m-160.641-29.777c.075-.313.154-.639.291-1.256-.925-.355-3.13-1.206-5.338-2.044m138.935 31.647c.986-.259 1.984-.515 3.18-.819-.612-.281-1.527-.716-2.736-1.289 4.34.104 8.278.191 12.347.292 6.051 1.57 6.687 1.634 9.34 1.068m334.947-273.99c-3.929 6.78-5.311 8.275-6.949 9.14m-315.311-142.5-.899-.444c-.877.266-1.743.535-3.01.915 3.297-.05 5.875-.133 8.47-.099l2.748-1.168-4.882.551M23.855 211.764c-.578 1.53-1.107 3.104-1.647 4.631l1.288-1.244a118 118 0 0 0-6.6 9.787c.083.055.276.201.47.348-1.59 2.582-3.036 5.267-4.432 7.996M385.84 29.792c-1.062.136-2.136.268-3.826.483-.333.484-.607.888-.878 1.279M133.191 131.79c.274-.404.533-.799 1.078-1.594a141 141 0 0 0-4.235 2.729m-92.97 201.847-2.93-3.279c-.96-1.111-1.882-2.266-2.815-3.382m-13.407-25.037c.586.948 1.28 1.819 1.913 2.726l-1.036-2.64c-1.087-1.49-2.283-2.944-3.315-4.5m-14.07-30.314a95 95 0 0 1 4.41-1.814c-.303-2.742-.367-5.59-.322-8.473m147.121-133.811 1.207.361-1.292.821-4.334 1.192M34.647 206.435c-.068-.725-.132-1.463-.204-2.217-2.12 2.622-3.884 5.036-5.625 7.457m462.914 93.7c2.352-.902 4.703-1.804 7.497-2.873-1.252-.024-1.94-.035-3.546-.074 3.026-.713 4.504-1.052 5.997-1.401M612.171 9.616c-.099.22-.206.425-.346.704 2.143.41 4.771 1.03 7.884 1.766.14-.278.251-.496.357-.7m48.617 8.262c-.378.16-.76.332-1.164.497 1.441.492 2.716.875 3.954 1.344m59.397 40.274c-.118.2-.236.402-.458.795 1.971 3.222 3.527 6.03 4.777 9.007m5.822 24.788c-.384-1.755-.854-5.001-1.613-8.537-.674-3.578-1.759-7.402-2.688-10.599-.182-.537-.409-1.004-.861-2.12.088-1.322.018-2.568-.014-3.858m-51.053-54.506c-1.05-.831-2.288-1.567-3.644-2.187-1.367-.581-2.846-1.072-4.37-1.534-3.03-.99-6.293-1.634-9.214-2.659 2.924 1.28-4.221.44 2.94 2.452m-55.781 235.023c-3.006 1.648-6.116 3.051-9.164 4.587-3.071 1.486-6.096 3.072-9.21 4.446l-.956.986 2.999-.919 2.974-1.011 5.953-2.035m-196.18 185.156c-.384-1.446-2.046-1.77-10.346-2.011m129.372-147.602c1.294-.343 2.584-.673 4.421-1.15.637-.554 1.162-1.018 1.695-1.465M91.336 162.725l-5.4 4.196-5.328 4.29m94.513 223.603c5.43 1.144 5.213.118 4.508-1.108m517.444-201.095c1.852-1.977 3.692-3.958 5.486-5.996l-.251.017c3.156-3.02 6.251-6.13 9.236-9.374M165.459 393.136c-.275.671.274 1.354 4.489 2.079M310.423 51.506l4.842 2.755M24.325 323.045c-.577-.889-1.181-1.815-1.766-2.721a63 63 0 0 1-1.506-2.679c-.806-1.525-1.202-2.708-1.058-3.351l-2.13-4.019c-.638-1.373-1.265-2.743-1.893-4.112-.525-.634-1.34-1.909-2.214-3.147m557.676-28.635c4.837-1.227 11.037-4.139 15.808-7.722m-259.39 166.017c-.92-.549-1.839-1.098-2.766-1.664.571-.013 1.405-.04 2.229-.07m91.091 8.47c-1.967.717-3.934 1.349-5.792 1.988-1.958-.236-3.844-.464-6.103-.728.739-.212 1.41-.404 2.204-.64-1.624-.368-3.252-.724-4.891-1.083M36.798 199.519c2.82-1.862 5.627-3.686 9.375-5.869a206 206 0 0 0-6.295 6.946c.599.854 3.838-2.857 6.668-5.461m116.725-80.351c-2.491 1.265-4.985 2.543-6.036 3.076-1.697.635-3.337 1.246-4.929 1.859-1.587.642-3.141 1.252-4.687 1.88-3.104 1.25-6.231 2.451-9.569 3.922.763-.739 1.92-1.871 3.089-3m568.623 54.093c6.057-6.756 8.343-11.42 7.35-13.597 1.304-1.83 2.649-3.718 3.903-5.677m-60.846 70.15-2.486.283c-.758.501-1.547.936-2.331 1.401a64 64 0 0 0 3.223-2.774M133.492 126.106l-2.093 3.672m47.812-22.308c.101.3.202.6.294.841 2.315-.9 3.869-1.511 5.419-2.109M652.68 233.447c-1.86 1.525-3.708 3.053-6.001 4.931-1.811 1.217-3.783 2.396-5.745 3.536a144 144 0 0 1-5.723 3.234c-1.813.963-3.511 1.781-4.961 2.326-1.464.513-2.684.725-3.535.592m-284.384 186.49 3.444-1.099m244.846-164.851c3.13-2.002 6.181-3.987 9.431-5.978.922-.561 2.457-1.234 3.717-1.855M495.461 9.293c-.855.892.914 1.054 3.145 1.154s4.934.098 5.953.511M631.663 242.67c2.229-1.518 4.461-3.05 6.824-4.652 1.176-.802 2.382-1.623 3.647-2.482 1.231-.911 2.507-1.85 3.836-2.843-1.283 1.401-2.449 2.741-3.613 3.984-1.179 1.21-2.306 2.366-3.437 3.534M455.961 16.865l-12.624 4.78m-73.443 12.449c1.674-.291 3.337-.585 6.114-1.07-2.479 1.312-4.498 2.392-6.528 3.468M5.47 244.297a23 23 0 0 0-1.806 5.156c-.263 1.42-.259 2.547-.092 3.403M416.924 27.4l-11.038 3.66M147.883 380.878l-15.957-4.578.29.375a466 466 0 0 1-9.905-3.669m64.911 20.516-1.243-1.287c3.095.758 6.563 1.594 9.484 2.31l2.538-.687M322.372 52.162c-7.827 2.641-15.7 5.14-23.472 7.982m345.443 172.052c3.779-4.268 3.418-4.258-3.829-.122M307.162 52.044c-4.434 1.596-8.834 3.33-13.246 4.975M651.114 9.825c2.824.361 5.662.67 8.465 1.194l-.824-.716c-2.757-.508-5.568-.738-8.34-1.11M84.48 157.337c3.512-2.132 2.29-.458 2.916-.228.486.156 1.704-.225 2.598-.373M396.59 35.111c-3.182 2.056-8.793 3.047-14.199 4.147m45.435 403.526.762.541-4.051-.166M536.886 5.197c-4.06.394-8.132.784-12.181 1.181-1.652.171-3.243.517-4.857.77m-95.012 17.836c1.076-.357 2.155-.727 4.159-1.404-1.967.281-3.112.447-4.257.612m-40.292 12.451c1.428.235 2.007.59-2.208 1.666m-56.115 394.894c4.381.046 7.077-.675 13.876.517m344.27-415.465c-.718-.653-1.45-1.297-2.483-2.234 1.347.434 3.162 1.046 4.992 1.65l1.597.95-3.387.105M429.71 440.03c-4-.656-8.041-1.297-11.933-1.987-.621-.116-.55-.459-.793-.692m301.891-269.054c-1.522.143-3.668 3.784-6.484 7.349.021.935.049 1.76.077 2.585M558.139 9.553c2.233-.434 4.477-.865 7.298-1.418 4.355.052 9.45.146 14.532.335M134.655 133.077c5.163-3.484 5.672-3.672 7.968-2.792 1.65-1.043 3.313-1.999 4.95-2.991m597.978-7.298c-.173-.351-.334-.698-.638-1.331.736-1.478 1.169-2.492 1.694-3.744.077-.889.188-1.81.277-2.963.067-1.16.135-2.545.236-4.354-.411 1.724-.767 3.213-1.087 4.572-.377 1.342-.729 2.55-1.081 3.759M535.499 11.768l2.716.875c-.988.441-2.215 1.03-3.427 1.61m186.208 151.154 2.274-3.922c.719-1.33 1.45-2.656 2.176-4.011a917 917 0 0 0 2.101-4.007m-40.863 49.891c-.8.825-1.611 1.647-2.292 2.356-.145-.581-.271-1.142-.412-1.694M281.331 61.263l-4.439 2.62m-36.789 21.95c-.148-.175-.285-.346-.51-.601-1.806.937-3.003 1.55-4.199 2.163m177.707 356.047c.284-.133 1.015-.32.778-.396-1.158-.317-2.582-.607-3.909-.893m171.703-176.232c-1.675.515-6.001 2.821-4.077.894M382.315 38.784c-4.519 2.159-10.572 2.966-15.782 4.509m-84.847 16.003c.817-.271 1.622-.546 3.294-1.09-3.984 2.007-6.654 2.947-8.809 2.928m224.7-44.29 11.336-.328m119.452-7.95-.975 1.36M100.988 144.75l2.302-.904-1.684 1.469c-.679.133-1.366.249-2.521.496-3.693 3.128-7.391 6.1-10.975 9.278m-18.948 13.362c1.22-.169 2.44-.339 3.972-.563-2.268 1.745-4.319 3.335-6.37 4.925l-.123.438 4.604-2.947m-32.384 23.282a275 275 0 0 0-3.014 4.754m79.134 176.2c1.392.097 2.769.203 4.632.339 1.887.664 4.693 2.581 7.983 2.951M61.578 174.139c1.62-1.194 3.235-2.376 6.238-4.587a2148 2148 0 0 1-3.034 4.649 243 243 0 0 0-7.862 4.612l.46-1.019a267 267 0 0 0-6.29 5.738m635.389 21.04c4.124-4.354 8.784-8.774 11.543-13.188-2.134 1.928-3.225 2.955-4.369 3.909M679.339 17.567l-1.082 1.48c-4.266-3.006-4.251-3.057.316-1.74M605.276 2.738a97 97 0 0 1 3.951-.443l.849.273-3.263 1.819m1.606 256.659c-2.238.981-4.446 2.029-8.073 3.561 2.41-1.854 3.766-2.993 5.134-4.085M330.869 434.324c3.733.64 7.466 1.279 11.213 1.825m214.876-158.035-1.187-1.001m-3.307 3.281-2.084-1.149M240.597 81.575c-.499 1.203 6.882-1.215 3.779 1.175m-134.527 66.402c1.553-.653 3.076-1.33 4.638-1.966m89.061 247.797 12.409 3.632m391.37-138.032 4.235-3.432 1.91-.777c.323-.712.654-1.407 1.227-2.657-2.617 1.759-3.953 2.651-6.567 4.397 2.405-1.181 3.475-1.694 4.549-2.22m78.743-54.863 4.593-5.497M48.232 332.448a99 99 0 0 0 2.93 3.982c2.309 1.138 6.962 4.17 3.584.86m293.897 98.877 4.197-.66m125.257-418.22c1.37.132 2.736.277 4.419.439 1.706-.407 3.506-.84 5.307-1.273M18.294 300.709c1.096 1.9 2.411 3.632 3.648 5.423.626.891 1.334 1.709 1.997 2.556.675.85 1.334 1.71 2.065 2.493M258.71 414.652c-4.17-2.117-6.441-3.96-7.983-5.722-.868-.997-1.384-1.093 2.777-.835M337.977 42.35c.227-.278.445-.574.831-1.068-1.87.55-3.568 1.059-4.955 1.47l-2.023 2.414M51.983 193.974c1.341-1.523 2.675-3.372 4.05-4.49 4.66-3.844 9.416-7.108 14.323-10.647 2.902-2.117 5.851-4.529 8.802-6.729m562.013 65.016c-5.193 2.49 1.194-2.626-1.743-1.617m76.558-61.319c.31-.533.62-1.066 1.376-2.483-3.23 3.855-6.077 7.045-9.607 10.69l-.487-2.042M227.203 403.658c-1.753-.789-3.502-1.55-5.244-2.378M196.214 98.039c-4.444 2.464-8.87 4.949-13.26 7.529m-44.515 270.13c-2.375-.554-4.654-1.007-7.143-1.682-2.515-.67-5.225-1.613-8.722-2.739-.5-.372-1.523-1.124-2.493-1.844-.042-.028.466.052.779.124.196.049.495.174.751.27M6.846 267.3c.264 1.477.67 2.931 1.047 4.36m100.1-126.228c-1.087 1.759-2.174 3.519-3.416 5.524-2.031 1.737-4.35 3.578-6.718 4.32M338.12 435.225c-2.109-.975-.074-.924 2.578-.745m202.845-149.308c-1.79.619-3.573 1.254-5.387 1.823l-.805.669 2.391-.734M249.15 72.389c8.249-3.574 8.533-1.95 12.204-2.54l-2.721 2.57m148.619 364.779c.639-.736-1.767-1.047-4.736-1.286M591.356 5.19c-1.843.32-3.681.713-6.24 1.21-1.34-.15-3.633-.424-5.943-.634m116.274 19.971c.905 1.305 1.809 2.609 2.959 4.273-2.085-1.234-3.618-2.192-5.206-3.041m28.61 21.045c-1.4-.859-2.74-1.755-4.136-2.542m-452.197 20.6c-3.438.552-4.97 1.873-6.917 3.004m158.926-43.59c2.739-.173 4.159.003 4.332.438.174.436-.913 1.099-3.177 2.085m143.071 248.683.325-1.681M324.989 425.158c-4.831-.642-9.625-1.413-14.435-2.175 4.586 1.337 8.882 2.917 15.117 2.999.081-.466.173-1.056.226-1.376 3.076.034 5.009.052 6.93.066l-2.681-1.088-3.359.577m18.295-379.775 3.594 1.312m73.158-24.832c4.932-.071 4.397 1.262 5.235 2.235M180.152 394.874c2.819.908 5.666 1.755 8.884 2.693.277.244.827.744 1.731 1.57 1.18.015 1.846.018 2.523.025M504.41 8.547l2.411.425c-2.111.22-3.456.35-4.804.492M193.206 402.665l2.707-.717M422.188 23.554c-.773.426-1.216.902-2.378 1.26-2.822.862-5.975 1.675-8.719 2.437 1.155.498 1.911.84 2.67 1.17M195.657 399.698c-4.448-2.403-6.158-4.177-4.503-5.192m59.417-317.118c5.114-2.08 10.012-3.962 14.238-4.682.92-.154 3.024-1.052 4.59-1.574m292.604 209.183c-.412-.203-.824-.406-1.422-.697-1.505.612-3.29 1.345-5.215 2.132-1.939.754-4.014 1.548-6.092 2.355m148.958-98.392-1.547-.556m-559.948-57.866-4.325 2.039-.212.578 3.863-2.061m527.882-108.91a33 33 0 0 0-1.527-1.153l-1.149-.216-.397.576m-201.417.872c-.516.256-1.04.495-1.616.788-1.589.163-3.189.323-4.804.492m83.036 274.69c3.569-1.283 7.146-2.592 10.696-3.98l.127-.452-4.799 1.352M377.845 36.809c1.025-.485 2.047-.958 3.85-1.797.165.995 1.367 1.635.161 2.724-1.431 1.269 2.012.437 3.663.448m-205.697 71.059c-3.339 1.076-6.638 2.278-8.29 2.843-4.623 2.745-7.929 4.718-11.178 6.793m547.814 65.168c1.485-1.111 3.003-2.212 4.845-3.672a185 185 0 0 0 3.596-5.551M182.093 390.773l4.133.839c-.726-.445-1.267-.76-2.637-1.595 4.491 1.545 7.814 2.588 11.108 3.691m73.055 21.184-.193.951c-.506-1.274.025-1.23 7.333.477m215.983-110.968c-1.14-.029-2.302-.066-3.416-.101-.109-.007-.034-.096-.089-.296 4.136-1.762 7.699-3.99 13.131-5.18M717.489 41.559c-1.314-1.211-2.735-2.26-4.248-3.507-1.58-1.142-3.256-2.47-5.346-3.817 1.974 1.718 3.498 3.32 4.907 4.675 1.34 1.472 2.578 2.687 3.698 4.06M15.328 309.64c-.546-1.484-1.202-3.059-1.51-4.424-.298-1.179-.348-2.011-.494-2.987M662.09 9.155c-1.517-.137-3.026-.257-4.867-.428 2.115 1.173 2.016 2.183 7.645 2.927M6.888 246.849c.813-1.707 1.589-3.413 2.497-5.019m238.362 173.664c-1.66-.197-3.332-.398-5.59-.661-1.022-.582-2.195-1.284-3.697-2.175 2.494.48 4.415.803 6.336 1.126M108.58 373.113l-1.876-2.11M238.807 78.41c3.695-1.158 7.352-2.4 10.813-4.351m-11.644 333.21 2.755-.139c.944.416 1.877.829 2.825 1.233-1.619-.212-3.22-.488-4.831-.726M87.159 162.167c-1.224 1.28-2.474 2.523-3.682 3.836m651.225-18.727c-.552.385-1.146.742-1.706 1.11M495.175 16.909l-3.933 1.828m-47.625-1.994c.21-.748-1.203-.64-4.1.226M718.38 41.733c.353 1.07.751 2.07 1.185 3.687 1.572.69 2.252.993 2.66 1.166 1.027 1.485 1.975 2.986 2.897 4.45.847 1.553 1.78 2.978 2.522 4.554l1.034 1.106-1.352 1.21-1.189-1.522c-.503-1.371-1.126-2.67-1.701-4.05M501.05 305.114c.137.171.286.345.458.569 1.549-.682 2.548-1.12 3.551-1.571m6.602-297.21c-.005-.156.293-.426-.117-.46-.41-.033-1.536.153-2.355.255l1.657.295M252.343 413.459l-9.182-2.508-.513.243c.578.228 1.144.453 1.771.683.102.032.523.027.793.03M355.869 39.604c1.031-.99 2.073-1.977 3.312-3.18-2.599.639-4.774 1.176-6.934 1.704M87.493 359.385a354 354 0 0 1-7.442-4.043l-1.008-1.027c1.24.511 2.503.975 3.76 1.464m14.583-205.015c-2.01 1.659-4.034 3.286-6.024 4.965m52.11-34.13c-.132.998 7.565-3.161 5.159-.659m-94.676 66.89c4.006-2.662 8.026-5.108 12.108-9.49.104-.107.047-.167-.076-.123-.191.065-.49.25-.737.382M180.825 392.39c-7.377-1.771-13.283-4.208-19.09-6.909m494.352-160.023c4.472-4.537-2.149.447-2.829.144M260.83 420.286l-9.032-4.316m81.642 12.585.999-1.141M65.116 175.039c2.618-.928.131 1.421-2.017 3.401.017.597.023 1.105.043 1.604M335.654 47.495c3.458-.84 6.903-1.77 10.365-2.54M71.655 174.39l.642 2.767M687.075 22.633c.14.86-1.992.146-4.775-1.018M55.107 341.85c1.77 1.344 3.596 2.579 5.391 3.875M8.634 272.447c.064-1.414.086-2.813.207-4.209.055.552.162 1.093.258 1.63-.402-4.588-.328-9.29.328-14.437-.281 1.09-.542 2.061-.816 3.126-.218 1.084-.499 2.259-.761 3.764.846-.726 1.63-1.276 2.334-1.808m3.666-27.723c1.11-.74 2.158-1.485 3.271-2.153m6.646 84.07c.942.641 1.844 1.297 2.787 1.896m40.093 33.381 1.43 2.331c2.607.741 4.216 1.119 5.811 1.549M439.686 18.388c-1.504.036-3.011.085-5.011.13-1.372.712-2.37 1.234-3.443 1.802 5.035-.656 5.026-.758 11.733-2.577 1.151.033 2.528.054 4.122.09-2.448.674-4.053 1.113-5.642 1.544m-292.857 96.837c1.342-.425 2.683-.851 4.025-1.235M33.04 328.623c.667.524 1.301 1.08 2.233 1.76-.882-1.339-2.085-2.725-3.52-4.031-1.395-1.364-2.943-2.749-4.462-4.152M531.222 6.382c-4.853.448-9.714.837-15.427 1.402.008.102.013.173.019.414M245.017 73.04c1.162.037 2.324.074 3.622.112-1.085.523-2.152 1.023-3.566 1.707.838-.124 1.461-.233 2.091-.325M595.051 263.73l4.375-2.571-.869.283c2.073-1.667 4.08-3.496 6.111-5.233M449.479 17.66c4.327-.068 8.649-.251 14.094-.213-.449.544-1.036 1.27-1.618 1.982m-49.054 2.652c-1.568.662-3.133 1.312-4.997 2.104 3.21-.485 6.224-.935 9.227-1.388M90.475 363.004a375 375 0 0 0 5.52 3.944c2.828 1.094 7.173 2.676 11.52 4.203m-59.428-33.574c-.57-.127-1.117-.289-1.475-.376-1.016-.82-2.021-1.636-3.018-2.435-.972-.848-1.936-1.678-2.9-2.509m455.768-25.091-.517-1.981c5.958-2.23 11.142-4.161 16.329-6.105M313.259 426.668l2.988 1.708M694.325 30.524l2.809 1.468 2.761 1.55M568.68 11.837c-1.886.082-3.781.147-6.63.27.505-.653.946-1.214 1.51-1.947-2.572.282-5.194.563-7.571.81-.364-.244-.72-.47-1.072-.71m-97.45 13.462c1.869-.284 3.762-.518 5.639-.743M122.099 368.31l6.034 2.38M590.411 10.975c.712-.206 1.091-.323 1.293-.385 6.13.104 11.242.316 16.355.613M138.764 125.61l.795 1.916c2.244-1.486 3.596-2.302 5.658-3.579l3.845-.154c-3.481 2.156-6.515 3.992-9.487 5.96m50.071-22.479-6.043 2.793m286.489-90.914c-2.121.653-4.547 1.292-6.213 1.951-.779.312-.08.635-.046.956m243.76 150.943-1.75 2.32.333-.132a210 210 0 0 0 5.775-7.507M645.605 8.304c-2.157-.23-4.307-.53-6.464-.718m-239.098 22.97c-5.362.762-7.604.223-10.757.065M325.33 54.198l5.672-.86m396.117 91.326a117 117 0 0 0 4.236-7.566c.151-.669.332-1.666.6-3.323-.739 1.928-1.345 3.251-1.94 4.579M258.568 411.469c1.941.162 3.89.297 6.37.435.96.534 2.027 1.131 3.082 1.724m89.624-368.923c-.147.389-6.277 1.691-2.23 1.433m-222.098 88.055c1.656-.535 3.316-1.083 5.137-1.678l3.243-2.008m-30.166 233.78 2.706 2.096m250.382-329.15c-3.157.867-6.289 1.87-9.681 2.873-.556.397-1.299.931-2.042 1.466M24.229 224.009c-.507 1.06-1.045 2.096-1.53 3.164.367-.43.777-.833 1.156-1.26M390.446 27.408c.871-.113 1.746-.24 2.373-.318-.856.413-1.548.767-2.248 1.104M552.413 7.399c-2.17-.052-4.666.002-6.432-.173-3.537-.324-6.945-.057-10.614.702M718.03 36.29c.053-1.066-.029-1.698-1.109-2.777-.536-.552-1.358-1.14-2.536-1.956-1.159-.837-2.748-1.771-4.817-2.972 1.258.968 2.379 1.765 3.377 2.564.993.813 1.904 1.57 2.818 2.315M386.564 433.473c1.298.475 2.6.936 3.876 1.403 2.995-.16 5.19-.283 7.384-.406M188.71 104.454c-2.428 1.525-4.859 3.062-7.455 4.702a335 335 0 0 0-8.421 5.417c.369-1.316.583-2.119.804-2.906m-28.175 14.835c1.782-.72 3.56-1.427 5.331-2.151a200 200 0 0 1 5.774-3.724m424.78 154.401c1.252-1.031 2.493-2.066 4.1-3.391.751-.391 2.231-1.264 3.707-2.125m-570.21-39.75-.33 2.931M10.2 272.277c-.256 1.085-.5 2.174-.787 3.417-.465-1.289-1.15-2.761-1.887-5.277.45-1.867.86-2.93 1.183-3.994M534.467 6.077c-.249.665-.448 1.333-.749 2.01-.173.394-.496.796-.755 1.19M94.129 150.053l2.688-.386m543.033 90.492c2.84-1.631 4.036-2.68 4.8-3.643.784-.944 1.163-1.722 2.377-2.836M46.863 338.069c1.907 1.12 3.798 2.25 5.727 3.294M5.92 253.415c.034-1.48.014-2.992.185-5.004.893-2.694 2.327-6.086 3.913-9.359M467.712 19.849l-3.003.06-1.169.383 1.781.25M316.942 54.225c-.177.716-.353 1.433-.581 2.33 1.492-.433 3.629-1.053 5.762-1.66m-158.367 56.36-1.83 2.294m112.763 303.718c.571-.365 1.146-.742 1.994-1.299 4.257 1.147 8.418 2.107 12.421 3.102.183.579.324 1.046.444 1.408 2.335.696 4.364 1.294 6.404 1.895m330.363-179.247c1.333-.527 2.62-1.153 4.251-1.908.761-.95 1.544-1.936 2.249-2.82-2.709.9-4.012 2.154-5.25 3.443m109.344-112.87c-.451 1.43-.906 3.224-1.358 4.218a125 125 0 0 1-1.883 3.669c-.668 1.149-1.314 2.263-1.998 3.422M278.684 422.113c-1.056.419-2.112.839-3.291 1.303 3.908 1.245 7.14 2.131 8.564 1.281M31.892 205.956c-2.033.907-5.177 4.76-7.958 8.379m115.928 170.711 2.352.898-.491.123-7.918-3.492m-32.108-230.901-3.205 2.976M58.265 350.293c-1.65-1.066-3.309-2.106-4.937-3.207m488.725-58.231c5.849-2.279 5.406-2.942 5.008-3.633-.023-.05.395-.309.694-.451.472-.228 1.011-.434 1.528-.648M1 267.372c.064 1.399.232 2.775.405 4.139.134 1.366.39 2.699.625 4.013.29-1.032.524-1.955.797-2.837.295-.876.576-1.7.86-2.536m16.927-52.736c-.887.432-1.737.735-2.763 1.445-.142.109-1.3 1.944-1.965 2.996m125.177-95.07c.308.001.616.002 1.143.017-.672.501-1.455 1.093-2.25 1.681M7.447 293.233c-.633-1.568-1.14-3.194-1.755-4.912-.564-1.728-1.001-3.641-1.572-5.738.434.21.816.389 1.205.585M299.12 53.913c-1.213.101-2.419.22-4.492.395-.969 1.559-1.719 2.78-2.529 4.08.941-.23 2.363-.589 4.658-1.158-1.739.875-2.865 1.455-4.174 2.116 1.722-.374 3.376-.727 5.031-1.08m51.472-14.813c-.452.29-.892.584-2.341 1.524 3.643-1.105 6.259-1.851 8.796-2.666 2.923-.957 5.767-1.898 8.648-2.84m109.996-20.294-5.494 2.464M118.848 370.527c-2.116-1.343-4.326-2.66-8.085-3.955m100.955 32.366c-2.056-.677-4.097-1.363-7.689-2.548l-.38 1.481m426.434-148.566c1.615-1.224 3.203-2.527 4.803-3.784m-21.014 13.246c1.04-1.156 2.089-2.295 3.098-3.517m-30.852 10.752 5.81-3.459m-70.998 30.676 1.216.504-1.285.486-9.061.007m4.033-285.688c.39.322.777.658 1.589 1.327-3.338-.245-5.313-.375-7.864-.564-.903.357-1.752.702-2.602 1.047m-2.114 5.24-.736 1.212M207.389 97.588l.324 1.046M97.401 363.041l-1.856-2.004M489.873 11.178l-1.552 1.174m169.734-.038c-2.275-.69-4.603-1.145-8.018-1.992 1.14.86 1.72 1.3 2.3 1.74M633.8 4.459l3.861.315.814.572c-1.858-.064-3.727-.132-5.585-.196-1.637-.063-3.279-.015-4.915-.036M336.167 49.981l-2.206 1.483M201.993 99.745c-1.954 1.593.291.544 2.481-.396M63.029 181.498l2.364.635m171.202 223.946a89 89 0 0 1-.898-1.372c-2.316-.676-4.084-1.189-5.853-1.703M349.342 40.427c-2.8.519-5.619.975-8.41 1.553l1.035-.651c1.948.05 1.517.221 2.84.83.876.395 3.244.314 4.945.454M640.701 8.145c-2.073-.443-4.156-.805-6.24-1.209l-1.152.15 1.675.933m36.368 7.89-1.905.188-.996-.321c.08-.284.153-.542.228-.855-6.865-1.747-3.028-.117-1 1.056-1.624-.326-3.023-.664-4.45-.899M501.797 301.486l8.746-5.607m1.251-286.726c2.206-.428 4.412-.9 6.649-1.304 3.071.272 6.469.565 9.95.87-.537.77-1.181 1.702-1.833 2.617m217.978 76.462c-.153 1.118-.408 2.245-.656 3.347-.263 1.111-.443 2.192-.759 3.272M78.42 360.05l4.822 1.244m521.087-103.659 5.149-5.191 1.448-.715.312.733M190.092 392.182c-1.421 1.146 4.381 3.296 9.066 5.467-.917.014-1.943.02-2.97.027M326.6 425.269c3.779.387 7.547.771 12.06 1.226.947.319 2.321.79 3.581 1.224 4.057.322 3.679-.222 2.087-1.015m-11.96-378.889 6.768.295m-228.611 92.877c2.004-1.774 1.099-1.32-.008-.72-1.099.617-2.395 1.409-1.227.196.838-.743 3.041-2.481 6.117-4.992.254.546.442.93.619 1.31M552.313 3.541c1.359.17 2.527.406 4.137.475 1.666.087 3.752-.001 5.643-.01m-66.567 6.25c-1.329.248-2.646.498-4.365.817.783-.676 1.45-1.25 2.135-1.844 3.239-.194 5.964-.315 8.678-.398m-282.12 81.421c-.938.134-1.866.271-2.789.395a678 678 0 0 1-3.4 2.042l.4.2c3.177-1.51 6.38-2.939 9.576-4.385m-7.735 317.099 3.289.244M3.225 273.068c.197 1.188.302 1.869.35 2.18.599 1.473 1.07 2.342 1.52 3.204m121.934 101.222c2.776.177 5.897 1.197 9.31 2.929M114.27 140.97l1.462 1.076M550.035 9.671l-.02-.808 2.359-.14-3.08 3.41m-256.578 46.96c-1.645.23-3.289.46-5.02.69-2.72 1.642-1.328 1.738 1.282 1.412m-113.76 47.437c-.514.073-1.025.134-1.566.213l2.525-1.606c.622.158 1.187.298 1.9.485 2.343-1.003 6.152-2.829 5.172-1.274m22.287-11.977c-5.258 1.71-10.475 3.588-15.72 5.386m249.295-79.25c-1.323.36-2.65.735-3.678 1.008a921 921 0 0 0-2.439 2.928M539.28 291.169c5.35-2.876-.006-1.563.151-2.427M142.38 121.134c-1.76.728-3.5 1.517-5.408 2.38-.089-.212-.205-.502-.332-.797m110.538-45.154c-.226-.073-.434-.169-.656-.254-3.773 1.612-7.352 3.145-12.386 5.293.768-.934 1.28-1.57 1.793-2.207m-19.881 8.73 4.799-1.31m-45.88 20.089c-.731.228-1.469.441-2.672.813-.712.6-1.264 1.07-1.812 1.526m55.169 299.991c1.402-.027 2.804-.053 4.59-.083.811.627 1.524 1.166 2.225 1.701l1.078.249c.061-.261.535-.629.116-.764-3.921-1.334-3.686-1.947-3.502-2.605m51.802-345.015 4.469.877M89.093 362.038c2.64.71 5.282 1.407 7.925 2.061m545.885-123.52c-.044-.591.615-1.222 1.675-1.964 1.063-.754 2.559-1.552 4.253-2.399l1.224-1.195-2.461-.244M739.995 75.94c-.692-2.15-1.436-3.233-2.316-4.628a16 16 0 0 1-1.223-2.63c-.463-1.078-.902-2.457-1.388-4.33l-.791-.83c-.023.653-.017 1.288-.077 1.943m-268.675-51.58c-1.2.358-2.391.734-3.512 1.076 1.54.538 2.842 1 4.551 1.593 2.197-1.008 3.858-1.781 5.527-2.538m72.294-3.436 4.865-.05m180.898 132.93.41-2.821m-30.026 46.56c-1.772 1.033-3.528 2.057-5.308 3.031M737.09 63.612c.335 1.134.674 2.256 1.033 3.44-.451-.637-.972-1.592-1.536-2.618-.537-1.03-1.247-2.061-1.817-2.976-1.159-1.85-2.31-2.938-2.411-1.874m-72.724 161.813c3.345-3.733 3.249-3.876-.689-1.193M240.637 75.807l-2.231.519-1.398.801 4.713-.563m-71.789 29.62c1.655-.311 6.166-2.923 6.382-2.024M16.456 306.417c1.094 1.337 2.079 2.751 3.235 3.996M6.894 253.644c.335-1.017.648-2.042 1.017-3.048l1.134-2.982m46.328 95.531c-1.677-1.412-3.372-2.76-5.676-4.838 1.216.504 2.447 1.041 3.72 1.521m115.612-228.717-4.255 2.933M652.205 8.404l-3.911-.795c2.479.883-6.369.044 1.255 1.726M94.604 154.565c5.268-4.168 7.144-4.169 10.396-5.681m440.756 137.901-4.826 1.188M526.712 14.705l4.853-.14M22.605 228.17c-1.066 1.682-2.036 3.423-3.006 5.164m8.382 93.478c3.828 2.893-.946-1.598-.745-1.829m712.556-210.976c-.305 2.054-.833 4.064-1.259 6.107M450.936 23.728c.046.409.088.83.159 1.5-4.432.091-11.328 2.188-12.178.775m-78.081 410.829c-1.844-.468-3.691-.922-5.524-1.428M37.548 328.036c2.01.577 2.91.713 2.527.055-.368-.667-2.086-2.065-5.12-4.885m22.148-143.153-4.267 2.972m53.978-39.942c-3.706 1.464-6.566 4.481-9.925 6.775-2.767 1.851-5.553 4.034-8.263 6.171m632.719 2.684.063-3.3M502.953 11.453l-3.899.742 1.579.354c1.847-.643 3.686-1.302 6.436-2.259 2.019.37 3.831.686 5.651 1.019M737.463 60.13c1.122 2.288 2.002 4.738 2.881 7.187-.911-.49-1.689-.797-2.414-1.115M560.522 281.148a291 291 0 0 1-7.913 2.598c-.109.036-.523.324-.683.455-.097.082.008.102.028.164M487.295 9.588c-1.334.4-2.676.784-2.785.82-.546.625-.84.966-1.148 1.317M298.681 425.403c-1.365-.636-2.74-1.276-5.608-2.622-1.005.239-1.624.377-2.232.519m-45.964-17.268c-.557.271-1.115.541-1.784.86-2.245-1.06-3.772-1.777-5.287-2.49m21.618-329.084c-9.46 3.226-12.242 4.341-15.489 5.926M619.513 8.437c-2.749-.323-5.049-.656-.949-1.15 2.134 1.278 4.249 2.494 6.339 3.842m8.977-.807c-2.088-.04-4.181.031-7.244.128 4.748.671 7.947 1.322 11.364 1.944a48 48 0 0 0-1.238.586M337.875 50.138c-1.89.797-3.784 1.608-6.195 2.632-.285.006-.955.015-1.624.025m314 177.002c.962-1.054 1.925-2.109 2.215-2.437 3-2.198 5.018-3.672 7.04-5.159M318.618 424.062l-.596-1.261M190.962 97.978c-1.323 1.107-2.658 2.168-4.111 3.43-5.088 1.68-8.704 2.822-7.177.768-1.705.534-3.868 1.202-6.034 1.883M81.287 357.358a283 283 0 0 0 5.122 2.592m-28.585-14.369c2.877.786 2.987-.571 8.19 1.864l-1.216-1.25m43.357 17.975.361-1.065M79.538 169.347c-.973 1.487-1.13 1.605-4.776 3.778 1.102-1.023 2.182-2.012 3.254-3.016M708.929 28.266c-1.724-.977-3.401-2.038-5.152-2.925m-41.778 190.052c1.717-.839.156 1.598 4.671-2.04M645.313 4.989l2.303 1.206M91.596 152.57l-.222 3.163m159.635-76.824c-2.802 1.714-1.47 1.453 1.804.3 1.783-.635 3.599-1.387 5.4-2.086m-70.996 319.576-2.046-1.77M677.396 21.147l-4.095-1.066-.649-.547 4.032 1.2M195.121 398.529l-1.356-1.238m328.831-101.171c.723-.555 1.447-1.11 2.406-1.842-7.248 2.293-9.88 1.909-13.481 2.072M7.634 277.892c.508 1.092.992 2.049 1.516 3.259.257.491.573 1.563.867 2.361m157.629-173.803c1.024.133-1.366 2.05 2.096.886m102.206-42.734c-.567 1.098-1.165 2.213-1.676 3.286-.46.977 1.265.858 5.016-.325m-202.83 99.873c2.538-1.306 5.753-3.083 2.966.027m618.774 22.412 2.013-3.037M552.47 9.963c2.977-.138 5.938-.225 8.904-.282m7.705 268.161-1.357-.353 1.582-.799 1.252.333m-448.102 95.523-3.079-.288-1.845-.946 3.642-.093m95.63 34.139-1.709.195-1.957-.546.659-.984m26.36-323.955c-.317-.102-.7-.366-.936-.273-3.511 1.428-8.046 2.851-9.036 4.487m123.133 353.573c1.619.127 3.237.297 4.863.399m2.435-5.685c1.23-.997-4.469-1.932-6.92-2.961m291.644-195.502c.703-.351 1.391-.691 2.15-1.066q1.275-1.727-1.722.022M357.629 436.389c-1.049-.31-3.069-.806-2.984-.933.688-1.044 1.764-2.02 2.724-3.019M62.253 183.47l-.182 1.306M419.465 445c1.154-.374 1.147-.348-3.96-1.149M135.932 131.829c-1.837.913-3.681 1.81-5.498 2.786l-.481.703c.881-.237 1.747-.464 2.628-.701a2355 2355 0 0 0-6.105 4.729m-97 69.193c-.31.533-.627 1.219-.935 1.57-3.619 4.137-5.623 7.317-6.833 9.825-1.192 2.527-1.646 4.364-1.94 6.155-.08.466-.666 1.627-.992 2.479M133.769 377.12c.982.457 1.976.918 3.14 1.475.306-.253.585-.5.876-.744m578.88-201.686c1.795-1.644 3.416-3.415 3.819-5.113M380.583 435.696l5.079-1.515m120.393-135.95c.006-.941-2.185.309-3.962 1.143m-324.181 94.469-1.261-1.574m105.718 32.1a350 350 0 0 1-1.101-1.747c-3.209-.218-3.418-2.114-7.273-1.879M609.17 5.934c.074.221.147.442.105.33 2.11.089 4.036.175 5.864.257 1.829.125 3.571.25 5.313.375M358.418 430.807l2.627-1.264M78.093 356.512l2.87-.552m33.693-216.146c-2.984.91-6.149 3.04-9.425 5.783m589.013-123.44c-1.471-.783-2.978-1.48-4.467-2.198M540.346 286.013c-1.819-.643-8.224 2.386-11.952 3.267M197.09 100.726c1.433-.706 2.877-1.408 5.48-2.68-.84.926-1.237 1.374-1.903 2.116 2.98-1.29 5.545-2.293 8.087-3.344l.108-.387c1.081-.158 2.14-.324 2.849-.433a764 764 0 0 1 11.233-4.132M81.209 165.428c.537-.727 1.075-1.454 1.45-1.953 1.638-1.089 3.083-2.058 4.536-3.011M326.96 428.114l-1.442-1.238m-45.704-6.326c.239-.106.475-.199 1.179-.507-2.02-.102-2.765-.131-3.517-.176m333.399-168.268c.366-.557.321-.966 1.204-1.694 1.51-1.243 3.527-2.802 5.329-4.205M234.155 409.443c1.324.426 2.649.853 4.894 1.604a247 247 0 0 0-3.538-.366 793 793 0 0 0-5.36-1.923m-86.683-289.439c2.783-.679 5.562-1.345 8.622-2.089a125 125 0 0 1 9.431-5.584c3.317-1.745 6.827-3.3 10.459-4.718M5.955 242.399l.15 3.157M587.277 6.534c2.168-.118 4.348-.231 6.476-.207 1.354.014 3.007-.072 4.41-.056 1.395.042 2.54.228 2.858.724M167.839 390.682c-5.041-2.003-7.045-3.746-9.416-5.452M330.629 47.508c-2.806 1.332-5.631 2.602-8.361 3.973 1.785.28 3.039.473 4.308.7m334.433 173.33 7.162-6.428M715.452 34.01c-.58.7-.516 1.396.432 2.503.476.547 1.171 1.193 2.145 1.985.942.823 2.133 1.812 3.619 3.022M43.755 336.787c-1.126-.827-2.2-1.749-3.288-2.62a80 80 0 0 1-3.224-2.713m163.878 66.503 1.788-.479m496.357-210.475 2.822-3.367-1.178-.07m7.31-148.734c-3.128-2.175-6.423-4.067-9.733-5.906M224.103 90.018c.755-.362 1.492-.743 2.27-1.097.199-.091.525-.113.803-.178l-2.259 1.1M12.629 250.668l-.52-.168c-1.222 5.05-1.898 10.093-1.943 15.086M640.387 10.224l2.236 1.353m-143.564 2.574 8.104-.596m155.731 206.698c-1.628 1.487-3.251 2.961-4.45 4.066a21.5 21.5 0 0 1-2.646 1.553c-.763.344-1.445.575-2.157.866-1.411.586-2.925 1.364-5.508 3.571m-520.757-95.09c-.942.893-1.868 1.775-3.436 3.268-1.1.095-1.731.145-2.355.212M45.05 190.138c-1.667 1.629-3.783 4.857-4.65 4.03m-11.553 22.453c.332-1.313.653-2.673 1.058-4.118 2.047-1.703 3.654-2.944 5.25-4.188M725.534 42.139c-.124.311-.249.623-.505 1.271-1.328-2.171-2.083-3.526-2.938-4.743-.519-.393-1.448-1.086-2.384-1.795M56.335 344.862c-1.702-.928-3.367-1.9-5.356-3.033 1.021.976 1.96 1.855 3.562 3.398.083-.382.118-.595.168-.818M365.337 36.564c2.481-.087 5.089-.231 7.401-.246 1.372-.008 2.296.177 3.417.27-.731.23-1.458.445-2.908.906.713-.473.982-.64 1.255-.82m15.383 396.223 4.804.563m343.128-315.365-1.109-.271M229.739 79.891l7.128-2.218m482.141-39.76c1.036 1.233 2.09 2.403 3.084 3.651.973 1.284 1.978 2.494 2.887 3.828l1.091.421c-.956-1.165-1.986-2.243-3.032-3.31m-24.167 149.591c3.902-4.398 6.018-5.91 7.763-6.544 3.176-3.618 6.284-7.343 9.321-11.344 1.177-.324 2.073-.612 2.976-.884M120.804 377.753l2.338.683.193-.205-3.148-1.225M484.673 17.999l-3.065 2.346m39.163 278.491c-.097-.355-.863-.531-.162-1.093 1.85-1.486 1.735-2.043-2.139-1.041m217.853-158.046c-.617 1.053-1.245 2.102-2.12 3.593.343-1.353.675-2.666.992-3.928.808-1.47 1.486-2.785 2.51-4.804-.322-.259-.565-.449-.804-.653M664.197 14.489c-1.141-.465-2.281-.931-4.483-1.837-.588.95-1.153 1.865-1.748 2.84 2.856.597 5.474 1.032 8.049 1.707m-98.733 257.855c-1.269.562-2.56 1.117-3.799 1.702-1.025.486-2.008.999-2.999 1.496m-36.303 20.445c-4.635 1.165-1.713-.58-.469-1.67M202.891 400.835l-.297-2.107m-22.171-1.742c.549.374 1.09.731 1.961 1.321 1.501-.29 2.638-.514 3.775-.739m-43.578-13.109-4.521-1.92M18.036 235.376c-.929 1.768-1.861 3.55-2.658 5.375m45.148 99.427c1.237 1.13 2.49 2.251 3.765 3.337m145.869 58.338c2.085.573 4.167 1.16 7.033 1.942l.227-.939m-93.9-268.007c-2.778.835-5.075 2.29-7.254 3.852-2.164 1.596-4.222 3.254-6.348 4.89M40.671 337.003l-.172-1.322m67.985 32.59c.202.248.415.499.651.8 2.844.818 5.695 1.61 8.549 2.389M53.367 186.937l-.715 2.021m81.064 185.584c-1.522-1.306-3.451-2.785 2.814-.88M549.901 4.692c3.717 1.576-5.225.806-6.47 1.46m-283.528 61.57c-.818.145-1.64.302-2.706.493-1.92 1.52-1.214 2.563-7.84 4.93m-1.147 1.979.251.91-1.665.167m416.75-66.028c.09-.365.168-.733.338-1.424-3.27-.575-5.285-.957-7.308-1.271M485.267 306.725c-1.855.583-3.722 1.164-6.375 1.997-.679.484-1.657 1.154-2.627 1.84l1.813-.302 4.069-2.403M82.042 168.607c1.309-1.056 2.617-2.153 4.467-3.597.531.129.995.236 1.459.343M580.012 1.071C583.414 1 586.824 1.03 590.227 1c3.411.072 6.81.056 10.217.183m-437.64 383.475c.929-.32 7.821 1.774 2.839-1.097l-.308 1.096M410.948 31.931c.83-.056 11.342-1.973 12.851-2.204m-51.156 5.787c2.669-.449 5.353-.907 9.977-1.681-.686-.812-1.211-1.445-1.962-2.334 3.076-.402 5.768-.758 8.445-1.106l-.743.535-4.691.837 1.522-.846M13.435 310.057c-.38-.671-.763-1.328-1.123-2.021l-1.026-2.103m729.549-206.05c-.569 2.686-1.004 4.276-1.155 5.605-.129 1.337-.11 2.412.077 4.034M99.899 155.525l-2.5 2.486M554.93 11.221c.348.252.712.496 1.182.844-.462.105-1.508.358-2.645.625-.4-.2-.669-.342-.952-.475M87.492 363.956l-.284-1.54M572.666 1.518l2.447.211-2.44.424M487.97 18.526l-9.678 1.145m261.649 71.527c.06-2.892.083-6.444-.443-8.526-.233-1.06-.59-1.723-1.013-2.281-.408-.568-.838-1.016-1.224-1.618M151.64 379.585l13.178 3.879M377.777 31.429l.935.582M257.493 77.579c3.51-.149 9.31-2.781 14.194-4.26M452.59 15.99c2.983-.291 5.968-.638 8.955-.857m54.667.436c1.878-.183 3.768-.277 5.658-.414M48.14 340.858c1.178.731 2.347 1.488 5.09 3.06-1.21.131-2.178.241-3.143.338m84.817 29.179 3.863 1.188m18.957-262.765c2.282-1.094 4.549-2.22 6.85-3.251m-81.4 60.28-4.012 3.208m74.638 208.72c-3.464-1.594-6.926-3.201-10.365-4.886M537.641 3.696l-6.454 1.887M45.206 197.628a217 217 0 0 1 5.265-3.409 216 216 0 0 0-4.435 5.154l.53-.041c3.78-3.831 7.711-7.502 11.734-11.058m146.212-97.099 12.61-4.025.924-.743 2.596.119c.852-.443 1.843-.982 2.841-1.504M322.36 431.09c-2.083-.671-4.154-1.338-6.23-2.078m387.62-237.852c-3.541 3.333-7.713 7.333-8.457 6.292M217.798 408.14c-1.258-.574-2.549-1.342-3.755-1.66-1.644-.431-3.243-.496-4.858-.721M629.793 3.519c2.339 1.12 4.65 2.385 6.949 3.604m-316.245 425.28a165 165 0 0 1-4.752-2.065c-2.375-.203-4.761-.409-7.135-.611m94.235 10.594.963-1.363m276.716-229.314c-1.751 1.532-3.539 3.066-5.23 4.603-2.614 2.364-5.153 4.767-7.86 6.933m63.605-169.546c1.06 1.804 2.143 3.573 3.028 5.434.974 1.804 1.742 3.683 2.501 5.461.896.106 1.782.25 2.961.49-.651-1.153-1.349-2.052-1.983-3.002-.653-.928-1.283-1.89-2.125-2.893.226.425.43.842.649 1.25l.55 1.246c.355.804.702 1.59 1.036 2.331.652 1.504 1.13 3.009 1.683 4.467M517.085 297.9c-.368.431-.721.851-1.638 1.92-2.681.318-4.446.537-6.207.743M363.004 438.909l3.303-.202m22.622 2.026-3.194-.537M204.996 89.939l-2.75 2.363M54.592 182.536l-.437 1.378-2.01 1.617.356-3.022m5.755 165.925c.694-.1 1.385-.186 2.313-.324 2.145 1.634 3.631 2.802 5.154 3.883m677.471-240.168c-.057-3.929-.644-4.737-1.619-2.983M616.107 248.967c-.101.712-.203 1.425-.333 2.283 2.041-.847 4.111-1.714 6.154-2.574.085.182.205.459.37.836 3.849-2.628 6.679-4.487 8.1-5.591-.273-.566-.511-1.079-.75-1.592M349.711 38.014l-4.688 1.795M204.195 95.73c1.097-.828 2.201-1.64 3.268-2.45 2.876-1.099 5.46-2.08 8.044-3.063M379.618 32.43c-.591.302-1.166.595-2.135 1.098 1.224-.14 2.156-.248 3.087-.356M326.052 45.74c-1.78.889-3.533 1.857-5.305 2.805M742.752 66.66c.097.664.256 1.503.253 1.952.024 1.499-.127 2.87-.274 4.272M384.447 437.447l-3.105-1.338M256.175 72.865l5.327-2.222c1.893-.234 3.462-.418 5.047-.61m422.295 133.374c-1.216 1.999-2.023 3.202-2.975 4.175-.48.479-.995.904-1.61 1.338-.635.415-1.391.818-2.314 1.294m-16.114 13.333c-.359.532-.714 1.05-.914 1.366l-4.479 2.805c-1.486.941-2.972 1.883-4.505 2.726M424.709 441.4l.079-.804M516.31 298.2l-1.734-.417 2.522-1.072-.056 1.036M344.417 431.613c.514.236 1.173.659 1.508.697 2.638.273 5.208.482 8.102.725.022-.12.063-.444.113-.752M92.753 361.572a389 389 0 0 0 8.836 4.267m163.31 54.857-2.647-.993.868-.101 3.422 1.131M2.869 281.899c.356 2.07.919 4.065 1.369 6.109.607 1.968 1.207 3.961 1.89 5.883M364.754 38.022c-2.32 1.01-4.621 2.126-6.918 3.187M140.341 380.614c.777.223 1.558.432 2.542.707l-2.792-2.672M282.938 64.2l-7.098 2.243m46.12-20.11-13.185 5.373M702.75 184.44c3.507-2.555 4.347-3.522 6.401-7.319.457-.88 1.644-2.382 2.462-3.624M164.588 387.272l-1.732.103a276 276 0 0 0 6.798 2.865m-25.341-8.74c1.624.242 3.25.471 5.306.711a338 338 0 0 1-3.672-3.363m380.559-368.64-4.051.228m170.056 13.892c-.208.214.106.765-.194.908-.299.142-1.23-.101-3.958-1.374m33.444 20.226c-1.237-1.13-2.56-2.133-3.861-3.171M602.825 2.85l1.567 1.32M291.794 62.243c-3.359-.04-8.063 1.988-12.627 3.824m454.318-13.082c-1.62-2.012-3.295-3.958-6.042-6.658 1.159 1.808 1.544 2.678 2.789 4.88.462-.457.648-.636.834-.815M31.936 208.615l1.078-.103m643.093 5.434 5.082-3.286M530.12 292.311l4.735-2.047-.079-.377-5.606 2.118m-197.554-243.8-4.484 2.65m117.865-29.012-1.441 1.702M57.566 342.46l3.5 2.126m521.08-72.352q-3.219.693 1.445-2.727c.013.834.018 1.342.023 1.85M37.495 334.109l-1.343-2.556m81.524-191.286c-2.032 1.61-4.083 3.157-6.096 4.787m626.678-86.608c.452.807.998 1.545 2.129 3.626a25 25 0 0 0-1.564-.673m8.449 27.87c-.171 1.97-.271 3.908-.578 5.834M616.718 250.401l5.378-4.428M342.233 429.812c1.194-.164 2.391-.341 3.277-.463 3.69.485 1.544 2.016 7.155 1.728M175.4 390.699l-.011-1.016 4.912 1.54M722.465 159.65c1.984-3.327 3.82-6.745 5.547-10.211M300.111 422.066l-1.441-1.111m-117.282-27.54-.108-2.735M26.612 215.662c-.638.512-1.28 1.037-2.192 1.784-.207 1.086-.337 1.987-.47 2.816 1.735-2.311 3.583-4.542 5.459-6.737m116.327-88.566.29.726m559.547 60.747a304 304 0 0 1-7.924 8.348M326.441 51.56l8.613-2.893m299.232 195.606c-1.634.191-1.795-.465 1.269-3.023.276-.234-.58-.088-.904-.122m-7.604 7.649-4.583 2.167M731.833 49.639c-1.277-1.649-2.506-3.38-3.891-4.91m14.119 56.941c.097-3.288.069-6.574-.206-9.814m-.258 14.278c.014 5.968-.794 2.079-1.093 4.374M372.637 434.191c.556-.088 1.111-.177 2.068-.332-3.926-.787-7.667-1.528-11.443-2.28-3.08-.106-6.022-.224-8.956-.41m-93.869-12.951 7.231 1.105m29.229-360.486c-1.432 1.1-2.616 2.153-4.386 3.313-.967.63-2.929 1.462-4.444 2.197m380.457-47.254 2.11 1.454M144.87 379.654l-5.707-3.54M19.136 228.824c-.879 1.546-1.765 3.075-2.825 5.18.05-.968.08-1.563.143-2.752 1.21-1.186 1.89-1.853 2.568-2.507m557.836 40.997c2.53-1.14 5.056-2.267 7.638-3.418q.989-.948 1.932-1.868m-495.18 94.17c2.723 1.116 5.58 3.513 8.24 3.399m618.687-197.962c2.068-3.23 4.06-6.498 5.885-9.877m-19.326 34.001c-1.832 2.743-3.37 4.175-4.505 4.217m-119.641 75.403c.093-1.123 2.625-2.755 6.962-5.142M274.186 415.671l-6.176-2.047M588.138 3.464c-.542-.09-1.081-.194-1.917-.337-.472.144-.903.272-1.338.413M703.318 24.35c1.882 2.041-2.47.794 1.024 3.691M120.678 140.741l1.175.52m371.025-122.42c-1.527-.323-3.056-.632-5.412-1.124 4.438-.638 7.693-1.109 10.948-1.58l-.629-.399-5.05 1.018m213.312 18.697c-.891-.695-1.845-1.297-2.796-1.955a57 57 0 0 0-2.968-1.955c2.638.625 3.83 1.656 4.559 2.749M571.736 272.69c1.849-1.092 3.703-2.197 5.982-3.544-2.717.531-4.717.928-6.754 1.327-.105.022-.546.232-.726.343-.284.175-.477.338-.709.503M354.045 43.236c-1.74 1.141 1.831 1.434-5.19 3.406m-329.26 181.43c2.921-3.898 6.872-9.7 9.87-11.983.504-.386.668-.221.975-.305m504.369 77.855a40 40 0 0 0-1.237-.342c1.531-.618 2.823-1.13 4.115-1.643M732.281 62.766c1.468 2.33 2.761 4.8 3.935 7.343m-25.768-37.584c-3.186-2.278-6.498-4.33-9.857-6.255M596.462 260.417l-10.987 3.831M327.507 44.646c.113.697-.205 1.565 4.318.533m-12.215 9.694c2.854-1.022 5.704-2.072 8.582-3.002M227.443 409.699l-5.317-2.205M12.296 245.046c.118.98-.216 2.082-.674 3.229-.412 1.161-.936 2.371-1.244 3.509-.24 1.118-.616 2.235-.912 3.378m85.746-97.672c-1.007 1.56-6.868 6.522-.092 3.05a593 593 0 0 0-3.567 2.593M653.24 7.303c1.831.689-.695 1.07 3.788 1.938M396.448 34.166c2.676-.517 5.343-1.05 8.023-1.495m333.91 27.925c-.691-1.362-1.312-2.8-2.107-4.097m10.638 33.793c-.296-.925-.595-1.837-.958-2.741M181.367 390.37l-.786-1.111-1.715-.398 1.684 1.429M66.885 345.573c2.013.789 4 1.626 6.022 2.376M371.706 39.684l-3.068 1.431c3.479-.652 6.552-1.223 9.641-1.803M23.636 310.122c.713.933 1.511 1.781 2.291 2.651.799.848 1.53 1.759 2.366 2.562l1.032.459-1.232-1.592-1.153-1.651m167.873 80.702-6.768-2.841m-171.68-78.131c-.826-.576-1.626-1.199-2.44-1.813l.619 1.353c1.01 1.015 2.133 1.897 3.195 2.816m57.37-151.273a496 496 0 0 0-7.997 6.678m45.167 199.705-2.072-1.498m396.162-62.434a531 531 0 0 0 9.081-3.194c-.332.301-.715.656-1.304 1.212 1.251-.455 2.311-.845 3.36-1.238m-413.079 62.498 7.599 2.828m40.807 22.049 1.721-.107m13.298-2.215.511-1.86M6.525 255.438c-.025.921-.041 1.815-.057 2.795.008 1.817-.018 3.665.118 5.467M632.599 7.546c-.826.044-1.641.133-2.468.218m50.731 193.212c-1.119.864-2.302 1.65-3.471 2.427M475.319 13.509c6.225.247-1.719 1.064-3.13 1.608m138.174 239.58 2.39-.777M312.023 424.3l-.681-.782M283.866 67.875c2.82-.02 5.423-.897 7.784-2.753m443.802 75.138a72 72 0 0 0 3.071-3.638m-10.871 21.435c-.591.696-1.2 1.372-1.818 2.031M429.885 19.141c-1.075.09-2.138.184-3.084.258-.606.354-1.163.667-1.708.983M117.958 142.82l-.443 1.01m482.938 119.955-1.731.188m3.907.766-.231-.581M208.842 407.154l-.51-1.304m-30.614-8.202c2.008.408 4.02.802 6.662 1.33.045.014.617.395 1.207.754M39.894 205.988a140 140 0 0 0-4.674 4.95M680.455 24.664c-.949-.489-1.902-1.007-2.884-1.421M282.58 414.872c-1.051-.212-2.11-.44-3.154-.678l-.089.14c1.334.303 2.665.577 3.995.851m387.58-201.422 4.38-4.257m55.085-52.849-2.05 3.081-2.127 3m-.295-15.778c-.587.992-1.216 1.957-1.822 2.929M433.338 20.422l-1.539.953m203.582-10.204-.08.635m-77.206-4.335c-.843-.341-1.7-.673-2.576-1.026-3.35.637-.539 1.655-6.334 1.856M333.231 429.824l-3.168-.542.036-.481 4.807.817m-201.72-304.229c1.006-.506 2.016-1.025 3.34-1.695-.593.526-1.103.981-1.625 1.432M74.605 356.36c1.984.934 3.964 1.881 5.963 2.764m235.178 67.346c1.902.304 3.804.607 5.709.855-.262-.647-.463-1.12-.655-1.576M238.668 83.865c-.488.42-.987.835-1.718 1.458.957-.24 1.875-.479 2.794-.718M579.189 3.52l-1.634.543m65.005 2.6 1.51.907m79.453 34.3-.994-.109m-6.271-4.298c-.619-.256-1.235-.525-1.953-.826-.728-.263-1.577-.578-2.63-.96 1.963 1.49 3.477 2.822 5.018 4.148M352.718 430.756l-7.865-2.013m-300.86-89.067c1.001.52 1.984 1.062 2.237 1.171.344-.607.632-1.105.923-1.615M207.818 90.609l-5.632 4.276M29.403 204.535c1.053-.364-1.74 4.349 3.973-2.236m523.958 77.02-1.714.08M475.967 11.467c-.262.14-.516.298-.807.457-.538.024-1.075.048-1.601.075M58.467 183.812c2.389-2.001 5.246-4.485 5.073-3.12m465.288 116.182c.416-.555.835-1.124 1.268-1.701a383 383 0 0 1-8.841 2.299M359.324 435.979l.893-.542m-47.327-6.708c2.431.22 4.848.492 7.275.683m416.741-301.398.504-3.594-1.064 1.5M145.559 385.854l2.139 1.392 3.86 1.286m-13.417-260.085-2.028 1.682m-43.908 25.365-.39 1.042m-87.808 94.42c.619-.841 1.299-1.635 1.963-2.42m69.438-82.938c-1.267 1.786-2.553 3.551-3.79 5.361M586.454 6.873c-2.166.33-4.325.59-6.479.965M316.532 48.565l-3.159 1.008M540.118 4.465l-3.254.246-.385.228h3.666c1.58-.968 4.393-.963 7.308-.882m85.377 1.566c-2.249-.035-6.034-.621-6.568.135m-7.675 242.643-5.132 2.848-5.22 2.678M575.923 8.46c-1.107.206-2.203.374-4.03.727 2.064-.01 3.444.041 4.839.04M14.678 306.73c.477.365.963.746 1.35 1.04-.695-1.307-1.28-2.649-1.84-3.997m145.806-190.636-1.872 2.182M588.881 7.459l-1.636.682m-83.991 298.836-2.58-.043-2.254 1.172M276.107 422.534l-3.126-.866m-158.198-46.515 3.871 1.289M30.398 204.293A172 172 0 0 1 35.23 199m110.769-80.16c-1.508 1.062-3.008 2.14-4.057 2.885-.655 1.28 6.741-3.609 3.95-.88m34.898-19.083 3.906-1.47m36.058-15.657-3.128 1.116m487.999 95.353-.837.476c.408-.53.76-.993 1.116-1.469m-20.612 21.265c-2.025 1.584-4.005 3.225-7.08 5.343.64.094 1.088.168 1.54.229M130.179 375.006c-.748-.325-1.496-.65-2.818-1.217 1.455.272 2.638.498 3.809.721m71.45 27.418-1.399-1.083m539.152-267.509 1.02-3.146.895-3.186m-354.314 308.26 2.46-.192M266.64 420.258l7.986 1.447M486.135 15.868c.783.111 1.578.227 2.964.434.773-.51 1.322-.882 1.867-1.241M285.275 417.892l-.549-1.429m258.455-132.505 3.163-.978M345.718 43.395c-.496.36-.989.708-1.608 1.156-.781.1-1.536.194-2.291.288M541.848 7.4c-.925.434-1.86.864-2.926 1.365-1.897.162-4.33.476-6.756.763M28.256 212.352l-2.07 2.892m649.185-4.039 2.81-1.964M496.726 15.735c.218-.732.511-1.467.522-2.167 0 0-.12-.01-.335.005-.202.019-.492.038-.807.063-.646.06-1.42.134-1.953.187m235.222 42.803c-.716-.836-1.416-1.68-2.151-2.494m-52.851 158.693-2.814 1.977M211.678 91.852l.323 1.046m519.376 52.337a131 131 0 0 0 4.998-12.343l.373-.316c-.239 1.288-.598 2.522-.893 3.791M623.697 251.65c-.951.003-1.902.006-2.744.016-.991.582-1.338.765-1.45.856s.117.065.017.16c-.399.364-.88.757-1.319 1.136m-524.24-95.085-2.84 1.363c.58-.614 1.164-1.242 1.585-1.683 2.279-1.348 3.752-2.153 5.224-3.001M680.55 21.782l2.794 1.787M338.994 429.655l.72.598c.549-.02 1.629.004 1.545-.094-.221-.268-.901-.571-1.397-.871M228.809 85.528l-4.982 3.585m144.671 345.489c-2.451-1.338.233-1.711 3.524-1.959M599.301 9.38c-1.067.022-2.15.096-3.224.143m128.879 42.275c-1.096-.803-2.284-1.495-3.408-2.237M402.222 438.63l-2.255-1.683-1.874-.097 1.763 1.06m-7.231-.796-2.33-.933m-77.147-13.641-.575-1.423c1.614.14 3.229.281 5.773.495-.456.304-.762.514-1.064.712m36.504-380.492-3.878 1.282-.259-.308 4.896-1.349M107.904 364.933c.149-.177.305-.338.561-.635 1.249.74 1.903 1.134 2.558 1.528M273.266 66.373l-3.21.837M646.367 13.5l-3.201-.201m30.389 195.099-.662-1.029M11.107 236.491c-.885 3.021-1.73 6.026-2.296 9.092m139.036 132.569c-.102.361-.203.722-.305 1.041-2.774-1.02-4.809-1.774-6.844-2.528m92.541 29.543-6.317-1.81-.059-.315 3.395.7M564.62 10.122l5.666.348m83.099 4.588c-.921-.058-1.832-.112-4.782-.289l5.32 1.714M303.62 425.349l-1.469-.923m417.705-263.535c-2.534 3.221-5.228 6.263-7.901 9.186 0-.436-.004-.818-.008-1.199M211.653 405.935c-3.75-2.6-3.758-2.617-1.809-2.833m79.726 18.129 10.582 2.621.971.848 2.695-.454M577.554 2.614l-4.078 1.598c-.271-.045-.696-.07-.78-.125-.132-.099-.039-.21-.033-.32m172.159 111.184c-.219-.141-.424-.291-.655-.436.076-.623.19-1.556.293-2.494m-4.193-12.139-.09-1.744-.165-1.741M36.834 326.189c.88.648 1.796 1.253 2.682 1.876m69.369-180.841-2.75 2.012m37.248-25.654.232.581 2.166-1.342m119.943-55.825c.873.056 1.738.095 2.615.18m139.417-34.558-6.337 1.687m-197.511 369.15 3.289.243-.188-.342a363 363 0 0 1-9.255-2.292c-.693.227-1.225.407-2.001.664 2.375.948 4.792 1.923 7.82 3.138-.278-.681-.401-.988-.533-1.311m-16.321-4.991-1.182-1.857M546.729 7.509l-1.596 1.244M400.744 29.727l.207 1.417M12.919 234.346c-.65.424-1.237.755-1.244.078-.007-.678.558-2.38 2.431-5.842M117.45 377.53c4.91 1.413 1.975-.264 1.206-1.088M46.607 186.265l-1.135 1.449m24.343-14.776-.136 1.448M676.552 12.549l-2.354-.801M99.281 362.634l2.137 1.223m631.062-210.25c.231-.601.469-1.185.676-1.793m-110.144 98.279c-1.858.682-3.719 1.376-5.974 2.197 1.236-.839 2.225-1.505 3.218-2.184M41.41 191.103l.922-.252m506.7-188.029.832.423m74.342 249.54-1.596.583m-70.992 35.53.635-.766M170.938 388.614c.289-.019.601-.031.849-.078.105-.023.04-.1.054-.151m46.882-296.134c.635-.105 1.258-.214 1.93-.32 1.23-.603 2.745-1.339 4.26-2.074M8.773 276.782l.564-.114m526.577 14.837c-.035-.095-.149-.174-.06-.314.063-.093.452-.291.695-.452M344.052 39.089l.179.943M322.727 428.86l-.717-.611-.873.338m-78.452-16.467-.68-.655M733.56 50.477l-.858-.417M58.328 177.1l2.197-1.36m628.762 22.352-1.446.927M267.353 416.791l2.339.681M570.231 2.759l-.008-.805-1.813-.007-2.26 1.016M102.432 363.41l-3.472-2.314m432.367-64.556-.9-.135M100.208 148.803c.073.136.396.128.162.433-.645.847-1.537 1.825-2.328 2.752M281.35 416.924l-.453-1.904m440.895-246.473c.579-.7 1.158-1.399 1.707-2.122M346.647 39.517c.02.105.134.184.022.317-.074.088-.475.24-.733.368M70.78 350.781c.61.154 1.221.309 1.76.454a98 98 0 0 0-1.316-1.465M441.996 24.309l2.413-.419M15.843 224.163a52 52 0 0 0-1.415 2.399M275.68 65.829l-.963 1.054-1.59.43 1.695-1.508m69.151 363.302-.626-1.242M486.903 15.116l8.905-.858m200.468 174.51 1.636-2.089M77.239 167.074l-1.979 1.683m454.514 122.331 1.453-.91m42.213-12.436c-.81.203-1.616.436-2.433.622M303.219 427.568l2.392.448m-77.54-17.481 2.361.606m351.434-142.219 2.364-.771M649.175 6.796c.25.165.587.33.694.476.034.053-.508.005-.779.003m-15.973 238.478 5.562-4.115M491.829 15.592l3.233-.435c-.276-.117-.559-.25-.846-.371M310.815 426.54l7.597-1.209M67.732 171.086l2.048-1.577m113.443-68.369-2.228 1.209m325.308-89.507 4.846-1.041-1.63-.173 4.84-.354M209.186 399.078c.499.245.983.5 2.219 1.109.737-.382 1.324-.671 1.915-.973m305.334-98.725-.208-.756M269.907 420.495l-1.322-1.622m28.675 5.257 1.672-.151m381.254-213.262c1.426-1.735 1.825-3.112 6.661-6.181-.995 1.128-1.947 2.186-2.868 3.225-.929 1.023-1.878 1.941-2.804 2.909M400.237 441.83l-1.58-.48m-116.006-22.685-1.511-.641M101.181 147.007l4.061-1.407m-23.433 20.892c.375-.104.75-.209 1.939-.529-2.666 1.448-4.053 2.211-5.436 2.961m420.772 138.44-.904-.165m-350.889 78.552 1.631.216m558.032-208.584-2.414 2.486M138.18 379.342c.462.331.924.663 1.86 1.33-2.034-.711-3.574-1.249-5.11-1.8m-29-231.896c-.193.247-.464.553-.522.717-.018.065.475-.198.73-.313m213.135 282.533 1.674-.206M538.618 8.132c-4.318-.182-1.694.453-2.414.685M210.981 89.588l-2.259 1.143M321.24 427.96l-1.515-.756M12.862 232.176l1.521-2.295M277.347 420.5c.263.338.533.693.808 1.034 1.377.149 2.22.223 3.063.298m-42.15-342.508c-1.036.173-2.06.35-3.704.621-.899.344-2.974 1.138-5.045 1.92M409.604 28.15l-2.387.68M72.691 171.094c-.174.267-.423.581-.485.758-.018.065.46-.232.718-.359M47.34 194.771l1.533-.8m-7.496 137.225 2.37 1.452c-1.112-1.229-2.097-2.292-3.056-3.403M363.711 36.814c-.815.089-1.637.204-2.448.322m163.365 257.021c.549-.372 1.098-.744 2.057-1.391l2.704-.001-3.089 1.241M5.39 276.522l.56 1.741m114.392 95.558-1.419-.88M14.147 238.146l-.913 2.505m725.442-117.708-.859 1.608M475.832 19.413l-2.421.359m-254.376 67.77-2.263 1.113m518.631 36.933c-.097 1.136-.149 2.287-.338 3.619.51-1.2.97-2.529 2.087-5.714-.947 1.876-1.298 2.466-1.603 3.071m-45.322 66.993-4.786 3.592-1.708 1.996m-55.648 41.809c-.71.46-1.423.892-2.148 1.319M614.094 5.186l.743.999M297.948 56.152l1.676-.08M672.6 17.479c-.535-.074-1.077-.122-1.63-.174M560.326 275.079l4.745-1.425M124.65 370.961l3.243.496M567.053 10.47l-4.026 1.192m129.535 179.299 1.048-1.448M676.332 19.088c1.312.296 2.656.518 4.357.967.324.386.617.748.914 1.096m-562.22 347.691-2.123-1.317m-53.369-17.444 1.636.372m-5.934-2.868-1.206-1.288M7.808 254.783l-.044 1.828m640.599-29.45.181-1.432m88.77-87.612c.031-.328.102-.755.066-.935-.008-.059-.296.481-.444.743M68.943 176.483l-1.787 1.97m674.597-108.15-1.036-1.543m-355.15-30.265 1.321-.967 1.677-.697 1.752.395m83.451 277.834-2.42.529m233.93-138.788-1.808 1.823m-529.116-64.897c1.567-.523 3.14-1.071 4.721-1.56M150.643 385.86l-1.449-.818M471.958 21.78c.599-.244 1.21-.483 1.824-.735-1.079.018-1.887.039-2.707.056M154.037 382.917c.289-.019.654 0 .811-.076.056-.024-.435-.253-.681-.388M500.09 17.423c-.262.141-.557.27-.77.413-.09.056-.007.11-.01.166m168.984 196.381c.163-.271.404-.601.454-.782.019-.064-.452.248-.691.396m9.814-11.382-1.953 1.635M76.512 174.28l-2.032 1.567M20.026 310.098c.163.559.324 1.132.624 2.171 1.054.775 1.796 1.296 2.583 1.788-.734-.855-1.402-1.774-2.07-2.692m721.474-199.621c-.342.382-.687.777-1.334 1.497.168.588.231.848.305 1.111M650.576 229.52c-4.86 2.274-9.674 4.606-14.62 6.571M214.757 400.113c.044-.154.121-.298.052-.489 0 0-.249-.081-.547-.163-.309-.085-.675-.189-.939-.26M454.924 22.706c-2.139.408-4.266.82-6.277 1.213-.848-.146-1.741-.307-2.645-.472M653.456 6.191l2.33.976-1.087.31-1.241-.328.719-.318M76.785 162.848l.307.535m139.331 236.69c2.693.474 5.371.957 8.325 1.472 1.199.387 2.731.908 4.267 1.417M11.304 285.741l1.432 2.107m515.151 8.723c-.323.402-.631.795-1.224 1.547-.494-.089-.731-.123-.98-.161m-395.197 81.579-5.036-2.987m551.529-172.21-2.293 1.132M430.967 28.027c-.516.256-1.025.528-1.515.778-2.094.69-3.061-.747-5.645.939M401.98 440.718l4.076.075M623.248 11.609l2.36.563M558.869 5.33l.006.635m84.498 226.172c-.181-.059-.362-.117-.649-.238.13-.155.531-.616.921-1.081m-465.801-127.36c-1.013.573-2.014 1.151-3.786 2.141 1.816-.709 2.898-1.134 3.991-1.555"/></svg>