<svg xmlns="http://www.w3.org/2000/svg" width="708" height="131" fill="none"><path stroke="#FEFEFE" stroke-linecap="round" stroke-linejoin="round" stroke-width="2" d="M589.8 7.544c-.37 1.02-.74 2.04-1.26 3.462-1.97-2.042-3.39-3.502-4.81-4.983l.9-.32v.82M321.98 22.292c-2.84-.2-2.13 2.401-3.96 3.302-.19-.46-.4-.94-.6-1.421m-84.74-2.521c-.89.44-1.78.86-2.55 1.24-.01 1.521 1.26 2.822-.74 3.983M491.2 12.446l-.93-2.341c-1.72-.52-3.14-.96-4.67-1.42-1.89 2.46 3.24 4.302.82 6.703 1.26 2.141 3.6 1.36 5.67 1.38M170.78 40.583c-.39-.64-.77-1.28-1.16-1.921-2.09 1.18-3.72.34-5.28-.7m182.25-21.652c.67-.06 1.34-.1 2.44-.2-1.61-2.482 2.27-3.563 2.19-6.044-.27-.18-.84-.56-1.4-.92l-.53.28.37 1.6M26.61 68.819l.96.08v.42c-.94.42-1.89.82-2.83 1.24-1.27-.38-2.42-.72-3.42-1.02-1.17.5-2.22.96-3.16 1.36-.31.461-.61.901-.9 1.362m428.27-55.671-1.38-.18-.37.46 2.11 2 .03-.66c1.34-.42 2.68-.86 4.11-1.3.35.82.52 1.24.69 1.64M17.97 58.333c-1.51-.5-3.04-.36-4.6.72-.03.02-.21-.1-.28-.18-.04-.06-.02-.16-.02-.24M361.98 8.364c-.19.64-.37 1.28-.64 2.201-.51.32-1.41.92-2.54 1.641-.6-.04-1.56-.1-2.44-.16-.48-1.14 2.37-3.482-1.57-3.102-.21 1.781-2.82 3.182-1.62 5.183m145.8.3c-.93-.66-1.86-1.3-3.02-2.12-.4.68-.71 1.2-1.01 1.72M175.13 41.362c.39-.58.78-1.16 1.31-1.96 1.07.36 1.93.66 2.25.78.06 1.62.1 2.821.15 4.022l-.73-.38M464.38 2.7c-.14.34-.27.68-.56 1.4-.43-.66-.66-1-.96-1.48-.67.74-1.29 1.44-1.91 2.121m23.88.62c-.13-1.12-.26-2.24-.42-3.662-1.39 1.06-2.45 1.981-3.64 2.782-.41.28-1.12.22-1.7.32M50.03 63.595c-.83.56-1.66 1.12-2.6 1.76-.66-1.36-1.08-2.24-1.57-3.261-.56.42-1.09.8-1.62 1.18M584.36 1.962c-.29-.24-.57-.68-.86-.7-1.15 0-2.3.1-3.45.18M412.92 7.643c-.97 1-1.95 1.981-2.97 3.021.4.18.7.3 1 .44M128.97 40.963c0 .24.02.48.03.76-1.34.12-2.6-1.72-3.6-.22-.09 1.942-.16 3.322-.23 4.683l-.51.04.58 2.081m428.041-36.92c-.46-.48-.92-.94-1.83-1.881-.25 1.24-.361 1.8-.471 2.381M48.31 52.11c-.66-.16-1.32-.3-2.3-.52a962 962 0 0 0-1.89 3.521m461.46-42.023c.39-.46.79-.92 1.24-1.461.75.78 1.3 1.34 1.85 1.921l.1-.52 3.99-.08M104.09 46.405c1.85-.84 3.69-1.56 3.7-3.802 0-.68 1.31-1.58 2.03-2.381-1.42-.88-1.76.58-2.48 1.26l-3.07-.46-.14.44.89-.04M401.71 8.545l-.48-1.1.79.02-.54 1.66-.49-.02 1.66 4.423M288.18 28.695l-.29 1.861c-.65-.2-1.03-.34-1.84-.6.71-.56 1.27-1.02 1.83-1.48m152.98-17.91c-.36-.48-.72-.961-1.04-1.361-1.08.3-2.04.56-3.05.82-1.83-.78-3.43-2.341-5.76-1.54l-2-2.122m-281.19 37 .26-.76.89.88c1.42.541 3.59-.9 4.95.621.46.52.99.98 1.49 1.46m-24.23-6.903c.39-.78.79-1.54 1.41-2.782-.81.34-1.16.5-1.5.64-.03 0-.03.18.01.22.07.081.19.141.29.201m30.08 8.905c1.57 1.5 3.23.46 4.88-.5m29.6-18.07c1.49.34 2.93 1.18 4.61-.16m180.63-6.424c-1.06-.16-2.12-.3-3.37-.48-.02.3-.05.62-.08.94m-44.15-7.164c.68.18 1.33.46 2.03.54 2.01.28 4.06 1.461 6.03-.46M50.58 57.211c.13-1.36-.18-2.461-1.59-3.081-.6-.26-1.08-.68-1.98-1.261-.48 1.22-.94 2.381-1.4 3.542l.56.18 1.67-1.961M578.31 4.562c2.26.66 1.2 2.421 1.64 3.642.4 1.12.17 2.381-1.34 3.142-.21.1-.03.76-.03 1.16M62.74 57.712c-.36.48-1.11 1.301-1.03 1.361 1 .76 2.12 1.401 3.22 2.061m466.23-46.966v1.721c1.12-.12 1.96-.22 2.8-.32l.08.74h-1.72m-82.54-6.123c.67.86 1.34 1.721 2.26 2.922 1.07-1.1 2.03-2.081 2.98-3.042.72-.2 1.48-.4 2.23-.62m-304.09 37.68-3.56-2.6M525.39 5.802c-1.39.54-2.79 1.08-4.37 1.7-.36.06-1.01.16-1.66.26-.11.02-.27.16-.27.24s.17.161.27.241m-357.42 34.88-.55 1.34.6.1c.8-2.341 1.56-2.621 5.69-2.081m304.85-28.055c-.97-1.081-1.94-2.142-2.92-3.242-.02-.02-.36.16-.66.3.05.82.11 1.7.17 2.741.68-.24 1.32-.48 1.97-.7m82.2-1.18c.99.94 1.97 1.86 3.19 3.021-.66.4-1.21.72-1.75 1.06M55.02 59.233c-1.33-1.62-2.51-.02-3.72.74m259.78-35.94c.6.501 1.19 1.001 1.81 1.522-.41.38-.79.72-1.18 1.06M231.36 34.8c-.68.08-1.35.16-2.55.32 2.76 2.021 3.11 2.021 3.72.26m99.04-21.692c-1.25-.1-2.5-.18-3.71-.28-.27.36-.57.76-.88 1.18M44.36 65.677l-6.79 2.78m27.21-10.425 3.8.94m517.21-54.35-2.58-2.662m-25.61.761c-.77-.18-1.55-.36-2.76-.64-.85.88-1.92 1.98-2.99 3.081M283.81 26.774c-.21.5-.42.98-.66 1.541-.73.22-1.59.46-2.44.72-.67.06-1.35.2-2.01.2-1.21-.02-1.68-.4-.61-1.36m50.46-7.404 2.18.58c-.65.84-1.29 1.661-2.07 2.662.56.18.98.34 2.39.82-.84.32-1.34.52-1.83.7m249.06-9.865c-1.15-.16-2.3-.48-3.45-.48-2.32.02-4.63.22-7.53.38-.18-.12-.92-.56-1.67-1.02-1.99 2.881-5.5.64-8.04 1.66m-144.1-9.005-.03-1.92-1.12-.22-3.13 4.762m-111.55 7.344c.23 1.5.48 3.002.68 4.502.08.62.04 1.281.06 1.922M70.64 47.706l-4.02.56m338.29-37.76c-.38-.08-.75-.14-1.3-.26 0 .58.02 1.06.03 1.76.47-.36.73-.56 1-.76m-202.52 19.27c.17 1.121-1.86 3.282 1.54 2.922M565.08 3.021c.24 2.241 2.22-.32 3.04 1-.47.841-1.04 1.842-1.6 2.842M113.81 44.224c1.08.68 2.07 1.66 3.77.34M382.29 17.25c-.25.28-.51.56-.81.88.21.08.5.22.97.42.34-.82.66-1.58.97-2.34m17.02 3.701c-.56-1.9-1.72-1.1-2.88-.3m-318.2 35.4c-.74.14-1.49.28-2.8.5.86.62 1.33.96 1.81 1.301l-.29.48c-1.23-.3-2.47-.62-4.16-1.04-.16.18-.64.64-1.07 1.14-.26.3-.44.64-.65.94-.67-.2-1.16-.34-1.65-.5m155.31-32.938c1.75.4 2.12.4 2.88-.12M463.28 8.504c-.03-.32-.07-.64-.11-1.08-1.43 1.02-1.65 2.28-.73 3.261m24.17 3.522c-.57.1-1.15.18-1.93.3-.2.5-.42 1.081-.65 1.661m-192.89 4.523c-1.31-.38-2.6-.56-3.73.64m201.15-17.49c-.25 1.121-.5 2.222-.69 3.102.8.48 1.35.8 1.44.86 1.88-.46 3.45-.84 5.02-1.2.1-.08.29-.22.27-.24-.36-.4-.73-.8-1.14-1.26.35-.2.75-.44 1.15-.661M164.17 33.638q-1.08 1.06.22 2.802c-.93.86-1.92 1.76-2.9 2.661M289 16.11l-2.52 2.681M588.66 7.043c-.48.08-.97.12-1.44.24-.58.16-1.15.3-1.73.46m-36.23-4.502c-.5-.2-.99-.42-1.54-.64.62-.44 1.14-.8 1.73-1.2-2.28-.841-2.6.48-3.07 1.62-.01.02-.2.04-.27 0-.11-.06-.2-.16-.29-.24M268.93 29.836c.19.38.38.76.86 1.741.82-1.58 1.4-2.721 1.98-3.842l-.43-.28c1.92-.96 3.83-1.921 5.95-2.982-.57-.22-1.09-.44-1.62-.64m-98.11 5.343c3.08-1.621.5 1.88 2.08 1.6q1.71-.72 3.95 1.621c-.06-1.74-.11-2.941-.15-4.122h-.6l-.66.92M439.21 16.65c.77.36 1.52.76 2.32 1.08.84.32 1.72.56 2.59.84m135.6-2.96c.48.32.95.92 1.44.92 1.88.04 3.64-.4 5.17-1.361M173.6 31.237l-1.91-1.521-.51.34c.25.34.49.7.91 1.28-.33 1.261-1.67 1.742-3.32 1.822M327.64 18.15c-.25 1.58.96 3.362-1.33 4.702M22.98 71.28l-3.4 1.2m25.94-12.586-3.12 1.34m174.77-37.6c-1.21-.24-2.18-.2-2.92 1.1-.22.4-1.26.52-1.92.78m-58.5 16.69c1.82.16 3.65.3 5.79.48-.02-.56-.04-.96-.05-1.36M419.98 18.83c.59 1.28 1.71 1 2.88.58M407.42 5.282l-3.73.72h-7.2M62.4 50.529c-.39.1-.77.2-1.27.34.42.72.76 1.3 1.09 1.86m390.7-44.584-1.99 2.482m-162.76 17.83 6.32-.681-.03.38c1.9-.52 3.8-1.06 5.67-1.58.08-.341.21-.821.33-1.302m140.07-18.53c-1.71-.26-3.41-.52-5.36-.82-.07-.34-.22-1.06-.37-1.801 1.89-.52 3.65-.64 4.54 1.24.41-.2.79-.38 1.17-.56m-311.03 34.62c1.12 1.16.66 2.6-1.03 3.04-1.03.281-2.1.361-3.15.541m338.89-29.496c.62-.62 1.23-1.26 1.9-1.941-.55-.54-1-.96-1.53-1.46-.66.46-1.41.98-2.28 1.58.55 1.1 1.09 2.181 1.63 3.282M242.45 30.076l1.57 4.743-.56.2c.38.12.77.24 1.27.4.38-.52.75-1.02 1.26-1.72l.93 1.36m264.97-24.013c.67.32 1.34.62 2.16 1 .51-.34 1.07-.68 1.75-1.12l1.56 2.881M150.67 35.219c-1.47.76-2.93 1.54-4.57 2.401-.36 2.582-.72 2.922-3.12 3.402-1.26-.54-2.03-.86-2.8-1.2M471.3 4.382c-1.1-.54-2.2-1.1-3.28-1.641-.09.16-.28.48-.47.8M325.73 22.892l-2.55 1.921m-83.61 5.363 6.09-.76c-.21-1.361-.38-2.462-.64-4.203-1.36 1.181-2.28 1.961-3.2 2.762M505.23 1.58l2.89 1.621M99.85 48.386c1.53-.22 3.07-.44 4.69-.66l-1.34-1.861M19.16 59.032l.83-1.46-.4-.16-3.5 2.54-.37-.42-2.22 1.922M382.61 19.63c1.06.2 2.12.64 3.16-.2m-134.02 3.962c-.3.48-.6.94-1 1.581-.45-.5-.73-.8-1-1.1m-88.56 11.186c-.22 1.08-.44 2.141-.69 3.342.79.9 1.6 1.86 2.58 2.981-.79.28-1.28.46-1.77.64m283.87-30.956c-.57.12-1.14.24-1.69.34l-.57-1.26c-1.11.24-2.18.42-3.21.72-2.21.66-4.4 1.34-6.6 2M143.45 35.16q.1-.98-2.05-.62M77.33 48.626c-.22-.88-.45-1.74-.7-2.721-1.78.78-2.11 2.701-3.95 2.121m21.22-3.382c.96.72 3.19.9 1.29 2.962-.52-.42-1.01-.82-1.5-1.24m293.45-31.598 1.25 1.22c.54-.3 1.08-.62 1.63-.92m27.01-1.38.87-.361-.36-.48-1.37.64M76.99 59.793c.05.4.1.78.17 1.34-.63-.14-1.1-.26-1.57-.36m399.5-49.807c.37.56.74 1.1 1.06 1.6 1.41-.62 2.76-1.2 4.11-1.78m-348.65 38.16-2.37 1.842m122.27-25.935.36 2.602m83.37-3.982c1.91-.62 3.83-1.221 5.94-1.901 1.22 1.12 2.55 2.32 3.87 3.521m21.9-13.047c-.19.26-.31.64-.57.74-1.65.56-3.33 1.141-5.34 1.842.69 1.16 1.15 1.94 1.62 2.721l.4-.16c-.16.98-.31 1.961-.5 3.082.47.18 1.07.42 1.67.66m-108.28 7.945c-.01-.48-.03-.96-.04-1.381 1.52-.44 2.76-.82 3.91-1.16 1.51.22 2.96.42 4.42.64m-60.84-1.201-2.03-.22.04.96m-79.5 11.287-1.32 2.881M46.92 64.915c-1.38.58-1.2 3.142-3.63 2.402M555.87 9.205c-.2.8-.4 1.6-.66 2.621-.56.08-1.25.18-1.93.28M270.22 24.653l-3.44.36-.1.5 2.14.481m2.39-7.224c-.77.92-1.55 1.86-2.36 2.822.13.46.3 1.08.47 1.72M116.17 38.761l-3.11 1.48m40.28-3.02c-.96.14-1.91.3-3 .46.55 1.26.9 2.08 1.37 3.161-.81.12-1.39.22-1.96.3m421.93-30.877-.58 4.563M490.85 2.36c-.69 1.8.85 2.961 1.75 4.282m-39.35 5.823 4.32 1.04m3.16-1.06-2.3.56m-171.27 9.806c-.19.42-.39.82-.76 1.601.59.66 1.74 1.941 2.9 3.222m-23.56 1.34-3.16.5.12-.22-2.44-.4M101.93 49.708c-2.31-.12-2.75 1.681-3.54 2.862-.39.58.09 1.56.33 2.301.16.48.59.86.89 1.28m441.3-55.01-1.43 3.362M186.39 34.14c.92.5 3.9-.88 2.37 1.84M36.5 58.773c-2.87.98-5.69 1.661-8.34.78m-9.19 1.221c-.82.98-.92 1.661.66 1.541m496.56-54.25 2.6 3.082M15.31 62.754l-1.24 2.142-.39-.1s-.02.22.02.22l.87.06m57.78-11.907c.02.48.05.98.09 1.921.36.1 1.2.34 2.05.58m-50.64 4.543c-.3.64-.61 1.28-.98 2.061.25.26.61.62 1.09 1.12-1.49 1.041-2.84 1.962-4.24 2.942-2.26-.76-2.48-.72-3.32.76m474.79-56.81c2.49-1.142 3.15-1.122 3.74.16M332.2 16.027l-.31-.94c-.31.12-.63.24-1.08.42 1.17.94 2.09 1.681 3.01 2.422l1-.941-1.74-.58M187.93 28.856l-1.35 2.581.59.4-3.73.52c0 .16.02.56.03.961l-2.87.44m146.94-20.17c-.38-.141-.76-.281-1.36-.481-.13.6-.23 1.1-.34 1.6m-92.29 16.21c.13-.36.26-.7.51-1.401-.63.22-1.16.4-1.69.58m-87.48 5.063 2.95 1.46m9.52 7.445-1.14.42.97.76 1.89-1.44m10.18-12.867c.27 2.44.54 4.902.81 7.263.84-.74 1.7-1.48 2.56-2.24m68.22-1.601.39 1.34-.52.24-1.59-1.38m-47.18 1.7c.11-.9.22-1.78.33-2.7l-2.98 1.38m395.03-23.853c-.87.04-1.74.08-2.78.14.42.7.65 1.1 1.18 2-1.08-.6-1.61-.9-2.14-1.2M408.17 17.73c-.03.32-.05.66-.09 1.08.78.481 1.75 1.081 2.9 1.782.04-.44.06-.76.09-1.08m17.81-1.381c-.11.4-.23.8-.35 1.22.55.06 1.03.1 1.51.16m26.42-2.601c.03.32.07.64.14 1.3 1.35-.36 2.47-.66 3.6-.96m8.59-2.701c-1.15 1.3-4.28 2.781-6.58 3.121-.2.04-.37.18-.79.38-.42-.68-.83-1.34-1.23-2M433.91 5.882c-1.79-2.282-4.24-.16-6.4-.54 1.11.56-1.37 2.46 1.24 2.24m108.73 7.745 7.07 1.32.43-.7-4.339-3.281M7.52 68.497c.3 2.022.91 2.142 3.79.64m558.64-56.23c-.46-.26-.93-.52-1.59-.9-.27.42-.49.78-.71 1.12M216.2 37.96l-4.56 1.34M92.25 46.405c-1.92 1.14-1.69 2.481-1.27 3.842M503.82 7.604l-2.65.52.07.26-4.32-.86M95.6 43.864c-.02-1.08-.3-1.761-1.76-.64m206.42-26.355 1.59 6.103M150.62 34.018c.69.46 1.45.86 2.05 1.381.56.48.95 1.1 1.1 1.841 1 .56 1.99 1.12 2.98 1.661.27-.16.76-.44 1.24-.72M554.72 9.204c-1.72-1.52-4.07-1.4-6.04.28M36.62 55.37c.38.5.76 1.02 1.15 1.541-.19.2-.47.5-.74.8M4.97 69.519c.6-1.42 1.2-2.822 1.76-4.162.7-.1 1.37-.18 2.18-.28-.23.48-.44.9-.68 1.42.6.16 1.2.34 1.81.52l.17-2.22m183.57-33.86c1.14 1.021 2.28 2.022 3.77 3.362-1.2.52-2.08.9-3.04 1.301.04 1.661 1.64 1 2.92.84m47.84-8.164c-.96.12-1.91.24-2.32.28-2.54-.94-4.67-1.74-7.19-2.681.32-.46.82-1.18 1.31-1.881m260.15-13.608c-2.98-.3-4.58.96-4.88 4.423-.74 0-1.51.04-2.28.04M520.49 3.18l.78 2.021.92.34-1.41.52m-286.61 17.33-1.04 3.502m18.18 1.121c.01.48.03.96.04 1.36.87.14 1.45.22 2.02.301M523.65 2.441c.79-.3 1.58-.6 2.55-.98 2.91.46 6.54.58 7.52 4.041M31.5 57.152l-1.02 2.64m517.34-55.35c-1.25.56-2.46 1.18-3.75 1.68-.37.14-.94-.12-1.42-.2M366.61 9.686c-.6 2.321 2.51 2.321 3.24 3.822m161.58-4.863c-1.82.26-3.64.5-5.87.82 1.21-1.36 2.24-2.52 3.28-3.681m-176.26 7.644-4.52 4.202m-26.26-3.021c.6.14 1.2.28 2.19.52-.91 1.08-1.65 1.981-2.4 2.861M176.43 29.837c-1.35-.7-2.13-.18-2.56 1.12M338.6 19.35l-3.98 2.241M103.17 51.649l5.8-2.501-.16-.36 3.73-.5M88.57 54.31c.15.3.31.62.6 1.22-1.12.44-2.37.92-3.42 1.341-.23.7-.47 1.46-.72 2.201m219.41-36.1-8.6 1.3m230.14-12.726c-1.81 2.121-1.709 2.421 1.161 3.602m-228.051 1.12-4.87 1.201m127.66-6.904 3-1.12-.34-.74-2.96 1.16M214.62 24.933c1.4.34.8 1.441.97 2.261.14.64.58 1.201.89 1.802m114.76-4.223c-1.17 2.041-3.19 1.781-5.14 1.681M1.33 66.436l-.32-.66 1.42-.54M381.29 9.145c-1.44.1-2.88.14-4.31.3-.58.06-1.15.38-1.72.56m-33.81 7.924c.39-.26.77-.52 1.49-1-.7-.08-1.11-.14-1.52-.2m-14.53 6.523c.5.78.7 1.501-.82 1.761M37.13 54.07c-1.48 1.301-2.29 3.282-4.73 3.622M433.93 8.285c-.32-.5-.63-.98-1.09-1.7.49-.141 1.16-.341 1.83-.541l.64.42-1.08 2.061M1 70.86c1.46.18 2.93.32 4.35.56.23.04.24.56.35.86M493.18 7.345c.38 1.86 1.72 1.02 3.19.82.2-1.02.37-1.921.54-2.821m-108 12.206c.79-.5 1.58-.98 2.57-1.62 1.55.34 3.37.72 5.18 1.12m-162.74 16.71c2.08-1.021 2.27-.901 2.98 1.96.66-.22 1.31-.44 1.96-.66M475.88 2.3c-.09.4-.17.8-.33 1.54-.49-.64-.82-1.06-1.21-1.56-.53.24-1.1.5-2.18.98 1.06.6 1.83 1.04 2.59 1.481M380.87 18.79c.29.46.57.94.98 1.6-.35.581-.78 1.302-1.21 2.022M492.031 7.383c-.96.42-1.911.84-2.871 1.261-.46.2-.95.34-1.43.52m20.98-2.861c.38-.1.75-.22 1.07-.3-.07.84-.13 1.64-.2 2.441M289.62 17.73l-1.68 1.621m-14.06 12.587c-.04-.32-.08-.64-.14-1.14-.68.36-1.14.6-1.59.84M6.33 62.474c-.08.26-.31.7-.22.74.44.2.95.3 1.44.44m542.86-49.367c.61.38 2.29 0 1.44 1.441M326.08 25.734c-1.66 1.64-3.83.76-5.72 1.26m-30.52-11.946c.3 0 .59 0 1.21.02-1.49.98-2.47 1.02-3.22-.04m80.73 6.743 4.05 1.161m42.41-9.385-.26 2.181m-193.29 7.064.85.72-.71.54-.88-1.46c-1.57.88-3.11 1.761-4.66 2.642m-7.78.1c.42.9.83 1.8 1.35 2.941-.96.14-1.82.26-2.68.36l-.1.44 1.86.521m-13.37-3.202-1.66 2.161m-79.11 13.368c-.45.66-.9 1.32-1.5 2.22-.7.18-1.9-.88-3 .461m95.04-19.07c.67 0 1.34-.02 2.6-.04-.53 1.04-.99 1.94-1.58 3.101-1.18-.6-2.14-1.1-3.11-1.58l.28-.821-2.76.96M508.99 5.102c-1.95.62-4.05 1.02-5.66 2.842.95.18 1.45.28 1.94.36m-73.04 1.741-.18 2.621c-1.78-2.12-1.78-2.2-.11-2.62m-26.49-1.982 1.37-.96.3.36-1.06 2.961M541.2 2.101c.83.3 1.67.6 3.01 1.08-1 .84-1.57 1.321-2.15 1.801M35.39 53.93l-4.01.84M559.9 13.048l.28 2.18m1.44-2.64.57 2.881M274.3 26.134c-.24 1.44 2.47 1.961 1.25 3.702m-51.64 6.123 1.77 1.221M83.06 60.133l-4.59.58M541.49 3.521l-1.78 1.541-.7-.36c-.2.72-.39 1.44-.73 2.702 1.06-.44 1.6-.68 2.65-1.121-.91-.18-1.32-.26-1.73-.34m-32.23-2.001-2.29 1.48M142.56 48.807c-.53-.66-1.06-1.341-1.7-2.142-.88.76-2.84.901-1.18 2.142M29.16 56.69l-1.33 2.201M360.45 18.57c.49.44.98.88 1.57 1.42.61-.32 1.25-.64 1.89-.98M158.03 46.385l-4.56 1.401M62.1 56.391c1.68 1.3 2.69 2.982 3.45 4.863.43 1.06.62.98-.79 2.34m245.53-48.626c.09-.32.18-.66.33-1.241-.68.06-1.29.12-1.8.16l-.8 2.722M199.31 40.762c.65-.5 1.35-1.38 1.96-1.4 2.04-.06 4.04.26 6.07.26 1.21 0 2.48-.32 3.72-.48l1.71-.46M527.69 7.943c1.96 1.08-.76 2.461.3 3.602m-32.81-6.404c-.19.16-.38.32-.88.76 1.62.241 3 .461 4.66.701-.11 1.04-.21 1.901-.31 2.782M74.05 58.632l2.07 1.08m181.72-34.919-5.1 2.802M107 53.609c.84-.56 1.64-1.2 2.54-1.64.91-.46 1.92-.681 3.21-1.121.22.22.66.66 1.09 1.1.02 0-.16.2-.27.28-.07.04-.19.04-.28.06m56.6-12.306-1.37 1.9m55.18-12.386c-.55 1.42-1.11 2.841-1.75 4.482-.87.64-1.85.98-2.72-.04M32.83 54.95c.83.78.15 1.34-.77 1.86m533.01-45.624 1.97.58.34-.5-.87-.32m-288.7 6.623c3.07-.88 3.08 1.601 4.39 2.642l-1.09 2.281M9.06 70.359c-.14 1.22.73 1.14 1.78.84m389.78-58.973c-.64.54-1.29 1.06-2.18 1.801-.48-.24-1.3-.64-2.13-1.04m42.27-1.34c.49 1.1.98 2.2 1.61 3.581-.86-.18-1.5-.3-2.15-.44m12.65.66-1.7 1.74m-165.15-.28c-1.23-.98-1.83.121-2.57.761m57.56-.98c1.95 1.12 2.01 2.481.37 4.062m218.97-8.665-.29 2.162M38.57 65.355l5.14-1.641c-1.72-.36-3.36-1.14-5.48.68.04.7.08 1.601.1 2.062-1.04.92-1.69 1.5-2.35 2.08l1.05.741 1.06-1.901m274.64-46.626 1.23 3.242m26.48-12.967c1.75 1.18 1.54 3.001 1.82 4.662M90.63 48.867c-1.05.2-2.09.38-3.27.6-.13-.22-.38-.66-.8-1.38-.38.56-.6.88-.82 1.18M369.79 9.905c.24.28.48.56.86.98-.75 0-1.23.02-1.7.04M85.22 44.305l-.76 2.3m256.07-31.497c-.28.42-.44 1.04-.86 1.22-1.01.48-2.15.761-3.13 1.081.4 1.08.66 1.781.93 2.482M84.89 49.667c1.8 1.24 2.63 2.922 2.26 5.143m190.87-29.336c1.9-.36 3.72-.54 5.24.6.33.24 1.12.06 1.69.08m273.51-19.35c.12.54.23 1.08.4 1.86 1.12.16 2.66.36 4.2.58m-60.93 4.883.3 2.402M235.16 27.355l-1.65-.36-.12.66 1.49-.02m192.289-8.445-.649-1.04-.421.12-.079.98m-72.21-1.821c-.19.26-.37.52-.58.8-.57-.12-1.14-.24-1.71-.38M568.53 1.6 564.6 1l-.1.56 1.73.98M324.54 21.312c.38-.36.75-.72 1.41-1.34.03 1.5.45 2.861 0 4.062-.54 1.4.71 1.32 1.29 1.84m-75.84 5.024c-1.23-.46-2.46-.92-3.07-1.141-1.8.94-3.09 1.62-4.38 2.301M499.2 4.342c-.61-.6-1.21-1.2-1.97-1.941-.83.52-1.44.92-2.06 1.3M90.65 55.611l-1.46.9c.3.26.53.44 1.1.92-1.69.1-2.93.16-4.16.22m-27.05 1.982-.07-1.441c.35 1.64.17 1.76-2.49 2.181m528.1-48.807c.38.64.76 1.3 1.14 1.941.04.06 0 .16 0 .46-1.55.36-2.95 1.701-4.89.46m-132.79-1.54c-1.24.06-2.48.1-4.23.18 1.81 1.06 3.03 1.76 4.25 2.461M155.86 35.139c.5.48 1.05.94 1.48 1.46.38.461.63 1.022.94 1.542M425.56 5.823c-.52.38-1.05.76-1.68 1.2.82.9.89 2.402 2.87 1.381M175.99 33.518l1.77.94M65.58 50.629c.57-.42 1.15-.82 1.93-1.381.42.42.9.9 1.53 1.5-.88.42-1.56.761-2.24 1.081m50.01-11.726.94 1.78m156.11-21.231c1.35.32 2.7.52 4.02-.44m-207.89 38-.88 1.402-1.11-.54 1.69-1.041m145.22-24.474-1.68 1.681M484.82 3.681l.58 1.681m-118.86 15.61-1.41 2.04M348.2 10.425c.09-1.06-.42-1.24-1.45-.6m101.61 2.341c.33.84.65 1.661 1.14 2.902.58-.98.82-1.4.97-1.661 1.22.84 2.4 1.66 3.58 2.481l.53-.34.03 2.862-.69.18-1.48-1.781M581.18 6.503l-.1-1.08c-.58.14-.96.24-1.33.34m-207.4 2.761c0-.24.1-.58-.04-.7-.15-.12-.54 0-.83.02l.59.68M64.37 55.45l3.38-.22.13-.56c-.22-.08-.44-.18-.68-.24-.04 0-.18.18-.27.28m249.76-36.98c.39-1.061.79-2.142 1.26-3.423-.94-.02-1.72-.04-2.5-.06M125.69 45.365l2.99.22.5.64-1.4.72m91.83-19.33-2.55 1.32.45-3.922m20.44-.64c-.13 1.3 2.84.88 1.81 2.662m-38.91 8.224c1.65.74 3.29 1.561 5.17-.24.05-.04.03-.18 0-.24-.07-.08-.19-.14-.29-.2M90.8 52.689c2.64-1.321 4.93-.72 7.21-.1M521.37 9.665c-2.07 1.4.72 1.56.87 2.401M60.6 49.206l3.58 2.422m-28.9 11.487-.19 1.98m171.05-35.139c.96 1.26-.14 1.941-1.09 2.441-.07.78-.14 1.421-.2 2.062M309.3 21.55l3.75.36M208.33 35.2l-.14 4.102m227.24-26.534c.16 1.12-.63 1.34-1.71 1.28M138.59 43.444l-2.32-.34m32.01.02 1.42.3-.54.48c1.53-.76 3.06-1.521 4.73-2.362-.75-.18-1.33-.34-2.34-.58.31 1.32.56 2.381.81 3.462m8.58-9.725 1.26 2.921m-29.26 4.003-1.09 1.6m-18.2-.64c-.27-.58-.54-1.18-.87-1.9-.89 1.06-1.44 1.72-1.99 2.38m216-31.097c-.53-.32-1.07-.66-1.78-1.08-.49.7-.86 1.22-1.24 1.78q1.79.28 4.19-.9c.41.3.89.66 1.46 1.08-.87.44-1.44.72-2.01 1.001m-107.27 6.644 1.47 1.02m-94.3 16.39c-.28.12-.57.26-.95.42 1.07 1.24 2.48.6 3.86.1m229.07-28.176c-1.72.06-3.44.14-5.46.22 0 .16 0 .26.01.62m-97.51 5.203c.4.68.81 1.361 1.26 2.102-.41.16-.81.32-1.34.54.3.26.52.46.75.66M545.81 8.064l-1.73.5.32.2-2.61 2.682m-191.52 1.7c1.54.861 3.07 1.702 5.01 2.782-.16.72-.37 1.681-.58 2.622m-17.44-8.225c-.56.52-1.13 1.06-1.8 1.681 1.14.22 2.22.4 3.29.6M124.13 42.504c-.71-.52-1.41-1.04-2.38-1.74-1.06.34-2.66.88-4.27 1.4m23.96.32c.18-.36.36-.7.48-.92.9.06 1.78.1 2.67.16m438.32-35.68v3.122c-2.2 0-4.12-.04-6.04-.04M42.31 59.313l-1.23-1.441M438.95 18.83l2.29-.12m-48.53 2.901h-2.36c.17-.94.31-1.74.5-2.801-.91.24-1.84.46-2.69.68l-.39-1.16m-34.69 5.643 2.01.08M113.4 54.65l-2.31.14m289.37-33.919c.25-.34.38-.5.45-.6 2.19.08 4.03.14 5.87.2M236 26.534l.1 3.202c.9-.36 1.43-.58 2.24-.92.36.68.74 1.36 1.33 2.46-1.37.561-2.57 1.041-3.76 1.522m19.04 1.26-2.3.28M357.6 19.77c-.76.54-1.62 1.021-2.22 1.661-.28.3-.03.92-.02 1.401m141.61-5.943.96-.3-.11-.26-3.14.6m-74.82-6.984-2.29.6m-85.02 8.585c-1.92-.54-2.7-2.041-3.81-3.242M305.4 27.215l2.04 1M485.48 16.89c-.88-.28-1.75-.54-2.88-.9-.22.26-.54.62-1.07 1.24.69-.02 1.17-.04 1.65-.06M62.61 60.873c-.66.6-1.33 1.181-2.17 1.941-.4-.4-.83-.82-1.27-1.26l-2.33-.52m260.33-35.18c-.06.52-2.28.16-.83 1.28m-82.98 7.185c.62.46 1.23.94 1.91 1.44.35-.1.82-.24 1.29-.4M117.4 53.99l-1.2-1.26m203.65-35.3c-1.14.22-2.28.44-3.51.68-.21.38-.49.88-.76 1.401M185.51 41.462l-1.12.88.59.401m144.24-31.237c.31.1.62.2.84.28-.31.36-.57.64-.82.92m57.59 1.121c-.77-.28-1.66-.42-2.29-.84-1.26-.82-2.47-.68-3.76.02m66.37-6.804c-.39-2.602-.58-2.742-3.8-1.661 1.06.2 1.85.36 2.64.5M16.61 70.94c-.5-.36-1-.72-1.49-1.08-1.01.98-1.74 1.7-2.48 2.4m242.17-42.763c-1.9 1.38-3.79 2.761-6.22 4.522.22-1.62.36-2.601.49-3.562m-10.88 2.061c.67.24 1.34.48 2.01.74.78-.44 1.54-.84 2.29-1.26M551.56 1.78c-.52.62-1.04 1.241-1.72 2.042l-1.45.4m-365.55 35.24-.79 2.04m-13.67 4.263c-.38-.52-.75-1.04-1.18-1.621.43-.72.93-1.54 1.72-2.862.63.82 1 1.301 1.38 1.781m210.14-32.898c-.08.96-.15 1.941-.24 2.902-.06.56-.17 1.14-.25 1.7m-161.33 9.146.93 1.78m309-20.63c-2.22-.441-2.08 1.48-3.16 2.18m-383.73 33.52-2.27 1.1m34.64-6.844c.42-.6.85-1.18 1.42-1.981.87.16 2.01.36 3.14.56m178.15-13.287-1.07-.5-.41.32.63.74m-53.45 2.762c-.09.96-.18 1.94-.3 3.142.54 0 1.32.04 2.1.06m-58.53-3.182-.8 2.02M56.45 58.954c-.14.76-.27 1.5-.48 2.64q-2.355.09-4.56.18c-.14-.76-.25-1.38-.34-1.86-.87-.14-1.63-.26-2.39-.38m484.49-47.067-1.6-.98c-.37.62-.76 1.26-1.11 1.82.97 1.101 1.56.561 2.13-.12m-53.18-.94c.48-.1 1.06-.38 1.41-.26.93.34 1.75.86 2.62 1.32M54.45 53.55c.29-1 .58-2.02.9-3.142-1.46-.22-2.66-.38-3.01 1.401m138.9-19.31c-.74-1.381-2.33-1.021-3.78-.921m33.46.92-1.4 1.161m-83.56 1.801 2.01-.1M565.94 6.863c-2.17-.26-2.09.94-2.03 2.141 0 .08-.16.2-.28.22-.18.04-.38 0-.57 0M169.52 30.177c-.79.54-1.59 1.081-2.36 1.621.62 1.14 1.15 2.101 1.67 3.062m17.14-4.523c-.32-.76-.59-1.54-.99-2.261-.06-.1-.72.08-1.1.14m52.8 1.601c.1.22.21.46.39.84-.27.2-.6.42-.92.66M161.62 35c1.05-.32 2.09-.64 3.41-1.04-.08.64-.14 1.2-.21 1.76m131.37-20.391c-.43-.4-.86-.8-1.59-1.46-.41 1.82-.73 3.241-1.07 4.762.34.08.85.22 1.68.44-.65.48-1.07.8-1.56 1.16.62.24 1.22.481 1.81.721m18.71-.1c-.17.26-.34.52-.88 1.38 1.32-.26 2.27-.4 3.19-.64 1.06-.28 2.1-.66 3.15-1m39.42.02-1.96 2.561M114.05 49.727c.89.6 1.81 1.16 3.2.66m-37.44 7.925c.77.02 1.54.04 2.89.08-.04-.84-.07-1.56-.11-2.261M532.85 1.18l-2.01.98m8.34-1.02-1.43 2.422m11.22 7.604-2.3.74m26.73.78-.35-1.4.47.04 3.04 4.983m-202.72-4.763c.14.54.28 1.1.58 2.221-1.19-.84-1.89-1.36-2.8-2.001-.32.4-.62.8-.92 1.18m-.72 7.525-.26 1.7m-107.97 8.446.05 1.68M122.01 46.945l.93 1.541m241.69-36.98-.54 1.5m60.4-1.14c-.84-.08-1.68-.14-2.94-.26l.94 1.801m-6.99-6.364 1.359-.36.321.66-1.951.921-1.709.8m-104.13 16.33-.83 1.28m-48.82 3.922c-.78 1.101.07.961.89.861m-56.01 4.723.68 3.041M70.61 59.292c.2.6.39 1.221.5 1.541.86-.06 1.51-.1 2.17-.14M314.36 16.51l-3.01-.9.39-.541c.69.86.53.92.98 2.301.3.92 1.13 1.661 1.73 2.502m103.7-8.885-2.26-.42-.39.46.65 1.02m13.22-.42-.62 1.1-.37-.04c0-.42-.011-.82-.021-1.3-2.51.48-1.039 1.16-.229 1.96-.59.22-1.1.421-1.61.621m154.07-2.661-3.45 3.322m-204.73-2.742c.78-.34 1.56-.66 2.35-1 1.09.76 2.3 1.62 3.54 2.5-.18 1.081-.4 2.382-.63 3.683m88.48-9.145 2.04 3.041M128.28 38.181l-1.66 1.72M542.07 9.766l-2.31 3.282-.56-.12v-1.221M87.85 57.572c.28-2.302-1.93-2.542-3.77-3.322.3-.46.63-.96.96-1.461M38.01 65.716c-1.32.64-2.65 1.3-4.23 2.061-.36-.18-.89-.46-1.37-.7-1.42.74-1.22 1.4-.58 2.08m276.29-48.466 2.38 3.142m-85.48 1.88c1.7-1.54-1.389-.46-.349-1.72.36-.24 1.269-.88 2.549-1.761l.07 2.241M386.74 8.064c.49.36.9.84 1.48 1.08.59.24 1.33.26 2 .38m-23.58 1.582-1.55.46c.28-.88.51-1.621.75-2.382 1.15.3 2.11.54 3.08.78m-102.37 17.25c-.33-.32-.67-.64-.99-.96-.56.42-.93.7-1.31.98l.13.52 3.6-.92M77.43 50.788l-1.1 1.16m91.6-17.93c-.36.2-.56.32-.66.38-.44.901-.71 1.481-.98 2.042m-56.34 5.303c-.9 1.3-2.06 1.62-3.42 1.1m119.74-14.148.37 2.602m159.38-14.288-.02-1.2.84.02-1.05 4.802m-92.08-.7c-.59-.42-1.17-.84-1.79-1.281-1.03 1.12-.55 1.921.38 2.641m-42.45 5.944c-.18-.22-.36-.46-.55-.7.23-.16.52-.36.99-.661.2.6.39 1.14.62 1.84.88 0 2.33-.26 1.88 1.342m8.52-3.922-5.8-1.481m91.06-8.545c-.48.2-.95.4-1.32.54-.31 1.28-.6 2.502-.9 3.702M567.09 5.182c-2.06.98-.16 2.242-.29 3.362M237.62 22.972c-.66-.2-1.32-.38-2.04-.6-.01-.36-.03-.84-.04-1.32m41.29 2.88c-.07-.24-.14-.48-.21-.7-1.41.28-2.74.56-4.63.94.32-.92.54-1.56.75-2.18m-7.45 1.5 1.75.78m-17.23 1.762c-.27-.16-.54-.3-.98-.54-.29.4-.51.7-.73 1M73.57 48.587c-.45.64-.91 1.3-1.49 2.12-.36-.52-.67-.98-.98-1.44l-.39.12c.02.4-.08 1.12.08 1.14 1.47.16 1.49 1.161 1.53 2.162m217.4-31.117 1.53 3.441m-166.53 17.87-2.78 2.382M527.68 1.94c-.15 1.601-1.18 1.281-2.45.42l-.55.441.71 2.541m-63.23 6.564c-1.48.14-1.66 3.182-4.17.98l-.38.52.56 1.522m-102.18-3.922c-.43.3-.85.6-1.25.9.54 1.12 1 2.041 1.61 3.282.78-1.06 1.38-1.881 1.97-2.682m25.7 5.363 1.73.36m98.84-4.922-.85 1.44m18.08-4.942 2.03 2.601m-45.74-3.001c.38.24.75.48 1.14.72-1.01.98-3.66.8-3.12 2.942m63.52-1.701c-1.61 1.5-1.61 1.78 0 2.161m-245 4.382-.81-.46-.53.4 1.67 1.701m-26.77.9c.59.621 2.33-.22 2.34 1.161m-93.95 17.75-1.69.98m19.18-3.641 2.04.64m-37.88 4.723c.76.28 1.52.58 2.6 1q-.66.72-1.35 1.441m108.03-17.71-1.68 1.421m176.29-20.07c-.38 0-.77.04-1.4.08.93.62-2.19 1.8.57 2.14M218.25 30.216c2.21-.98 2.83.7 4.08 1.381M564.5 7.564l1.72 1.22M377.77 22.112l1.73.36M184.13 43.124l-2.01.3m-33.22-9.145c-1.55 1.24.6.64.62 1.1m325.02-21.512 2.01-.08m-125.8 8.685c.01.62.02 1.24.05 2.261-1.58-.9-4.06.7-4.35-1.68M24.96 59.272l2.05.52m119.37-16.45c-1.27 2.842-1.06 3.122 1.83 2.602m54.72-17.23-1.75-.48m22.39-2.821c-1.38-1.141-2.65.5-4.02.58-1.12.06-2.28.58-3.42.9m274.21-13.707-.84 2.881m-120.22-2.04-1.38.56.56.74c.65-.7 1.31-1.4 2.28-2.461.72.84 1.37 1.6 2.02 2.341m84.46-8.885c.8.2 1.61.42 2.42.62-.26 1.141-.46 2.042-.66 2.922m100.06-3.302c.96.4 1.92.8 2.88 1.22.04 0 .21-.14.27-.22.04-.06 0-.16 0-.24M363.72 8.705c-.47.36-.95.72-.99.74-.19.841-.3 1.301-.41 1.762M47.35 56.15c.54.42 1.08.84 2.23 1.72l.67-1.56m17.65 6.663c.14-.62.29-1.22.46-1.98.89.52 1.5.88 2.1 1.24m210.77-35.18c-3.49-.2-4.52-.14-5.75.38m135.25-12.226c-.99-.14-1.82-.36-.39-1.6l2.45 4.862m3.12-2.802c-.74.44-1.47.86-2.55 1.501 1.72.28 2.89.48 4.15.68-.17.48-.29.8-.4 1.121m-107.12 7.324c-.7.42-1.39.84-2.29 1.36-.1-.1-.34-.36-.57-.62M525.7 14.929c-.46.5-.92 1-1.06 1.14-1.26.14-2.11.22-2.96.32M40.86 64.915l.37 1.601m214.79-44.865c-.53.78-1.06 1.561-1.65 2.422-1.87-.7-3.2-1.3-2.53-3.262-.63-.3-1.42-.66-2.21-1.02m-121.7 23.993-2.01.1m11.13-2.822c-.97 1.421-.72 3.242-2.71 4.303l.6.62m-16.46 6.124.07 1.68m92.98-17.83c-.51 1.021-.57 1.041-2.03.5.49-.3.96-.6 1.44-.9M443.1 4.682l-2.01.36m76.86 11.627c-.65-.58.22-2.161-1.73-1.881m-96.71-9.626.88 1.161M88.07 49.807l.94 1.521m343-35.28-1.51.56-.28-.44 1.5-.34M85.24 51.048l.63 1.1M573.13 7.644c-.29.4-.59.78-.98 1.3 2.64.72 3.49 2.742 4.71 4.483m-410.4 27.335c-.36.62-.68 1.24-1.1 1.841-.17.24-.54.42-.82.62m82.62-19.27c.34.82-.62 2 .65 2.561m38.2-3.822c-.25 1.3-.52 2.622-.76 3.922-.21 1.18.4 1.841 1.77 1.961m-77.95 2.662c.99.68 2.25 1.28.96 2.761M504.7 10.225l-1.14 1.24M386.9 17.67l3.16.28M555.87 5.844l.41 1.34-.61.14-.37-1.24M112.57 49.007l1.02-1.361.74.22-1.13 2.241m-36.02 1.441.53-1.06.72-.12-.07 1.7m195.87-28.335c-.1-.3-.22-.9-.31-.88-1.31.16-2.97-.24-3.41 1.54M27.37 55.61l-1.69.84m-.11 8.966c-.29 1.82 1.76 1.6 2.72 2.321M525.97 8.184c-.26-.18-.53-.36-.81-.56q-.65 1.08.53 1.52M26.1 59.013c.39.16 1.14.26 1.13.48-.1 1.721-.34 3.462-.54 5.183M204.11 37.94l-.24 1.481M3.96 61.534q-.35.76 1.49.9m229.02-29.456-2.12-.26-.23.58.96 1.06-2.54 1.742m-40.46-3.683c-.19.18-.4.54-.55.54-3.57-.1-4.67 2.062-5.63 4.403-.13.3-.54.56-.81.86m-74.84 10.807c-.39-.1-.78-.18-1.23-.3-.05.52-.1 1.02-.16 1.5M495.45 2.261c-.78-.52-1.54-.92-2.01.28M18.38 66.216l-1.55 3.462m562.03-55.991c-.09 1.34.76.74 1.44.5m-488.79 35 .65 1.56m-39.25.941c.2.68.4 1.381.61 2.101 1.1-.86 1.43 1.721 2.67-.1m350.76-41.163c.04.32.07.64.05.48 1.5-.08 2.74-.14 3.98-.22M26.54 67.378l-.74 2.581m103.24-27.315-.75 2.762m98.23-17.95c-1.08-1.121-2.36-.92-3.75 0m214.9-19.851-1.73-.16m130.28 4.462c.54 1.961 2.98 1.32 4.31 2.201M257.97 29.116c.55-.16 1.09-.32 2.08-.6l-.8 1.88c1.12-.04 2.07-.08 3.03-.1l.07-.48c.38.36.76.74 1.01.98 1.5.14 2.83.28 4.17.4m-54.97 1.241c.26-.44.53-.88.71-1.18.67.04 1.26.08 1.85.12M37.52 61.714l.64 1.32m16.13-6.803c-.06.24-.13.46-.32 1.16.68-.62.94-.86 1.19-1.1M539.2 13.147c-.19.48-.23 1.08-.61 1.42-.64.581-1.5 1.001-2.26 1.482m-465.42 37.4c-.5-.04-.99-.06-1.84-.12.65-.56 1.07-.9 1.21-1.02.78.14 1.41.26 2.03.38M238.14 21.21c1 1 2 1.981 3.1 3.082 2.34-1.46 4.9-2.121 7.61-1.5M177 29.515l-.79 2.041m223-17.33c.77-.12 1.54-.36 2.29-.36.96 0 2.34-.7 2.6.76M95.23 48.508c1.93.26 2.85 1.52 3.87 2.66M307.52 19.55c-1.04.8-2.08 1.601-3.09 2.382.62 1.16 1.06 2 1.49 2.821m214-19.89-3.16 1.28m-70.77-.14c-.05 2.761.6 3.282 3.19 2.521M142.76 39.382l2.87-.24M83.39 54.77l-.5 1.54m419.23-44.824-1.44.52.3 1.42m-56.92.101-4.02.2M268.05 29.216c.28-.12.56-.24.86-.32.07 0 .19.12.29.2l-.85.34m-92.52 15.188c0-.24-.02-.48-.03-.92-1.73.58-3.43 1.14-5.12 1.72m247.51-31.317.88 1.401m-51.16 2.001 2.88.24M518.5 9.705c.73-.32 1.45-.64 1.99-.86 1.72.4 1.79 2.801 4.05 1.76M231.25 31.217c-.4.5-.81.98-1.48 1.8-.38-.72-.6-1.12-.81-1.52m-31.22-2.541c-.75.2-1.9 1.74-2.03-.2m-7.37 11.366c.36-.96.72-1.921 1.11-2.982.91.7 1.6 1.24 2.3 1.781M450.3 4.882c.04.48.08.96.16 1.961-.81-.94-1.28-1.5-1.76-2.04-.21.1-.6.26-.99.42M137.62 40.721c.66-.26 1.33-.52 2.11-.84-.49-.32-.93-.62-1.7-1.141.06.54.09.86.13 1.16M320.12 16.69c.88.72 1.8 1.4 2.62 2.16.49.461.81 1.041 1.2 1.562-.26.1-.52.18-1.05.36.27-.44.37-.62.47-.78M15.54 72.6l-1.71.36m462.16-57.232.01 1.921m-205.39.22 2.61.68M447.73 7.145l3.161 1.84.359-.84-1.5-.12m53.49-1.841c-1.91.58-2.76-.3-3.34-1.661-1.55.22-3.11.44-4.71.66l-.89-2.901M112.22 40.882l-.85.38-.02.4 1.19-.12m250.25-20.751-1.09 2.982m212.29-19.01c0 .56.24 1.24-.05 1.66-.76 1.1-.78 1.961.62 2.662m-92.31-1.741c.39.22.77.46 1.32.78-.43.4-.84.78-1.24 1.16-.53-.28-1-.52-1.71-.88-.03.66-.05 1.14-.07 1.641m-53.75 2.682c-.43-.24-.87-.5-1.71-.981-.11 1.6-.22 3.142-.33 4.743 1.04-.24 1.99-.48 2.95-.7m128.45-4.903c.48 0 .96.02 1.44 0 .39-.02.77-.14 1.15-.22m14.1-7.585c1.66.9.52 1.761 0 2.642M82.38 51.568l.42 2.822m7.41-8.345c-.23-.24-.46-.48-.83-.84-.44 1.16-.77 2.02-1.1 2.881m15.98-4.362 1.74.18m75.23-1.08-2.01.08m-41.79 7.243-1.78-1.14m-55.78 4.462c-.76.14-1.53.28-2.58.46l.07 1.441m152.63-27.615c-2.02-1.861-3.67.22-5.45.92m-81.05 7.445.34 1.38m-26.16 9.205c-.11-.22-.21-.44-.34-.7l-3.08 1.761m86.54-14.188-.52 1.761m-91.58 17.23c.7.98 1.55 1.96-.74 2.781M385.9 9.565c1.34 2.701-1.85.72-2.28 1.58M281.81 16.41c-.29-.2-.59-.42-.97-.68-.75 1.2-.56 3.04-3 3.04m-.52 2.222.04 1.44-.59-.66M426.15 6.743c0-.56-.01-1.12-.03-2.181-1.15.38-1.87.62-2.58.86m163.09 7.124c.68.14 1.36.28 2.32.46.27-.34.66-.8 1.05-1.28l-.64-.5-1.59 1.32M212.44 37.28c.56-.18 1.12-.36 1.91-.6.16.62.3 1.18.44 1.74M97.8 54.31c-.25.96-2.78 1.64-.73 3.041-.03-.72-.05-1.2-.08-1.68m239.42-31.338c.3.12 4.07.42 4.61.36.94-1.82 1.27.54 2.02.06.18-.24.36-.5.55-.76m-20.86-6.344c.96.24 1.92.48 3.57.9-.22-1.42-.39-2.52-.64-4.082 1.1.38 2.05.7 3.01 1.021l-.28.56-1.68-.24.56-.78m-171.24 17.21 1.46.26m312.46-17.75c1.77 1.66 2.14 1.7 3.16.36M219.88 35.999l-1.11 1.121m169.02-17.35c.13.4.26.8.44 1.361l-.93.7c-.14-.34-.25-.56-.35-.8m-262.09 18.21.36 1.861m268.69-34.7.87.421-.86.54m-29.95 14.789-3.45.02m106.56-6.124c-.96-.36-2.11-1.2-2.83-.96-.72.22-1 1.5-1.47 2.321M102.18 55.45l-4.83 1.601m227.3-43.684.32 1.18m-44.54 14.769c1.24 1.56 3.42.88 5.21 1.12m65.75-19.07 3.18.7m19.46 10.046 2.02.1M140.7 38.52c-.47.16-.95.34-2.03.72.3-1.2.54-2.18.78-3.141M108.5 54.77l-1.42.5M243.6 20.55l2.59-.08m-144.9 34.42 4.09 1.18M381.54 6.964l-2.27 2.081M196.62 38.021c.69.46 1.37.94 2.18 1.48-.74.5-1.47.98-2.2 1.461l.17.52 5.4-1.36m58.99-20.271 4.63 1.42.37-.54.89 1.6c.32-.18.7-.38 1.08-.58M38.67 55.932l2.36.98M501.78 1.64c1.58.34 3.46.36 3.46 2.32M76.44 48.067c.49.24 1.03.74 1.47.62.6-.16 1.13-.78 1.68-1.2M414.06 6.383l2.64 3.962M39.12 53.43c.59.46 1.18.9 1.86 1.441l2.47-1.56M511.58 5.281c.77-.1 1.54-.16 2.3-.3 1.16-.26 2.3-.52 3.45-.78m-63.55 3.682c1.35.52 2.69 1.02 3.94 1.5.18-1.18.36-2.38.61-3.982-.82.54-1.43.92-2.27 1.461 1.22.4 2.2.74 3.18 1.06m115.9.221c.16-.4.32-.82.73-1.841.93 1.02 1.54 1.68 2.15 2.341M23.96 56.811l-1.09 1.2m-7.95 2.901 1.16-.019M261.4 18.39l-1.1 1.8m-58.51 9.166-.32 1.28h-.86l.54-3.361M136.34 37.8c-.17.7-.35 1.38-.58 2.32-.94-.36-1.59-.62-2.24-.88M473.63 8.864c-1.2 1.001-1.44 2.142-.84 3.402m64.4.42c.13-.88.26-1.76.41-2.801-.76-.46-1.53-.94-2.29-1.4V7.082c-1.57.48-2.71.82-3.3 1.001v2.742m-217.44 2.3-1.71.881m-52.1 12.147c.43-.54.87-1.1 1.29-1.62 1.07.08 2.03.14 2.99.2m60.24-9.246c-.21.24-.43.48-.78.88.44.22.77.38 1.1.54m-19.63-1.78L304 17.009M459.77 2.861c.19.24.45.44.57.7.42.861.79 1.721 1.19 2.602M16.85 64.595l1.22 1.201m262.16-43.925c.76-.18 1.53-.34 1.98-.44.67.64 1.24 1.18 1.8 1.721m224.11-19.23c1.41-2.102 1.78-2.202 3.16-.78m6.9-.401c.19-.32.38-.64.49-.84l3.54 1.5M2.57 67.857l.06 1.2M575.42 8.145l.541 1.54-.94.141.12-1.44M31.18 62.053c-.2-.2-.48-.6-.6-.56-.93.38-1.82.86-2.83 1.34 0 .18.03.66.06 1.141m95.89-18.03-3.47-.14M59.2 50.207l1.01.38-.27.48-1.29-.28m106.61-18.77-3.73.58M319.88 18.63l-2.54 2.161M105.6 47.826c-.28.14-.56.26-.92.44l1.32 2.142m184.04-27.676-2.6-.2m17.07-8.225-4.84 2.142m201-6.124c-1.44-1.32-1.85-1.26-3.19.3-.3.36-.93.52-1.41.76M96.82 51.589l.54-1.06-2.63-.48m9.47-1.241-1.8 1.9c.55.861 1.13 1.782 1.71 2.702m273.54-38.021-1.44-.14m61.22-3.542c-.07.86.73 2.101-1.41 2.001m13.77-2.561-1.72.54m-43.48-3.322.6 1.881M293.24 24.073c-1.18-1.52-2.93-.88-4.62-.46m166-17.69c-.83.34-1.66.66-2.93 1.16.69.54.98.78 1.8 1.421-.01-1.02-.01-1.42-.02-1.84m-262.7 28.795.33 1.14M513.59 4.523l-2.02-1.16c-.86.44-1.72.88-2.69 1.38 1.9 1.681 2.27.2 2.98-.42m58.39 4.502-1.78.18-.01.58 2.07.201M307.84 20.971l-1.67 2.081m42.48-4.742-.53 2.2M137.78 44.785l-1.43.24M550.98 5.143q1.12 1.16-.78 2.842c.09-1.18.15-1.881.21-2.601M144.94 36.36l.93 1.54m81.61-7.424-2.54 1.521M456.91 3.922c.29-.1.57-.18 1.3-.42-.17.74-.3 1.28-.42 1.82m8.9-1.74 1.74 1.38m68.76 5.323-2.3 1.701M32.14 64.015c-.38.6-.76 1.2-1.05 1.64-1.31.401-.78-2.46-2.64-.38M92.81 52.33l.17 1.42c-.67.12-1.25.22-1.82.34m399.17-43.303-3.73 1.02M47.33 61.474l.63 1.08m42.5-11.006.46 3.782m96.99-19.01c-.28-.3-.55-.58-.95-1.02-.28.84-.5 1.52-.71 2.16.95.04 1.91.08 2.87.14m49.31-7.044.04 1.201M500.36 4.802l3.74-.32m-198.2 19.31 3.14-.78m221.81-18.69c.53 1.12.49 2.121-.83 2.922-.12.08.16.6.26.92m3.44-3.862 1.73.7m-81.99 0-2.01-.16m19.05 7.725-3.16.36m4.6-.16c1.89-1.221.7.9 1.44.9m-452.1 52.65c-.18.28-.36.56-.66 1.04 1.43.08 2.8.14 4.18.22 1.06-.66 2.08-1.3 3.09-1.941m33.13-13.628-2.54 1.221m236.71-31.778c-.55.94-1.01 1.921-1.69 2.802-.37.48-1.1.78-1.66 1.16m136.71-10.865.87 1.16m-325.1 35.96 2.39 1.741m76.4-14.468c-.58.08-1.15.18-1.92.3.25-.72.4-1.14.71-2.02.57.7.89 1.1 1.2 1.48m369.32-26.595c-.96-.08-1.91-.16-2.89-.24-.29.42-.57.82-.85 1.24m-423.99 35.8c-1.04.32-2.34-1.1-3.14.761m370.8-37.26-3.73 1.04m12.31-9.625c1.03-.921 1.71-.8 2.02.44m48.04 8.084c-.16 1.461-1.18 2.222-2.87 2.422M399.43 9.645c-.19-.14-.39-.3-.69-.52-.16.22-.31.4-.46.6m42.51-5.643c.9 1.22-.63 2.941.91 4.042M228.44 33.478l.34 1.64m136.94-11.666c-.54-.74-1.09-1.46-1.93-2.601 1.58-.2 2.74-.34 3.9-.48l-.23-.68-1.8.64m77.85-4.122c-.81-.12-1.61-.26-2.48-.38.94-1.141 1.48-.921 1.9-.06m111.5-4.403c-.73.32-1.46.62-2.36 1 .95 1.041 1.66 1.821 2.37 2.602.04.04.2.04.28 0 .11-.06.2-.16.29-.24m-239.07 7.644c-.65 1.02.6 2.782-1.94 3.062M183.4 38.88c1.63.68 3.93.14 5.22 1.441.22.22.23.6.34.9m379.86-36.98c.12.4.25.78.38 1.2h-1.53M457.02 15.688l2.87-.82m-15.591-6.144-4.029-.04m104.68 2.982 4.02 2.381m-242.44.08c.02 1.061-.13 2.202 1.5 2.502m-4.68 9.085 3.15-.78M73.07 50.126l2.06.84m102.29-9.965c-.51 1.501-1.52.42-2.29.58-.38.08-.77-.02-1.15-.04m44.13-6.983c-.51 1.22-3.04 2.401-.39 3.902-.72.1-1.1.16-1.49.2M422.4 6.203c.68.4-.14 1.8 1.46 1.6m-92.65 15.53 2.88.22M457.5 5.343l-1.45-.18m10.93-.881-.85 1.24M90.94 55.79l.43 1.181.61-.32-.76-1.14m43.25-7.045-2.24 1.581m190.06-26.595c-.28.26-.56.54-1.13 1.061 1.25.22 2.36.44 3.47.64M154.26 45.745l-2.43.84-.36.76 1.42.3M86.16 58.353l2.63.74m66.17-24.773.89-1.782-.47-.3-1.3 1.741m56.77-9.725-3.42 1.2m-91.19 21.492.9.82M579.46 2.642c-1.05-.12-2.09-.24-3.34-.38.14-.26.3-.54.55-1-.46-.04-.85-.06-1.24-.1M119.48 48.566l-2.85.72m-16.51-7.704-.53 1.06M95.71 52.77l.13 2.861m77.68-18.85c-.28.28-.54.58-.84.84-.55.48-1.11.98-1.67 1.461m244.27-27.235-.85.78m95.47 2.782 1.44.68m-151.87-3.682c2.21 1.601-.61 1.24-1.12 1.781m181.42-4.882-.86-.72M43.04 62.314l.33.9m246.82-34.72c.99 1.361 1.95 1.341 2.87-.32M482.83 7.564l-1.46-2.342m7.48-.18.87.7m-146.41 4.823c-.38-.14-.76-.28-1.1-.4-.22.36-.42.7-.62 1.02M227.31 34.1l-.26 1M544.08 4.242l.58.94M543.5 1.36v.96M79.49 45.346l.36 1.62m11.12-3.221c-.71.44-1.41.9-2.34 1.48-.02 0-.26-.24-.5-.48m105.45-2.941-2.3.08M433.49 19.35l-1.15-.42M54.17 65.436l1.14-.24.01-.24-1.45.28m461.18-55.231-2.01.78m-25.07-8.364 2.31.44m-3.94 14.008 1.15.22m-142.97-3.742-.56 1.02m72.54 2.222.01.96m-27.65-3.122-.93-1.74c-1.18.64-.16 2.42-2.22 2.18M35.18 61.214l1.13-.24.06.72-1.73.36m199.5-39.861c.39.04.77.06 1.28.1-.25.28-.46.54-.68.78M130.1 40.282l-2.29.64M41.5 60.432c-.68.221-1.36.421-2.03.641.18.84.3 1.461.43 2.081m233.59-34.779c-.2.34-.39.68-.68 1.16.35.161.68.321 1.02.481M396.26 9.625l-.56.74m22.99-2.04.58.92m30.47-2.422-.28.98m-2.57 1.522c-.45.58-.9 1.18-1.65 2.18.85.08 1.55.141 2.25.201M28.48 65.756l2.92.6M142.05 36.12l-.84.68c.04 1.06.08 1.941.11 2.802M262.34 20.93l-2.22 2.882m-69.33 4.182c.36.82-1.27 2.741 1.52 2.201m367.59-19.07.57.98M359.7 9.505l-.29.52-.57-.22M202.85 34.739c1.04-.18 2.29-.64 2.05.92M571.12 3.061c-.19.56-.39 1.12-.59 1.701 1.05.56 2.11 1.12 3.17 1.681M25.58 60.093l-.23 1.02m16.8-4.902-2.53 1.46m439.51-44.924-1.14 1 .58.94M103.09 43.465l-.9-.8-1.43.26m134.77-12.968-.84.82m-17.33-1.4-.25 1m-42.66.48.94 2.022m35.28-5.463-1.91 3.382m190.17-16.07-2.28 1.361m-94.13-.86-1.15.1m81.05-6.984-1.15.08-.14.3 1.3.34c.55-1.3 1.54-1.04 2.58-.64m30.23.54c-.78.4-2.14.1-2.28 1.321m123.37 1.2 4.02.461m-145.13 4.943c-.39.26-.78.5-1.42.94.73.1 1.23.18 1.73.24M156.79 36.7c-.18.341-.36.701-.51.981.49.2.96.38 1.43.56m86.56-14.407-.81 1.78m156.34-9.985-.56 1M580.61 2.662l.86 1.44.87-.46M55.24 51.949h1.16m58.14-10.986-1.43.48m78-12.546 2.3-.3m45.63-6.284c-.6.42-1.2.86-1.62 1.16-.33 1.301 2.6-.3 1.42 1.521m13.42-4.082 1.45.32m13.49-1.54-1.15-.12m233.19-8.986.31.46c-.21.1-.41.18-.6.26m9.77-1.16c.86.3 1.72.62 2.98 1.06-.16-.76-.28-1.3-.4-1.84M109.73 49.967c.29.04.58.06 1.09.12-.5.42-.91.78-1.32 1.12m-27.2-1.3.62.84m397.3-46.445-2.02.3M15.91 68.658l-.82.9m43.6-18.05-2.84 1.04M363.31 17.87c.28.3.56.62 1.05 1.14.28-.64.47-1.08.66-1.52M52.85 62.074l.38 1.841m511.84-50.808-1.15-.5M312.99 19.53c-.19.34-.37.68-.61 1.1-.28-.16-.55-.32-.82-.48m71.52-7.283c-.32.56-.65 1.12-1.02 1.76-.67.1-1.53.24-2.4.38M189.02 34.98l-1.14.38M513.32 8.604l-1.15-.44M367.08 19.49c.08-1.04.18-2.1.18-3.141 0-.08-.72-.1-1.1-.16m88.55-1.621-1.15.52m60.33-7.444 1.15.44m-251.43 16.79.04 1.68m221.21-16.389-4.23.72-.14-.4 1.2-.96m53.47-6.444c.3.74.6 1.501.86 2.161.39 0 .52.02.57 0 .05-.04-.03-.18.02-.22.17-.18.38-.32.57-.48M217.55 35.12c-.29-.2-.59-.4-1.09-.74.26-.28.53-.58.72-.78.91.26 1.49.42 2.07.58m213.91-18.891 1.16.9M33.26 63.295l-.32-.66c-.18.2-.55.48-.51.58.11.32.38.58.59.84m236.94-38.662-1.95 2.382m-245.37 36.8c1 1.281.14 2.562-.96 3.822m381.9-50.127-1.14.32m49.98-2.982L451 17.35M10.63 67.117l.97 1.98.66-.28-.74-1.16m2.58-.54.9.78m27.9-2.661.38 1.86c-.56.36-1.12.701-2 1.261.11-.6.19-1 .26-1.4M315.88 20.21l-1.4.44-.09-.54 1.78-.16M118.43 50.928c-.02.32-.04.66-.06 1.22-.52-.26-.79-.4-1.06-.54m169.23-30.417-1.16-.36m135.15-3.482-1.14.54m93.95-4.002.01 1.921m-333.9 17.67-2.8 2.341M103.62 55.43c-.02-.56-.05-1.12-.07-1.62 1.05-.12 1.82-.2 2.58-.28M71.69 57.63l2.34-.18.07.44-1.22.48M391.23 18.83l2.02.84m29.87-2.2c-.33.2-.65.42-1.7 1.08.89.36 1.45.58 2.01.82M45.71 57.932l.62.84M491.2 13.167c1.35.44 2.7.88 4.02 1.3-.1.46-.19.861-.27 1.261M78.76 48.366c1.61 1.962 1.62 1.981 1.02 3.182m-28.83 7.264-3.88.1-.44-.9-.84 1.58M395.66 8.224l-1.4 2.261c-.1-.08-.25-.14-.28-.22-.05-.14-.02-.32-.02-.48m80.51-4.563c-.03.4-.06.8-.09 1.221-.19.06-.48.16-.77.24m-3.66 9.025-1.14.52m-321.8 28.456-1.13.68m77.93-12.746-1.14.38m15.08-5.963.02.96.86-.34m45.25-9.305.9 1.58m50.48 4.503-2.29.66M81.65 48.327l-1.1 1.16.11.4c1.11-.38 2.22-.74 3.34-1.12.19-.66.33-1.161.54-1.901-.91-.2-1.84-.42-3-.68.19.82.28 1.22.37 1.6m6.03-.84.67 2.04m296.2-35.5-.54 1.722m-51.45 2.922.05 2.16M180.35 34.54c-.49-1.28-.8-2.502 1.62-2.902m-68.66 7.604c-1.77.86-.57 1.501-.19 2.202m85.67-15.53-.56.561m9.7 5.163-.23 1.721M430.72 4.362l-.86.04M121.51 48.727l-.88-.34M486.82 1.96l-.57.5m48.91 3.263c.68.56 1.35 1.1 2.17 1.76-.5.14-.9.26-1.31.38M196.49 26.235l.32.68m188.75-20.21.3.7m149.3-6.244.57.48m27.05-.56-.29.7M94.57 52.97c-.09.18-.19.36-.26.54-.03.08 0 .16 0 .24m171.73-24.313c.23.2.45.4.69.6l1.61-.62M166.83 42.863l.03.96m401.38-37.18c0 .16.03.32-.01.48-.03.1-.18.16-.28.24m-255.41 5.223.03 1.441M38.84 59.273l.32.66.25-.78m28.32-5.804.32.66M454.02 3.542l-.28.74M203.7 26.195l.88.38M507 9.704l.57.461M58.94 56.771l-.87-.08m335-48.547-.02-1.2-.64-.1-.78 1.4M120.39 49.627l1.48.96M570.26 2.102l.28.72M220.76 27.455c0 .24.12.52 0 .72-.31.54-.71 1.06-1.08 1.6M54.29 62.035l.41 2.561M492.58 3.281l-.86-.22M313.44 14.187c0 .16.04.32 0 .48-.03.1-.18.18-.27.26M132.3 44.745c-.21.26-.42.52-.61.74.26.36.47.641.68.941m215.19-25.134.86-.08m-165.05 9.005-.86.14m104.91-8.785-.39 1.061-.58-.16.67-1.34M31.65 65.575l.37 1.62M363.58 16.89l3.17.22m136.52-4.203-.85.5m-291.35 17.55-.85.36m360.03-20.57-.58.46M554.43 3.2l.87.72M45.54 54.57l-.86.18m28.06-5.523-.86.16M550.7 9.945l-.87-.46M420.97 6.763c.1.16.23.3.28.46.02.06-.17.16-.27.26m110.44-4.122-2.3.72M365.34 18.43l1.15-.1-.3-.68M43.14 58.671l-2.38 4.323m166.73-35.62.86-.12m44.79-5.724-.86.34m118.2-5.302 1.72-.82-.58-.501 1.72.18M80.61 56.951c-.2-.12-.4-.24-.89-.56-.18.88-.33 1.56-.47 2.261m495.61-55.07v1.2M57.58 52.45l.66 1.8M48 57.472l-.54.82m-36.53 3.703.6.36m42.08-2.361.6.36m167.07-34.4 1.49 1.482m-10.14 6.924c.13.2.27.42.7 1.08-1.05-.56-1.59-.84-2.14-1.12M582.05 4.342l.28.74M102.56 44.524l-.55.58M498.1 13.008l1.15.22m-392.76 35.16c-.2-.2-.4-.4-.8-.821.76-.14 1.33-.24 1.91-.34m115.25-17.39c-.09.18-.21.34-.25.52-.01.06.18.14.28.2M39.86 56.652l-.53.84m342.61-43.824c-1.54-.7-.6.5-.85.78M263.5 21.291l-.85.32M39.46 60.114l.61.6m140.8-27.935.87.34M55.12 55.35c-.14-.38-.27-.78-.41-1.18-.48.34-.76.54-1.05.74M273.9 22.072c-.37-.3-.74-.62-1.33-1.1h-1.87m65.29-2.622-.86.32M209.09 31.957c-.09.18-.21.34-.25.52-.01.06.18.14.28.2M197.73 36.9l.6.64m-53.67 6.104c-.29.2-.58.38-.95.64.57.34 1.08.64 1.59.94M319.54 16.51l-.87-.4m253.59-6.804-.82.82-.9-1.54h1.15M166.91 37.32l-.56.56m-53.33 8.165.6.38m66.04-7.204-.85.36M477.4 12.326l.58.7m-118.34 8.265-.86.06m-92.35 1.541-.85.34m213.001-6.863c.36-.42.719-.86 1.139-1.361-.43-.1-.89-.2-1.99-.46.68.66.9.86 1.12 1.08m27.02-1.58 2.01.92.86-.5m23.57-.56h.86m-124.52-2.922.31 1.42M295.68 18.03l.59.66m133.7-5.402-.57.5m129.061 1.42-1.731-.98M112.15 52.45l-1.11 1.16M392.1 19.49l-1.41 1.541m114.03-6.483-.57.5m-72.74-1.361c.48-.26.95-.52 1.57-.88.16.36.3.68.44 1.02M114.16 52.35l.89.58m19.37-12.647-.54.82m2.26-1.1.61.62m37.13-1.96-.56.56m350.65-24.775-.28 1.681m-41.73-9.965c-.09.16-.22.32-.27.5-.02.06.18.16.27.22M207.19 35.36l-.84.82M460.67 6.444l-.57.74M327.25 26.354l.48-1.04.62-.5.61 1.14m262.29-19.37.86.5m-93.71 8.564.87.22m-250.09 17.95 1.75.74M101.48 46.166l.59.38m256.18-22.512c.22-.24.43-.48.65-.72-.38-.18-.67-.32-.96-.46M100.88 52.067c-.09.18-.21.36-.25.54-.01.06.18.12.28.18m267.38-30.276c-.09.16-.2.34-.27.5-.03.08 0 .16 0 .24m147.9-11.326c-.1.16-.22.32-.27.48-.02.06.17.16.27.24m-4.87 3.942.86-.02M209.92 39.542l-.86.12m-54.12 1.401-.72-1.14c-.41.68-.7 1.16-.99 1.66l1.15-.18M473.64 9.825c.14.46.28.92.55 1.761.17-.44.25-.64.32-.84m49.16-1.341 5.47 4.282M78.64 58.032c.01.24 0 .48.06.7 0 .02.36-.06.55-.1m272.92-36.76c-.76.12-1.53.24-2.25.36-.3-.42-.62-.86-.94-1.301m73.4-16.389.87.66-.34.82-.45-.1.21-.68M211.45 25.134l.04.96M78.1 58.852c-.95.56-1.9 1.1-2.93 1.701-.45-.04-1.03-.1-1.61-.16m90.16-15.849-.81 1.321m408.5-41.843c.14-.38.29-.78.56-1.481.16.38.23.58.31.78M108.89 43.844l2.07 1.34m400.66-29.816.87.94M10.46 64.016l-1.4.78M412.22 19.45l.87.44m-24-8.604.02.96m137.161.26c.05.24.089.5.159.88-.06.08-.26.321-.45.561m-274.86 7.584c-.39.2-.78.38-1.46.72.68.12 1.08.18 1.48.241M703.8 64.544c-.37 1.02-.74 2.04-1.26 3.462-1.97-2.042-3.39-3.502-4.81-4.983l.9-.32v.82M435.98 79.292c-2.84-.2-2.13 2.401-3.96 3.302-.19-.46-.4-.94-.6-1.421m-84.74-2.521c-.89.44-1.78.86-2.55 1.24-.01 1.521 1.26 2.822-.74 3.983M605.2 69.446l-.93-2.341c-1.72-.52-3.14-.96-4.67-1.42-1.89 2.46 3.24 4.302.82 6.703 1.26 2.141 3.6 1.36 5.67 1.38M284.78 97.583c-.39-.64-.77-1.28-1.16-1.921-2.09 1.18-3.72.34-5.28-.7m182.25-21.652c.67-.06 1.34-.1 2.44-.2-1.61-2.482 2.27-3.562 2.19-6.044-.27-.18-.84-.56-1.4-.92l-.53.28.37 1.6m-323.05 57.793.96.08v.42c-.94.42-1.89.82-2.83 1.241-1.27-.381-2.42-.721-3.42-1.021-1.17.5-2.22.961-3.16 1.361-.31.46-.61.9-.9 1.361m428.27-55.671-1.38-.18-.37.46 2.11 2 .03-.66c1.34-.42 2.68-.86 4.11-1.3.35.82.52 1.24.69 1.64m-432.75 39.783c-1.51-.5-3.04-.36-4.6.72-.03.02-.21-.1-.28-.18-.04-.06-.02-.16-.02-.24m348.91-50.268c-.19.64-.37 1.28-.64 2.201-.51.32-1.41.92-2.54 1.641-.6-.04-1.56-.1-2.44-.16-.48-1.14 2.37-3.482-1.57-3.102-.21 1.781-2.82 3.182-1.62 5.183m145.8.3c-.93-.66-1.86-1.3-3.02-2.12-.4.68-.71 1.2-1.01 1.72M289.13 98.362c.39-.58.78-1.16 1.31-1.96 1.07.36 1.93.66 2.25.78.06 1.62.1 2.821.15 4.022l-.73-.38m286.27-41.123c-.14.34-.27.68-.56 1.4-.43-.66-.66-1-.96-1.48-.67.74-1.29 1.44-1.91 2.121m23.88.62c-.13-1.12-.26-2.24-.42-3.662-1.39 1.06-2.45 1.981-3.64 2.782-.41.28-1.12.22-1.7.32m-429.04 58.793c-.83.56-1.66 1.12-2.6 1.761-.66-1.361-1.08-2.241-1.57-3.262-.56.42-1.09.801-1.62 1.181m540.12-61.314c-.29-.24-.57-.68-.86-.7-1.15 0-2.3.1-3.45.18m-167.13 6.203c-.97 1-1.95 1.98-2.97 3.021.4.18.7.3 1 .44M242.97 97.963c0 .24.02.48.03.76-1.34.12-2.6-1.72-3.6-.22-.09 1.942-.16 3.322-.23 4.683l-.51.04.58 2.081m428.041-36.92c-.46-.48-.92-.94-1.83-1.881a204 204 0 0 0-.471 2.381m-502.67 40.222c-.66-.16-1.32-.3-2.3-.52-.67 1.241-1.28 2.382-1.89 3.522m461.46-42.023c.39-.46.79-.92 1.24-1.461.75.78 1.3 1.34 1.85 1.921l.1-.52 3.99-.08m-408.67 33.458c1.85-.84 3.69-1.561 3.7-3.802 0-.68 1.31-1.58 2.03-2.381-1.42-.88-1.76.58-2.48 1.26l-3.07-.46-.14.44.89-.04m296.69-32.878-.48-1.1.79.02-.54 1.66-.49-.02 1.66 4.423M402.18 85.695l-.29 1.861c-.65-.2-1.03-.34-1.84-.6.71-.56 1.27-1.02 1.83-1.48m152.98-17.91c-.36-.48-.72-.961-1.04-1.361-1.08.3-2.04.56-3.05.82-1.83-.78-3.43-2.341-5.76-1.54l-2-2.122m-281.19 37.001.26-.76.89.88c1.42.54 3.59-.9 4.95.62.46.52.99.981 1.49 1.461m-24.23-6.904c.39-.78.79-1.54 1.41-2.782-.81.34-1.16.5-1.5.64-.03 0-.03.18.01.221.07.08.19.14.29.2m30.08 8.905c1.57 1.501 3.23.46 4.88-.5m29.6-18.07c1.49.34 2.93 1.18 4.61-.16m180.63-6.424c-1.06-.16-2.12-.3-3.37-.48-.02.3-.05.62-.08.94m-44.15-7.164c.68.18 1.33.46 2.03.54 2.01.28 4.06 1.461 6.03-.46m-291.07 43.144c.13-1.36-.18-2.461-1.59-3.081-.6-.261-1.08-.681-1.98-1.261-.48 1.221-.94 2.381-1.4 3.542l.56.18 1.67-1.961m530.47-50.068c2.26.66 1.2 2.421 1.64 3.642.4 1.12.17 2.381-1.34 3.142-.21.1-.03.76-.03 1.16m-515.84 45.205c-.36.481-1.11 1.301-1.03 1.361 1 .761 2.12 1.401 3.22 2.061m466.23-46.965v1.72c1.12-.12 1.96-.22 2.8-.32l.08.74h-1.72m-82.54-6.123c.67.86 1.34 1.721 2.26 2.922 1.07-1.1 2.03-2.082 2.98-3.042.72-.2 1.48-.4 2.23-.62m-304.09 37.681-3.56-2.602m375.79-38.721c-1.39.54-2.79 1.08-4.37 1.7-.36.06-1.01.16-1.66.26-.11.02-.27.16-.27.24s.17.161.27.241m-357.42 34.879-.55 1.341.6.1c.8-2.341 1.56-2.621 5.69-2.081m304.85-28.056c-.97-1.08-1.94-2.14-2.92-3.241-.02-.02-.36.16-.66.3.05.82.11 1.7.17 2.741.68-.24 1.32-.48 1.97-.7m82.2-1.18c.99.94 1.97 1.86 3.19 3.021-.66.4-1.21.72-1.75 1.06m-499.71 42.804c-1.33-1.621-2.51-.02-3.72.741m259.78-35.94c.6.5 1.19 1 1.81 1.52-.41.38-.79.721-1.18 1.061M345.36 91.8c-.68.08-1.35.16-2.55.32 2.76 2.021 3.11 2.021 3.72.26m99.04-21.692c-1.25-.1-2.5-.18-3.71-.28-.27.36-.57.76-.88 1.18m-282.62 51.089-6.79 2.782m27.21-10.426 3.8.94m517.21-54.35-2.58-2.661m-25.61.76c-.77-.18-1.55-.36-2.76-.64-.85.88-1.92 1.98-2.99 3.081M397.81 83.774c-.21.5-.42.98-.66 1.541-.73.22-1.59.46-2.44.72-.67.06-1.35.2-2.01.2-1.21-.02-1.68-.4-.61-1.36m50.46-7.404 2.18.58c-.65.84-1.29 1.661-2.07 2.662.56.18.98.34 2.39.82-.84.32-1.34.52-1.83.7m249.06-9.865c-1.15-.16-2.3-.48-3.45-.48-2.32.02-4.63.22-7.53.38-.18-.12-.92-.56-1.67-1.02-1.99 2.881-5.5.64-8.04 1.66m-144.1-9.005-.03-1.92-1.12-.22-3.13 4.762m-111.55 7.344c.23 1.5.48 3.002.68 4.502.08.62.04 1.281.06 1.922m-227.76 24.413-4.02.56m338.29-37.76c-.38-.08-.75-.14-1.3-.26 0 .58.02 1.06.03 1.76.47-.36.73-.56 1-.76m-202.52 19.27c.17 1.121-1.86 3.282 1.54 2.922m361.42-30.417c.24 2.241 2.22-.32 3.04 1-.47.841-1.04 1.842-1.6 2.842m-452.71 37.361c1.08.68 2.07 1.661 3.77.34m264.71-27.315c-.25.28-.51.56-.81.88.21.08.5.22.97.42.34-.82.66-1.58.97-2.34m17.02 3.701c-.56-1.9-1.72-1.1-2.88-.3m-318.2 35.4c-.74.14-1.49.28-2.8.5.86.621 1.33.961 1.81 1.301l-.29.48c-1.23-.3-2.47-.62-4.16-1.04-.16.18-.64.64-1.07 1.14-.26.3-.44.641-.65.941-.67-.2-1.16-.34-1.65-.5m155.31-32.939c1.75.4 2.12.4 2.88-.12m234.54-16.269c-.03-.32-.07-.64-.11-1.08-1.43 1.02-1.65 2.28-.73 3.261m24.17 3.522c-.57.1-1.15.18-1.93.3-.2.5-.42 1.081-.65 1.661m-192.89 4.523c-1.31-.38-2.6-.56-3.73.64m201.15-17.49c-.25 1.121-.5 2.222-.69 3.102.8.48 1.35.8 1.44.86 1.88-.46 3.45-.84 5.02-1.2.1-.08.29-.22.27-.24-.36-.4-.73-.8-1.14-1.26.35-.2.75-.44 1.15-.661M278.17 90.638q-1.08 1.06.22 2.802c-.93.86-1.92 1.76-2.9 2.661M403 73.11l-2.52 2.681m302.18-11.747c-.48.08-.97.12-1.44.24-.58.16-1.15.3-1.73.46m-36.23-4.502c-.5-.2-.99-.42-1.54-.64.62-.44 1.14-.8 1.73-1.2-2.28-.841-2.6.48-3.07 1.62-.01.02-.2.04-.27 0-.11-.06-.2-.16-.29-.24M382.93 86.836c.19.38.38.76.86 1.741.82-1.58 1.4-2.721 1.98-3.842l-.43-.28c1.92-.96 3.83-1.921 5.95-2.982-.57-.22-1.09-.44-1.62-.64m-98.11 5.343c3.08-1.621.5 1.88 2.08 1.6q1.71-.72 3.95 1.621c-.06-1.74-.11-2.941-.15-4.122h-.6l-.66.92M553.21 73.65c.77.36 1.52.76 2.32 1.08.84.32 1.72.56 2.59.84m135.6-2.96c.48.32.95.92 1.44.92 1.88.04 3.64-.4 5.17-1.361M287.6 88.237l-1.91-1.521-.51.34c.25.34.49.7.91 1.28-.33 1.261-1.67 1.742-3.32 1.822M441.64 75.15c-.25 1.58.96 3.361-1.33 4.702M136.98 128.28l-3.4 1.201m25.94-12.587-3.12 1.341m174.77-37.601c-1.21-.24-2.18-.2-2.92 1.1-.22.4-1.26.52-1.92.78m-58.5 16.69c1.82.16 3.65.3 5.79.48-.02-.56-.04-.96-.05-1.36M533.98 75.83c.59 1.28 1.71 1 2.88.58m-15.44-14.128-3.73.72h-7.2M176.4 107.529c-.39.1-.77.2-1.27.34.42.72.76 1.3 1.09 1.861m390.7-44.585-1.99 2.481m-162.76 17.83 6.32-.68-.03.38c1.9-.52 3.8-1.06 5.67-1.58.08-.341.21-.821.33-1.302m140.07-18.53c-1.71-.26-3.41-.52-5.36-.82-.07-.34-.22-1.06-.37-1.801 1.89-.52 3.65-.64 4.54 1.24.41-.2.79-.38 1.17-.56m-311.03 34.62c1.12 1.16.66 2.6-1.03 3.04-1.03.281-2.1.361-3.15.541m338.89-29.496c.62-.62 1.23-1.26 1.9-1.941-.55-.54-1-.96-1.53-1.46-.66.46-1.41.98-2.28 1.58.55 1.1 1.09 2.181 1.63 3.282M356.45 87.076l1.57 4.743-.56.2c.38.12.77.24 1.27.4.38-.52.75-1.02 1.26-1.72l.93 1.36m264.97-24.013c.67.32 1.34.62 2.16 1 .51-.34 1.07-.68 1.75-1.12l1.56 2.881M264.67 92.219c-1.47.76-2.93 1.54-4.57 2.401-.36 2.582-.72 2.922-3.12 3.402-1.26-.54-2.03-.86-2.8-1.2m331.12-35.44c-1.1-.54-2.2-1.1-3.28-1.641-.09.16-.28.48-.47.8M439.73 79.892l-2.55 1.921m-83.61 5.363 6.09-.76c-.21-1.361-.38-2.462-.64-4.203-1.36 1.181-2.28 1.962-3.2 2.762M619.23 58.58l2.89 1.621m-408.27 45.185c1.53-.22 3.07-.44 4.69-.66l-1.34-1.861m-84.04 13.167.83-1.461-.4-.16-3.5 2.542-.37-.421-2.22 1.922M496.61 76.63c1.06.2 2.12.64 3.16-.2m-134.02 3.962c-.3.48-.6.94-1 1.581-.45-.5-.73-.8-1-1.1m-88.56 11.186c-.22 1.08-.44 2.141-.69 3.342.79.9 1.6 1.86 2.58 2.981-.79.28-1.28.46-1.77.64m283.87-30.956c-.57.12-1.14.24-1.69.34l-.57-1.26c-1.11.24-2.18.42-3.21.72-2.21.66-4.4 1.34-6.6 2M257.45 92.16q.1-.98-2.05-.62m-64.07 14.087c-.22-.88-.45-1.741-.7-2.721-1.78.78-2.11 2.701-3.95 2.121m21.22-3.382c.96.721 3.19.901 1.29 2.962-.52-.42-1.01-.82-1.5-1.241m293.45-31.597 1.25 1.22c.54-.3 1.08-.62 1.63-.92m27.01-1.38.87-.361-.36-.48-1.37.64m-339.18 46.306c.05.4.1.78.17 1.34-.63-.14-1.1-.26-1.57-.36m399.5-49.807c.37.56.74 1.1 1.06 1.6 1.41-.62 2.76-1.2 4.11-1.78m-348.65 38.161-2.37 1.841m122.27-25.935.36 2.602m83.37-3.982c1.91-.62 3.83-1.221 5.94-1.901 1.22 1.12 2.55 2.32 3.87 3.522m21.9-13.048c-.19.26-.31.64-.57.74-1.65.56-3.33 1.141-5.34 1.842.69 1.16 1.15 1.94 1.62 2.721l.4-.16c-.16.98-.31 1.961-.5 3.082.47.18 1.07.42 1.67.66m-108.28 7.945c-.01-.48-.03-.96-.04-1.381 1.52-.44 2.76-.82 3.91-1.16 1.51.22 2.96.42 4.42.64m-60.84-1.201-2.03-.22.04.96m-79.5 11.287-1.32 2.881m-73.67 24.233c-1.38.581-1.2 3.142-3.63 2.402m512.58-58.112c-.2.8-.4 1.6-.66 2.621-.56.08-1.25.18-1.93.28M384.22 81.653l-3.44.36-.1.5 2.14.481m2.39-7.224c-.77.92-1.55 1.86-2.36 2.822.13.46.3 1.08.47 1.72M230.17 95.761l-3.11 1.48m40.28-3.02c-.96.14-1.91.3-3 .46.55 1.26.9 2.08 1.37 3.161-.81.12-1.39.22-1.96.3m421.93-30.877-.58 4.563M604.85 59.36c-.69 1.8.85 2.962 1.75 4.282m-39.35 5.823 4.32 1.04m3.16-1.06-2.3.56m-171.27 9.806c-.19.42-.39.82-.76 1.601.59.66 1.74 1.941 2.9 3.222m-23.56 1.34-3.16.5.12-.22-2.44-.4m-158.33 20.852c-2.31-.12-2.75 1.681-3.54 2.862-.39.58.09 1.561.33 2.301.16.48.59.86.89 1.281m441.3-55.01-1.43 3.361M300.39 91.138c.92.5 3.9-.88 2.37 1.842M150.5 115.772c-2.87.981-5.69 1.661-8.34.78m-9.19 1.221c-.82.981-.92 1.661.66 1.541m496.56-54.25 2.6 3.082m-503.48 51.608-1.24 2.141-.39-.1s-.02.221.02.221l.87.06m57.78-11.907c.02.48.05.981.09 1.921.36.1 1.2.34 2.05.581m-50.64 4.542c-.3.64-.61 1.281-.98 2.061.25.26.61.62 1.09 1.121-1.49 1.04-2.84 1.961-4.24 2.941-2.26-.76-2.48-.72-3.32.761m474.79-56.812c2.49-1.14 3.15-1.12 3.74.16M446.2 73.028l-.31-.94c-.31.12-.63.24-1.08.42 1.17.94 2.09 1.681 3.01 2.422l1-.941-1.74-.58M301.93 85.856l-1.35 2.581.59.4-3.73.52c0 .16.02.56.03.961l-2.87.44m146.94-20.17c-.38-.141-.76-.281-1.36-.481-.13.6-.23 1.1-.34 1.6m-92.29 16.21c.13-.36.26-.7.51-1.401-.63.22-1.16.4-1.69.58m-87.48 5.063 2.95 1.46m9.52 7.445-1.14.42.97.761 1.89-1.441m10.18-12.867c.27 2.44.54 4.902.81 7.264.84-.74 1.7-1.481 2.56-2.242m68.22-1.6.39 1.34-.52.24-1.59-1.38m-47.18 1.7c.11-.9.22-1.78.33-2.7l-2.98 1.38m395.03-23.853c-.87.04-1.74.08-2.78.14.42.7.65 1.1 1.18 2-1.08-.6-1.61-.9-2.14-1.2M522.17 74.73c-.03.32-.05.66-.09 1.08.78.481 1.75 1.082 2.9 1.782.04-.44.06-.76.09-1.08m17.81-1.381c-.11.4-.23.8-.35 1.22.55.06 1.03.1 1.51.16m26.42-2.601c.03.32.07.64.14 1.3 1.35-.36 2.47-.66 3.6-.96m8.59-2.701c-1.15 1.3-4.28 2.781-6.58 3.121-.2.04-.37.18-.79.38-.42-.68-.83-1.34-1.23-2m-26.28-10.166c-1.79-2.282-4.24-.16-6.4-.54 1.11.56-1.37 2.46 1.24 2.24m108.73 7.745 7.07 1.32.43-.7-4.339-3.281m-533.121 55.83c.3 2.022.91 2.142 3.79.641m558.64-56.231c-.46-.26-.93-.52-1.59-.9-.27.42-.49.78-.71 1.12M330.2 94.96l-4.56 1.34m-119.39 7.104c-1.92 1.141-1.69 2.482-1.27 3.842m412.84-42.643-2.65.52.07.26-4.32-.86m-401.32 36.34c-.02-1.08-.3-1.761-1.76-.64m206.42-26.355 1.59 6.103M264.62 91.018c.69.46 1.45.86 2.05 1.381.56.48.95 1.1 1.1 1.841 1 .56 1.99 1.12 2.98 1.661.27-.16.76-.44 1.24-.72m396.73-28.976c-1.72-1.521-4.07-1.401-6.04.28M150.62 112.37c.38.501.76 1.021 1.15 1.541-.19.2-.47.5-.74.801m-32.06 11.806c.6-1.421 1.2-2.821 1.76-4.162.7-.1 1.37-.18 2.18-.28-.23.48-.44.9-.68 1.42.6.16 1.2.341 1.81.521l.17-2.222m183.57-33.858c1.14 1.02 2.28 2.02 3.77 3.361-1.2.52-2.08.9-3.04 1.301.04 1.661 1.64 1 2.92.84m47.84-8.164c-.96.12-1.91.24-2.32.28-2.54-.94-4.67-1.74-7.19-2.681.32-.46.82-1.18 1.31-1.881m260.15-13.608c-2.98-.3-4.58.96-4.88 4.423-.74 0-1.51.04-2.28.04m30.43-11.667.78 2.021.92.34-1.41.52m-286.61 17.33-1.04 3.502m18.18 1.121c.01.48.03.96.04 1.36.87.14 1.45.22 2.02.301m270.28-27.235c.79-.3 1.58-.6 2.55-.98 2.91.46 6.54.58 7.52 4.041M145.5 114.151l-1.02 2.642m517.34-55.351c-1.25.56-2.46 1.18-3.75 1.68-.37.14-.94-.12-1.42-.2m-176.04 3.763c-.6 2.321 2.51 2.321 3.24 3.822m161.58-4.863c-1.82.26-3.64.5-5.87.82 1.21-1.36 2.24-2.52 3.28-3.681m-176.26 7.644-4.52 4.202m-26.26-3.021c.6.14 1.2.28 2.19.52-.91 1.08-1.65 1.981-2.4 2.862M290.43 86.836c-1.35-.7-2.13-.18-2.56 1.12M452.6 76.35l-3.98 2.242m-231.45 30.056 5.8-2.501-.16-.36 3.73-.501m-23.97 6.024c.15.3.31.62.6 1.22-1.12.441-2.37.921-3.42 1.341-.23.7-.47 1.461-.72 2.201m219.41-36.1-8.6 1.3m230.14-12.726c-1.81 2.121-1.709 2.421 1.161 3.602m-228.051 1.12-4.87 1.201m127.66-6.904 3-1.12-.34-.74-2.96 1.16M328.62 81.933c1.4.34.8 1.441.97 2.261.14.64.58 1.201.89 1.802m114.76-4.223c-1.17 2.041-3.19 1.781-5.14 1.681m-324.77 39.982-.32-.66 1.42-.54m378.86-56.091c-1.44.1-2.88.14-4.31.3-.58.06-1.15.38-1.72.56m-33.81 7.924c.39-.26.77-.52 1.49-1-.7-.08-1.11-.14-1.52-.2m-14.53 6.523c.5.78.7 1.501-.82 1.761M151.13 111.07c-1.48 1.3-2.29 3.281-4.73 3.622m401.53-49.408c-.32-.5-.63-.98-1.09-1.7.49-.141 1.16-.341 1.83-.541l.64.42-1.08 2.061M115 127.86c1.46.18 2.93.32 4.35.56.23.04.24.561.35.861m487.48-64.936c.38 1.86 1.72 1.02 3.19.82.2-1.02.37-1.921.54-2.822m-108 12.207c.79-.5 1.58-.98 2.57-1.62 1.55.34 3.37.72 5.18 1.12m-162.74 16.71c2.08-1.021 2.27-.901 2.98 1.96.66-.22 1.31-.44 1.96-.66M589.88 59.3c-.09.4-.17.8-.33 1.54-.49-.64-.82-1.06-1.21-1.56-.53.24-1.1.5-2.18.98 1.06.6 1.83 1.04 2.59 1.481M494.87 75.79c.29.46.57.94.98 1.6-.35.581-.78 1.302-1.21 2.022m111.391-15.029c-.96.42-1.911.84-2.871 1.261-.46.2-.95.34-1.43.52m20.98-2.861c.38-.1.75-.22 1.07-.3-.07.84-.13 1.64-.2 2.441M403.62 74.73l-1.68 1.621m-14.06 12.587c-.04-.32-.08-.64-.14-1.14-.68.36-1.14.6-1.59.84m-265.82 30.837c-.08.26-.31.7-.22.74.44.201.95.301 1.44.441m542.86-49.368c.61.38 2.29 0 1.44 1.441M440.08 82.734c-1.66 1.64-3.83.76-5.72 1.26m-30.52-11.946c.3 0 .59 0 1.21.02-1.49.98-2.47 1.02-3.22-.04m80.73 6.743 4.05 1.161m42.41-9.385-.26 2.181m-193.29 7.064.85.72-.71.54-.88-1.46c-1.57.88-3.11 1.761-4.66 2.642m-7.78.1c.42.9.83 1.8 1.35 2.941-.96.14-1.82.26-2.68.36l-.1.44 1.86.521m-13.37-3.202-1.66 2.161m-79.11 13.368c-.45.66-.9 1.32-1.5 2.221-.7.18-1.9-.881-3 .46m95.04-19.07c.67 0 1.34-.02 2.6-.04-.53 1.04-.99 1.94-1.58 3.101-1.18-.6-2.14-1.1-3.11-1.58l.28-.821-2.76.96m308.44-22.052c-1.95.62-4.05 1.02-5.66 2.842.95.18 1.45.28 1.94.36m-73.04 1.741-.18 2.621c-1.78-2.12-1.78-2.2-.11-2.62m-26.49-1.982 1.37-.96.3.36-1.06 2.961m135.14-8.324c.83.3 1.67.6 3.01 1.08-1 .84-1.57 1.321-2.15 1.801M149.39 110.93l-4.01.841M673.9 70.047l.28 2.18m1.44-2.64.57 2.881M388.3 83.134c-.24 1.44 2.47 1.961 1.25 3.702m-51.64 6.123 1.77 1.221m-142.62 22.953-4.59.58m463.02-57.192-1.78 1.541-.7-.36c-.2.72-.39 1.44-.73 2.702 1.06-.44 1.6-.68 2.65-1.121-.91-.18-1.32-.26-1.73-.34m-32.23-2.001-2.29 1.48m-362.12 43.385c-.53-.661-1.06-1.341-1.7-2.141-.88.76-2.84.9-1.18 2.141m-110.52 7.884-1.33 2.201M474.45 75.57c.49.44.98.88 1.57 1.42.61-.32 1.25-.64 1.89-.98m-205.88 27.375-4.56 1.401m-91.37 8.605c1.68 1.301 2.69 2.982 3.45 4.863.43 1.06.62.98-.79 2.341m245.53-48.627c.09-.32.18-.66.33-1.241-.68.06-1.29.12-1.8.16l-.8 2.722M313.31 97.762c.65-.5 1.35-1.38 1.96-1.4 2.04-.06 4.04.26 6.07.26 1.21 0 2.48-.32 3.72-.48l1.71-.46m314.92-30.738c1.96 1.08-.76 2.461.3 3.602m-32.81-6.404c-.19.16-.38.32-.88.76 1.62.241 3 .461 4.66.701-.11 1.04-.21 1.901-.31 2.782m-424.6 49.247 2.07 1.081m181.72-34.92-5.1 2.802M221 110.609c.84-.56 1.64-1.2 2.54-1.641.91-.46 1.92-.68 3.21-1.12.22.22.66.66 1.09 1.1.02 0-.16.2-.27.281-.07.04-.19.04-.28.06m56.6-12.307-1.37 1.9m55.18-12.386c-.55 1.42-1.11 2.841-1.75 4.482-.87.64-1.85.98-2.72-.04m-186.4 21.012c.83.78.15 1.341-.77 1.861m533.01-45.625 1.97.58.34-.5-.87-.32m-288.7 6.623c3.07-.88 3.08 1.601 4.39 2.642l-1.09 2.281m-272.05 47.867c-.14 1.22.73 1.14 1.78.84m389.78-58.973c-.64.54-1.29 1.06-2.18 1.801-.48-.24-1.3-.64-2.13-1.04m42.27-1.341c.49 1.1.98 2.201 1.61 3.582-.86-.18-1.5-.3-2.15-.44m12.65.66-1.7 1.74m-165.15-.28c-1.23-.98-1.83.121-2.57.761m57.56-.98c1.95 1.12 2.01 2.481.37 4.062m218.97-8.665-.29 2.162m-519.31 51.108 5.14-1.641c-1.72-.36-3.36-1.141-5.48.68.04.701.08 1.601.1 2.061-1.04.921-1.69 1.501-2.35 2.082l1.05.74 1.06-1.901m274.64-46.626 1.23 3.242m26.48-12.967c1.75 1.18 1.54 3.001 1.82 4.662m-251.63 33.179c-1.05.2-2.09.38-3.27.6-.13-.22-.38-.66-.8-1.381-.38.561-.6.881-.82 1.181m284.05-39.362c.24.28.48.56.86.98-.75 0-1.23.02-1.7.04m-283.73 33.379-.76 2.301m256.07-31.497c-.28.42-.44 1.04-.86 1.22-1.01.48-2.15.761-3.13 1.081.4 1.08.66 1.781.93 2.482m-252.58 29.776c1.8 1.241 2.63 2.922 2.26 5.143m190.87-29.336c1.9-.36 3.72-.54 5.24.6.33.24 1.12.06 1.69.08m273.51-19.35c.12.54.23 1.08.4 1.86 1.12.16 2.66.36 4.2.58m-60.93 4.883.3 2.402M349.16 84.355l-1.65-.36-.12.66 1.49-.02m192.289-8.445-.649-1.04-.421.12-.079.98m-72.21-1.821c-.19.26-.37.52-.58.8-.57-.12-1.14-.24-1.71-.38M682.53 58.6l-3.93-.6-.1.56 1.73.98M438.54 78.312c.38-.36.75-.72 1.41-1.34.03 1.5.45 2.861 0 4.062-.54 1.4.71 1.32 1.29 1.84m-75.84 5.024c-1.23-.46-2.46-.92-3.07-1.141-1.8.94-3.09 1.62-4.38 2.301M613.2 61.342c-.61-.6-1.21-1.2-1.97-1.941-.83.52-1.44.92-2.06 1.3M204.65 112.61l-1.46.901c.3.26.53.44 1.1.92-1.69.1-2.93.16-4.16.221m-27.05 1.981-.07-1.441c.35 1.641.17 1.761-2.49 2.181m528.1-48.807c.38.64.76 1.3 1.14 1.941.04.06 0 .16 0 .46-1.55.36-2.95 1.701-4.89.46m-132.79-1.54c-1.24.06-2.48.1-4.23.18 1.81 1.06 3.03 1.76 4.25 2.461M269.86 92.139c.5.48 1.05.94 1.48 1.46.38.461.63 1.022.94 1.542m267.28-32.318c-.52.38-1.05.76-1.68 1.2.82.9.89 2.402 2.87 1.381M289.99 90.518l1.77.94m-112.18 16.17c.57-.421 1.15-.821 1.93-1.381.42.42.9.9 1.53 1.501-.88.42-1.56.76-2.24 1.08m50.01-11.726.94 1.78m156.11-21.231c1.35.32 2.7.52 4.02-.44m-207.89 38.001-.88 1.401-1.11-.541 1.69-1.04m145.22-24.474-1.68 1.681m271.59-31.558.58 1.681m-118.86 15.61-1.41 2.04M462.2 67.425c.09-1.06-.42-1.24-1.45-.6m101.61 2.341c.33.84.65 1.661 1.14 2.902.58-.98.82-1.4.97-1.661 1.22.84 2.4 1.66 3.58 2.481l.53-.34.03 2.862-.69.18-1.48-1.781m128.74-10.306-.1-1.08c-.58.14-.96.24-1.33.34m-207.4 2.761c0-.24.1-.58-.04-.7-.15-.12-.54 0-.83.02l.59.68m-307.7 46.926 3.38-.22.13-.56c-.22-.08-.44-.18-.68-.24-.04 0-.18.18-.27.28m249.76-36.98c.39-1.061.79-2.142 1.26-3.423-.94-.02-1.72-.04-2.5-.06m-189.76 31.118 2.99.22.5.64-1.4.721m91.83-19.331-2.55 1.32.45-3.922m20.44-.64c-.13 1.3 2.84.88 1.81 2.661m-38.91 8.225c1.65.74 3.29 1.561 5.17-.24.05-.04.03-.18 0-.24-.07-.08-.19-.14-.29-.2m-114.93 18.11c2.64-1.321 4.93-.721 7.21-.1m423.36-42.924c-2.07 1.4.72 1.56.87 2.401M174.6 106.207l3.58 2.421m-28.9 11.487-.19 1.981m171.05-35.14c.96 1.26-.14 1.941-1.09 2.441-.07.78-.14 1.421-.2 2.061M423.3 78.553l3.75.36M322.33 92.199l-.14 4.102m227.24-26.535c.16 1.121-.63 1.341-1.71 1.281m-295.13 29.397-2.32-.341m32.01.02 1.42.301-.54.48c1.53-.761 3.06-1.521 4.73-2.361-.75-.18-1.33-.34-2.34-.58.31 1.32.56 2.38.81 3.461m8.58-9.725 1.26 2.921m-29.26 4.003-1.09 1.601m-18.2-.64c-.27-.581-.54-1.181-.87-1.902-.89 1.06-1.44 1.721-1.99 2.382m216-31.098c-.53-.32-1.07-.66-1.78-1.08-.49.7-.86 1.22-1.24 1.78q1.79.28 4.19-.9c.41.3.89.66 1.46 1.08-.87.44-1.44.72-2.01 1.001m-107.27 6.644 1.47 1.02m-94.3 16.39c-.28.12-.57.26-.95.42 1.07 1.24 2.48.6 3.86.1m229.07-28.176c-1.72.06-3.44.14-5.46.22 0 .16 0 .26.01.62m-97.51 5.204c.4.68.81 1.36 1.26 2.1-.41.16-.81.32-1.34.541.3.26.52.46.75.66m268.81-11.526-1.73.5.32.2-2.61 2.682m-191.52 1.7c1.54.861 3.07 1.702 5.01 2.782-.16.72-.37 1.681-.58 2.622m-17.44-8.225c-.56.52-1.13 1.06-1.8 1.681 1.14.22 2.22.4 3.29.6M238.13 99.504c-.71-.52-1.41-1.04-2.38-1.74-1.06.34-2.66.88-4.27 1.4m23.96.32c.18-.36.36-.7.48-.92.9.06 1.78.1 2.67.16m438.32-35.68v3.122c-2.2 0-4.12-.04-6.04-.04m-534.56 50.187-1.23-1.44M552.95 75.83l2.29-.12m-48.53 2.902h-2.36c.17-.941.31-1.741.5-2.802-.91.24-1.84.46-2.69.68l-.39-1.16m-34.69 5.643 2.01.08M227.4 111.65l-2.31.14m289.37-33.919c.25-.34.38-.5.45-.6 2.19.08 4.03.14 5.87.2M350 83.534l.1 3.202c.9-.36 1.43-.58 2.24-.92.36.68.74 1.36 1.33 2.46-1.37.561-2.57 1.041-3.76 1.522m19.04 1.26-2.3.28M471.6 76.77c-.76.54-1.62 1.021-2.22 1.661-.28.3-.03.92-.02 1.401m141.61-5.943.96-.3-.11-.26-3.14.6m-74.82-6.984-2.29.6m-85.02 8.585c-1.92-.54-2.7-2.041-3.81-3.242M419.4 84.214l2.04 1.001M599.48 73.89c-.88-.28-1.75-.54-2.88-.9-.22.26-.54.62-1.07 1.24.69-.02 1.17-.04 1.65-.06m-420.57 43.704c-.66.601-1.33 1.181-2.17 1.941-.4-.4-.83-.82-1.27-1.26l-2.33-.521m260.33-35.18c-.06.521-2.28.161-.83 1.282m-82.98 7.184c.62.46 1.23.94 1.91 1.44.35-.1.82-.24 1.29-.4M231.4 110.99l-1.2-1.26m203.65-35.3c-1.14.22-2.28.44-3.51.68-.21.38-.49.88-.76 1.401M299.51 98.462l-1.12.88.59.401m144.24-31.237c.31.1.62.2.84.28-.31.36-.57.64-.82.92m57.59 1.121c-.77-.28-1.66-.42-2.29-.84-1.26-.82-2.47-.68-3.76.02m66.37-6.804c-.39-2.602-.58-2.742-3.8-1.661 1.06.2 1.85.36 2.64.5M130.61 127.94c-.5-.36-1-.72-1.49-1.081-1.01.981-1.74 1.701-2.48 2.402m242.17-42.764c-1.9 1.38-3.79 2.761-6.22 4.522.22-1.62.36-2.601.49-3.562m-10.88 2.061c.67.24 1.34.48 2.01.74.78-.44 1.54-.84 2.29-1.26m309.06-30.216c-.52.62-1.04 1.24-1.72 2.04l-1.45.4m-365.55 35.24-.79 2.041m-13.67 4.263c-.38-.52-.75-1.041-1.18-1.621.43-.72.93-1.54 1.72-2.862.63.82 1 1.301 1.38 1.781m210.14-32.898c-.08.96-.15 1.941-.24 2.902-.06.56-.17 1.14-.25 1.7m-161.33 9.146.93 1.78m309-20.63c-2.22-.441-2.08 1.48-3.16 2.18m-383.73 33.52-2.27 1.1m34.64-6.844c.42-.6.85-1.18 1.42-1.981.87.16 2.01.36 3.14.56m178.15-13.287-1.07-.5-.41.32.63.74m-53.45 2.762c-.09.96-.18 1.94-.3 3.142.54 0 1.32.04 2.1.06m-58.53-3.182-.8 2.02m-188.46 33.279c-.14.761-.27 1.501-.48 2.642q-2.355.09-4.56.18c-.14-.761-.25-1.381-.34-1.861-.87-.14-1.63-.261-2.39-.381m484.49-47.066-1.6-.98c-.37.62-.76 1.26-1.11 1.82.97 1.101 1.56.561 2.13-.12m-53.18-.94c.48-.1 1.06-.38 1.41-.26.93.34 1.75.86 2.62 1.32M168.45 110.55c.29-1 .58-2.021.9-3.141-1.46-.221-2.66-.381-3.01 1.4m138.9-19.31c-.74-1.381-2.33-1.021-3.78-.921m33.46.92-1.4 1.161m-83.56 1.801 2.01-.1m427.97-28.496c-2.17-.26-2.09.94-2.03 2.141 0 .08-.16.2-.28.22-.18.04-.38 0-.57 0M283.52 87.177c-.79.54-1.59 1.081-2.36 1.621.62 1.14 1.15 2.101 1.67 3.062m17.14-4.523c-.32-.76-.59-1.54-.99-2.261-.06-.1-.72.08-1.1.14m52.8 1.601c.1.22.21.46.39.84-.27.2-.6.42-.92.66M275.62 92c1.05-.32 2.09-.64 3.41-1.04-.08.64-.14 1.2-.21 1.76m131.37-20.391c-.43-.4-.86-.8-1.59-1.46-.41 1.82-.73 3.241-1.07 4.762.34.08.85.22 1.68.44-.65.48-1.07.8-1.56 1.16.62.24 1.22.481 1.81.721m18.71-.1c-.17.26-.34.52-.88 1.38 1.32-.26 2.27-.4 3.19-.64 1.06-.28 2.1-.66 3.15-1m39.42.02-1.96 2.561m-243.04 26.555c.89.6 1.81 1.161 3.2.66m-37.44 7.925c.77.02 1.54.04 2.89.08-.04-.84-.07-1.561-.11-2.261M646.85 58.18l-2.01.98m8.34-1.02-1.43 2.422m11.22 7.604-2.3.74m26.73.78-.35-1.4.47.04 3.04 4.983m-202.72-4.763c.14.54.28 1.1.58 2.221-1.19-.84-1.89-1.36-2.8-2.001-.32.4-.62.8-.92 1.18m-.72 7.525-.26 1.7m-107.97 8.445.05 1.681m-139.79 14.648.93 1.541m241.69-36.98-.54 1.5m60.4-1.14c-.84-.08-1.68-.14-2.94-.26l.94 1.801m-6.99-6.364 1.359-.36.321.66-1.951.921-1.709.8m-104.13 16.33-.83 1.28m-48.82 3.922c-.78 1.101.07.961.89.861m-56.01 4.723.68 3.041m-134.69 20.071c.2.601.39 1.221.5 1.541.86-.06 1.51-.1 2.17-.14m241.08-44.184-3.01-.9.39-.541c.69.86.53.92.98 2.301.3.92 1.13 1.661 1.73 2.502m103.7-8.885-2.26-.42-.39.46.65 1.02m13.22-.42-.62 1.1-.37-.04c0-.42-.011-.82-.021-1.3-2.51.48-1.039 1.16-.229 1.96-.59.22-1.1.421-1.61.621m154.07-2.661-3.45 3.322m-204.73-2.742c.78-.34 1.56-.66 2.35-1 1.09.76 2.3 1.62 3.54 2.5-.18 1.081-.4 2.382-.63 3.683m88.48-9.145 2.04 3.041M242.28 95.181l-1.66 1.72m415.45-30.136-2.31 3.282-.56-.12v-1.221m-451.35 45.865c.28-2.301-1.93-2.541-3.77-3.321.3-.461.63-.961.96-1.461m-47.03 12.927c-1.32.64-2.65 1.301-4.23 2.061-.36-.18-.89-.46-1.37-.7-1.42.74-1.22 1.4-.58 2.081m276.29-48.467 2.38 3.142m-85.48 1.88c1.7-1.54-1.389-.46-.349-1.72.36-.24 1.269-.88 2.549-1.761l.07 2.241m159.45-16.409c.49.36.9.84 1.48 1.08.59.24 1.33.26 2 .38m-23.58 1.582-1.55.46c.28-.88.51-1.621.75-2.382 1.15.3 2.11.54 3.08.78m-102.37 17.25c-.33-.32-.67-.64-.99-.96-.56.42-.93.7-1.31.98l.13.52 3.6-.92m-190.55 23.954-1.1 1.16m91.6-17.93c-.36.2-.56.32-.66.38-.44.901-.71 1.481-.98 2.042m-56.34 5.303c-.9 1.3-2.06 1.62-3.42 1.1m119.74-14.148.37 2.602m159.38-14.288-.02-1.2.84.02-1.05 4.802m-92.08-.7c-.59-.42-1.17-.84-1.79-1.281-1.03 1.12-.55 1.921.38 2.641m-42.45 5.944c-.18-.22-.36-.46-.55-.7.23-.16.52-.36.99-.661.2.6.39 1.14.62 1.84.88 0 2.33-.26 1.88 1.342m8.52-3.922-5.8-1.481m91.06-8.545c-.48.2-.95.4-1.32.54-.31 1.28-.6 2.502-.9 3.702m222.74-14.168c-2.06.98-.16 2.242-.29 3.362M351.62 79.972c-.66-.2-1.32-.38-2.04-.6-.01-.36-.03-.84-.04-1.32m41.29 2.88c-.07-.24-.14-.48-.21-.7-1.41.28-2.74.56-4.63.94.32-.92.54-1.56.75-2.18m-7.45 1.5 1.75.78m-17.23 1.762c-.27-.16-.54-.3-.98-.54-.29.4-.51.7-.73 1m-174.53 22.092c-.45.641-.91 1.301-1.49 2.122-.36-.521-.67-.981-.98-1.441l-.39.12c.02.4-.08 1.121.08 1.141 1.47.16 1.49 1.16 1.53 2.161m217.4-31.117 1.53 3.441m-166.53 17.87-2.78 2.382m405.74-43.324c-.15 1.6-1.18 1.28-2.45.42l-.55.44.71 2.541m-63.23 6.564c-1.48.14-1.66 3.182-4.17.98l-.38.52.56 1.522m-102.18-3.922c-.43.3-.85.6-1.25.9.54 1.12 1 2.041 1.61 3.282.78-1.06 1.38-1.881 1.97-2.682m25.7 5.364 1.73.36m98.84-4.923-.85 1.44m18.08-4.942 2.03 2.601m-45.74-3.001c.38.24.75.48 1.14.72-1.01.98-3.66.8-3.12 2.942m63.52-1.701c-1.61 1.5-1.61 1.78 0 2.161m-245 4.382-.81-.46-.53.4 1.67 1.701m-26.77.9c.59.621 2.33-.22 2.34 1.161m-93.95 17.75-1.69.98m19.18-3.641 2.04.64m-37.88 4.723c.76.28 1.52.58 2.6 1q-.66.721-1.35 1.441m108.03-17.71-1.68 1.421m176.29-20.07c-.38 0-.77.04-1.4.08.93.62-2.19 1.8.57 2.14M332.25 87.216c2.21-.98 2.83.7 4.08 1.381M678.5 64.564l1.72 1.22M491.77 79.112l1.73.36m-195.37 20.652-2.01.3m-33.22-9.146c-1.55 1.241.6.64.62 1.101m325.02-21.512 2.01-.08m-125.8 8.685c.01.62.02 1.24.05 2.261-1.58-.9-4.06.7-4.35-1.68m-321.49 36.219 2.05.521m119.37-16.449c-1.27 2.841-1.06 3.121 1.83 2.601m54.72-17.23-1.75-.48m22.39-2.821c-1.38-1.141-2.65.5-4.02.58-1.12.06-2.28.58-3.42.9m274.21-13.707-.84 2.881m-120.22-2.04-1.38.56.56.74c.65-.7 1.31-1.4 2.28-2.461.72.84 1.37 1.6 2.02 2.341m84.46-8.885c.8.2 1.61.42 2.42.62-.26 1.141-.46 2.041-.66 2.922m100.06-3.302c.96.4 1.92.8 2.88 1.22.04 0 .21-.14.27-.22.04-.06 0-.16 0-.24m-198.47 1.381c-.47.36-.95.72-.99.74-.19.841-.3 1.301-.41 1.762M161.35 113.15c.54.42 1.08.84 2.23 1.721l.67-1.561m17.65 6.663c.14-.62.29-1.22.46-1.981.89.521 1.5.881 2.1 1.241m210.77-35.18c-3.49-.2-4.52-.14-5.75.38m135.25-12.226c-.99-.14-1.82-.36-.39-1.6l2.45 4.862m3.12-2.802c-.74.44-1.47.86-2.55 1.501 1.72.28 2.89.48 4.15.68-.17.48-.29.801-.4 1.121m-107.12 7.324c-.7.42-1.39.84-2.29 1.36-.1-.1-.34-.36-.57-.62M639.7 71.929c-.46.5-.92 1-1.06 1.14-1.26.14-2.11.22-2.96.32m-480.82 48.527.37 1.601m214.79-44.865c-.53.78-1.06 1.561-1.65 2.422-1.87-.7-3.2-1.3-2.53-3.262-.63-.3-1.42-.66-2.21-1.02m-121.7 23.993-2.01.1m11.13-2.822c-.97 1.421-.72 3.242-2.71 4.303l.6.62m-16.46 6.123.07 1.681m92.98-17.83c-.51 1.021-.57 1.041-2.03.5.49-.3.96-.6 1.44-.9M557.1 61.682l-2.01.36m76.86 11.627c-.65-.58.22-2.162-1.73-1.881m-96.71-9.625.88 1.16m-332.32 43.484.94 1.521m343-35.28-1.51.56-.28-.44 1.5-.34m-346.48 35.22.63 1.1m487.26-44.504c-.29.4-.59.78-.98 1.3 2.64.72 3.49 2.742 4.71 4.483m-410.4 27.335c-.36.62-.68 1.24-1.1 1.841-.17.24-.54.42-.82.62m82.62-19.27c.34.82-.62 2 .65 2.561m38.2-3.822c-.25 1.3-.52 2.622-.76 3.922-.21 1.18.4 1.841 1.77 1.961m-77.95 2.662c.99.68 2.25 1.28.96 2.761M618.7 67.225l-1.14 1.24M500.9 74.67l3.16.28m165.81-12.106.41 1.34-.61.14-.37-1.24m-442.73 42.924 1.02-1.361.74.22-1.13 2.241m-36.02 1.441.53-1.06.72-.12-.07 1.7m195.87-28.335c-.1-.3-.22-.9-.31-.88-1.31.16-2.97-.24-3.41 1.54M141.37 112.61l-1.69.841m-.11 8.965c-.29 1.821 1.76 1.601 2.72 2.321m497.68-59.553c-.26-.18-.53-.36-.81-.56q-.65 1.08.53 1.52M140.1 116.013c.39.16 1.14.26 1.13.48-.1 1.721-.34 3.462-.54 5.183M318.11 94.94l-.24 1.481m-199.91 22.113q-.35.76 1.49.9m229.02-29.456-2.12-.26-.23.58.96 1.06-2.54 1.742m-40.46-3.683c-.19.18-.4.54-.55.54-3.57-.1-4.67 2.062-5.63 4.403-.13.3-.54.56-.81.86m-74.84 10.807c-.39-.1-.78-.18-1.23-.301-.05.521-.1 1.021-.16 1.501m388.59-47.966c-.78-.52-1.54-.92-2.01.28m-475.06 63.675-1.55 3.462m562.03-55.991c-.09 1.34.76.74 1.44.5m-488.79 35 .65 1.561m-39.25.94c.2.681.4 1.381.61 2.101 1.1-.86 1.43 1.721 2.67-.1m350.76-41.163c.04.32.07.64.05.48 1.5-.08 2.74-.14 3.98-.22m-384.44 54.591-.74 2.581m103.24-27.315-.75 2.762m98.23-17.95c-1.08-1.121-2.36-.92-3.75 0m214.9-19.851-1.73-.16m130.28 4.462c.54 1.961 2.98 1.32 4.31 2.201M371.97 86.116c.55-.16 1.09-.32 2.08-.6l-.8 1.88c1.12-.04 2.07-.08 3.03-.1l.07-.48c.38.36.76.74 1.01.98 1.5.14 2.83.28 4.17.4m-54.97 1.241c.26-.44.53-.88.71-1.18.67.04 1.26.08 1.85.12m-177.6 30.337.64 1.32m16.13-6.803c-.06.24-.13.46-.32 1.16.68-.62.94-.86 1.19-1.1M653.2 70.147c-.19.48-.23 1.08-.61 1.42-.64.581-1.5 1.001-2.26 1.482m-465.42 37.4c-.5-.04-.99-.06-1.84-.12.65-.56 1.07-.9 1.21-1.02.78.14 1.41.26 2.03.38m165.83-31.478c1 1 2 1.981 3.1 3.082 2.34-1.46 4.9-2.121 7.61-1.5M291 86.515l-.79 2.041m223-17.33c.77-.12 1.54-.36 2.29-.36.96 0 2.34-.7 2.6.76m-308.87 33.879c1.93.261 2.85 1.521 3.87 2.662M421.52 76.55c-1.04.8-2.08 1.601-3.09 2.382.62 1.16 1.06 2 1.49 2.821m214-19.89-3.16 1.28m-70.77-.14c-.05 2.761.6 3.282 3.19 2.521M256.76 96.382l2.87-.24m-62.24 15.628-.5 1.541m419.23-44.825-1.44.52.3 1.42m-56.92.101-4.02.2M382.05 86.216c.28-.12.56-.24.86-.32.07 0 .19.12.29.2l-.85.34m-92.52 15.188c0-.24-.02-.48-.03-.92-1.73.58-3.43 1.14-5.12 1.721m247.51-31.318.88 1.401m-51.16 2.001 2.88.24m147.71-8.044c.73-.32 1.45-.64 1.99-.86 1.72.4 1.79 2.801 4.05 1.76M345.25 88.217c-.4.5-.81.98-1.48 1.8-.38-.72-.6-1.12-.81-1.52m-31.22-2.541c-.75.2-1.9 1.74-2.03-.2m-7.37 11.366c.36-.96.72-1.921 1.11-2.982.91.7 1.6 1.24 2.3 1.781M564.3 61.882c.04.48.08.96.16 1.961-.81-.94-1.28-1.5-1.76-2.04-.21.1-.6.26-.99.42M251.62 97.721c.66-.26 1.33-.52 2.11-.84-.49-.32-.93-.62-1.7-1.141.06.54.09.86.13 1.16M434.12 73.69c.88.72 1.8 1.4 2.62 2.16.49.461.81 1.041 1.2 1.562-.26.1-.52.18-1.05.36.27-.44.37-.62.47-.78M129.54 129.6l-1.71.36m462.16-57.232.01 1.921m-205.39.22 2.61.68m174.51-11.405 3.161 1.84.359-.84-1.5-.12m53.49-1.841c-1.91.58-2.76-.3-3.34-1.661-1.55.22-3.11.44-4.71.66l-.89-2.901M226.22 97.882l-.85.38-.02.4 1.19-.12m250.25-20.751-1.09 2.982m212.29-19.01c0 .56.24 1.24-.05 1.66-.76 1.1-.78 1.961.62 2.662m-92.31-1.741c.39.22.77.46 1.32.78-.43.4-.84.78-1.24 1.16-.53-.28-1-.52-1.71-.88-.03.66-.05 1.14-.07 1.641m-53.75 2.682c-.43-.24-.87-.5-1.71-.981-.11 1.6-.22 3.142-.33 4.743 1.04-.24 1.99-.48 2.95-.7m128.45-4.903c.48 0 .96.02 1.44 0 .39-.02.77-.14 1.15-.22m14.1-7.585c1.66.9.52 1.761 0 2.642m-490.47 45.845.42 2.822m7.41-8.345c-.23-.24-.46-.48-.83-.841-.44 1.161-.77 2.022-1.1 2.882m15.98-4.362 1.74.18m75.23-1.08-2.01.08m-41.79 7.243-1.78-1.14m-55.78 4.462c-.76.14-1.53.28-2.58.46l.07 1.441m152.63-27.615c-2.02-1.861-3.67.22-5.45.92m-81.05 7.445.34 1.38m-26.16 9.205c-.11-.22-.21-.44-.34-.7l-3.08 1.761m86.54-14.188-.52 1.761m-91.58 17.23c.7.98 1.55 1.961-.74 2.781M499.9 66.565c1.34 2.701-1.85.72-2.28 1.58M395.81 73.41c-.29-.2-.59-.42-.97-.68-.75 1.2-.56 3.04-3 3.04m-.52 2.222.04 1.44-.59-.66m149.38-15.028c0-.56-.01-1.12-.03-2.181-1.15.38-1.87.62-2.58.86m163.09 7.124c.68.14 1.36.28 2.32.46.27-.34.66-.8 1.05-1.28l-.64-.5-1.59 1.32M326.44 94.28c.56-.18 1.12-.36 1.91-.6.16.62.3 1.18.44 1.74M211.8 111.31c-.25.96-2.78 1.641-.73 3.041-.03-.72-.05-1.2-.08-1.681m239.42-31.337c.3.12 4.07.42 4.61.36.94-1.82 1.27.54 2.02.06.18-.24.36-.5.55-.76m-20.86-6.344c.96.24 1.92.48 3.57.9-.22-1.42-.39-2.52-.64-4.082 1.1.38 2.05.7 3.01 1.021l-.28.56-1.68-.24.56-.78m-171.24 17.21 1.46.26m312.46-17.75c1.77 1.66 2.14 1.7 3.16.36M333.88 92.999l-1.11 1.121m169.02-17.35c.13.4.26.8.44 1.361l-.93.7c-.14-.34-.25-.56-.35-.8m-262.09 18.21.36 1.861m268.69-34.7.87.421-.86.54m-29.95 14.789-3.45.02m106.56-6.124c-.96-.36-2.11-1.2-2.83-.96-.72.22-1 1.5-1.47 2.321m-360.6 38.041-4.83 1.601m227.3-43.684.32 1.18m-44.54 14.769c1.24 1.56 3.42.88 5.21 1.12m65.75-19.07 3.18.7m19.46 10.046 2.02.1M254.7 95.52c-.47.16-.95.34-2.03.72.3-1.2.54-2.18.78-3.141m-30.95 18.67-1.42.5M357.6 77.55l2.59-.08m-144.9 34.42 4.09 1.181m276.16-49.108-2.27 2.081M310.62 95.021c.69.46 1.37.94 2.18 1.48-.74.5-1.47.98-2.2 1.461l.17.52 5.4-1.36m58.99-20.271 4.63 1.42.37-.54.89 1.6c.32-.18.7-.38 1.08-.58M152.67 112.93l2.36.981m460.75-55.27c1.58.34 3.46.36 3.46 2.32m-428.8 44.105c.49.24 1.03.741 1.47.62.6-.16 1.13-.78 1.68-1.2m334.47-41.103 2.64 3.962M153.12 110.43c.59.46 1.18.901 1.86 1.441l2.47-1.561m468.13-48.027c.77-.1 1.54-.16 2.3-.3 1.16-.26 2.3-.52 3.45-.78m-63.55 3.682c1.35.52 2.69 1.02 3.94 1.5.18-1.18.36-2.38.61-3.982-.82.54-1.43.92-2.27 1.461 1.22.4 2.2.74 3.18 1.06m115.9.221c.16-.4.32-.82.73-1.841.93 1.02 1.54 1.68 2.15 2.341m-554.06 48.167-1.09 1.201m-7.95 2.901 1.16-.02M375.4 75.39l-1.1 1.8m-58.51 9.166-.32 1.28h-.86l.54-3.361M250.34 94.8c-.17.7-.35 1.381-.58 2.322-.94-.36-1.59-.62-2.24-.88m340.11-30.377c-1.2 1-1.44 2.14-.84 3.401m64.4.42c.13-.88.26-1.76.41-2.801-.76-.46-1.53-.94-2.29-1.4v-1.401c-1.57.48-2.71.82-3.3 1v2.742m-217.44 2.3-1.71.881m-52.1 12.147c.43-.54.87-1.1 1.29-1.62 1.07.08 2.03.14 2.99.2m60.24-9.246c-.21.24-.43.48-.78.88.44.22.77.38 1.1.54m-19.63-1.78L418 74.009m155.77-14.148c.19.24.45.44.57.7.42.861.79 1.721 1.19 2.602m-444.68 58.432 1.22 1.201m262.16-43.925c.76-.18 1.53-.34 1.98-.44.67.64 1.24 1.18 1.8 1.721m224.11-19.23c1.41-2.102 1.78-2.202 3.16-.78m6.9-.401c.19-.32.38-.64.49-.84l3.54 1.5m-519.64 64.456.06 1.201m572.789-60.914.541 1.54-.94.141.12-1.44m-543.96 53.669c-.2-.2-.48-.6-.6-.56-.93.38-1.82.86-2.83 1.34 0 .181.03.661.06 1.141m95.89-18.03-3.47-.14m-61.03 4.402 1.01.38-.27.481-1.29-.28m106.61-18.77-3.73.58M433.88 75.63l-2.54 2.161M219.6 104.826c-.28.14-.56.26-.92.44l1.32 2.141m184.04-27.675-2.6-.2m17.07-8.225-4.84 2.142m201-6.124c-1.44-1.32-1.85-1.26-3.19.3-.3.36-.93.52-1.41.76m-399.25 40.203.54-1.06-2.63-.481m9.47-1.24c-.55.58-1.1 1.16-1.8 1.901.55.86 1.13 1.781 1.71 2.701m273.54-38.021-1.44-.14m61.22-3.542c-.07.86.73 2.101-1.41 2.001m13.77-2.561-1.72.54m-43.48-3.322.6 1.881M407.24 81.073c-1.18-1.52-2.93-.88-4.62-.46m166-17.69c-.83.34-1.66.66-2.93 1.16.69.54.98.78 1.8 1.421-.01-1.02-.01-1.42-.02-1.84m-262.7 28.795.33 1.14m322.49-32.077-2.02-1.16c-.86.44-1.72.88-2.69 1.38 1.9 1.681 2.27.2 2.98-.42m58.39 4.502-1.78.18-.01.58 2.07.201M421.84 77.971l-1.67 2.081m42.48-4.742-.53 2.2m-210.34 24.274-1.43.24m414.63-39.882q1.12 1.16-.78 2.842c.09-1.18.15-1.881.21-2.601M258.94 93.36l.93 1.54m81.61-7.424-2.54 1.521m231.97-28.075c.29-.1.57-.18 1.3-.42-.17.74-.3 1.28-.42 1.82m8.9-1.74 1.74 1.38m68.76 5.323-2.3 1.701m-502.75 52.029c-.38.6-.76 1.201-1.05 1.641-1.31.4-.78-2.461-2.64-.38m64.36-12.947.17 1.42c-.67.12-1.25.22-1.82.34m399.17-43.303-3.73 1.02m-439.27 49.668.63 1.08m42.5-11.006.46 3.782m96.99-19.01c-.28-.3-.55-.58-.95-1.02-.28.84-.5 1.52-.71 2.16.95.04 1.91.08 2.87.14m49.31-7.043.04 1.2m261.89-26.955 3.74-.32m-198.2 19.31 3.14-.78m221.81-18.69c.53 1.12.49 2.121-.83 2.922-.12.08.16.6.26.92m3.44-3.862 1.73.7m-81.99 0-2.01-.16m19.05 7.725-3.16.36m4.6-.16c1.89-1.221.7.9 1.44.9m-452.1 52.649c-.18.281-.36.561-.66 1.041 1.43.08 2.8.14 4.18.22 1.06-.66 2.08-1.301 3.09-1.941m33.13-13.628-2.54 1.221m236.71-31.778c-.55.94-1.01 1.921-1.69 2.802-.37.48-1.1.78-1.66 1.16m136.71-10.865.87 1.16m-325.1 35.96 2.39 1.741m76.4-14.468c-.58.08-1.15.18-1.92.3.25-.72.4-1.14.71-2.02.57.7.89 1.1 1.2 1.48m369.32-26.595c-.96-.08-1.91-.16-2.89-.24-.29.42-.57.82-.85 1.24m-423.99 35.801c-1.04.32-2.34-1.101-3.14.76m370.8-37.26-3.73 1.04m12.31-9.626c1.03-.92 1.71-.8 2.02.44m48.04 8.085c-.16 1.461-1.18 2.222-2.87 2.422m-148.69-5.123c-.19-.14-.39-.3-.69-.52-.16.22-.31.4-.46.6m42.51-5.643c.9 1.22-.63 2.941.91 4.042M342.44 90.478l.34 1.64m136.94-11.666c-.54-.74-1.09-1.46-1.93-2.601 1.58-.2 2.74-.34 3.9-.48l-.23-.68-1.8.64m77.85-4.123c-.81-.12-1.61-.26-2.48-.38.94-1.14 1.48-.92 1.9-.06m111.5-4.402c-.73.32-1.46.62-2.36 1 .95 1.041 1.66 1.821 2.37 2.602.04.04.2.04.28 0 .11-.06.2-.16.29-.24m-239.07 7.644c-.65 1.02.6 2.781-1.94 3.062M297.4 95.88c1.63.68 3.93.14 5.22 1.441.22.22.23.6.34.9m379.86-36.98c.12.4.25.78.38 1.2h-1.53M571.02 72.688l2.87-.82m-15.591-6.144-4.029-.04m104.68 2.982 4.02 2.381m-242.44.08c.02 1.061-.13 2.202 1.5 2.502m-4.68 9.085 3.15-.78m-233.43 25.193 2.06.841m102.29-9.966c-.51 1.501-1.52.42-2.29.58-.38.08-.77-.02-1.15-.04m44.13-6.983c-.51 1.22-3.04 2.401-.39 3.902-.72.1-1.1.16-1.49.2M536.4 63.203c.68.4-.14 1.8 1.46 1.6m-92.65 15.53 2.88.22m123.41-18.21-1.45-.18m10.93-.881-.85 1.24M204.94 112.79l.43 1.181.61-.32-.76-1.141m43.25-7.044-2.24 1.581m190.06-26.595c-.28.26-.56.54-1.13 1.061 1.25.22 2.36.44 3.47.64m-170.37 20.592-2.43.84-.36.761 1.42.3m-66.73 10.706 2.63.74m66.17-24.773.89-1.782-.47-.3-1.3 1.741m56.77-9.725-3.42 1.2m-91.19 21.492.9.821m462.32-45.125c-1.05-.12-2.09-.24-3.34-.38.14-.26.3-.54.55-1-.46-.04-.85-.06-1.24-.1m-455.95 47.405-2.85.721m-16.51-7.704-.53 1.06m-3.88 10.126.13 2.861m77.68-18.85c-.28.28-.54.58-.84.84-.55.48-1.11.98-1.67 1.461m244.27-27.235-.85.78m95.47 2.782 1.44.68m-151.87-3.682c2.21 1.601-.61 1.24-1.12 1.781m181.42-4.882-.86-.72m-495.87 53.729.33.901m246.82-34.72c.99 1.361 1.95 1.341 2.87-.32m189.77-20.611-1.46-2.342m7.48-.18.87.7m-146.41 4.823c-.38-.14-.76-.28-1.1-.4-.22.36-.42.7-.62 1.02M341.31 91.1l-.26 1m317.03-30.857.58.94m-1.16-3.822v.96m-464.01 43.025.36 1.621m11.12-3.222c-.71.44-1.41.9-2.34 1.481-.02 0-.26-.241-.5-.481m105.45-2.941-2.3.08M547.49 76.35l-1.15-.42m-378.17 46.506 1.14-.24.01-.241-1.45.281m461.18-55.231-2.01.78m-25.07-8.364 2.31.44m-3.94 14.008 1.15.22m-142.97-3.742-.56 1.02m72.54 2.222.01.96m-27.65-3.122-.93-1.74c-1.18.64-.16 2.42-2.22 2.18m-350.53 46.346 1.13-.24.06.721-1.73.36m199.5-39.862c.39.04.77.06 1.28.1-.25.28-.46.54-.68.78M244.1 97.282l-2.29.64m-86.31 19.511c-.68.22-1.36.42-2.03.64.18.841.3 1.461.43 2.081m233.59-34.779c-.2.34-.39.68-.68 1.16.35.161.68.321 1.02.481m122.43-20.391-.56.74m22.99-2.04.58.92m30.47-2.422-.28.98m-2.57 1.522c-.45.58-.9 1.18-1.65 2.18.85.08 1.55.141 2.25.201m-419.01 54.05 2.92.6M256.05 93.12l-.84.68c.04 1.06.08 1.941.11 2.802M376.34 77.93l-2.22 2.882m-69.33 4.182c.36.82-1.27 2.742 1.52 2.201m367.59-19.07.57.98M473.7 66.505l-.29.52-.57-.22M316.85 91.739c1.04-.18 2.29-.64 2.05.92m366.22-32.598c-.19.56-.39 1.12-.59 1.701 1.05.56 2.11 1.12 3.17 1.681m-548.12 53.65-.23 1.02m16.8-4.902-2.53 1.46m439.51-44.925-1.14 1.001.58.94m-375.48 28.777-.9-.8-1.43.26m134.77-12.968-.84.82m-17.33-1.4-.25 1m-42.66.48.94 2.022m35.28-5.463-1.91 3.381m190.17-16.068-2.28 1.36m-94.13-.86-1.15.1m81.05-6.984-1.15.08-.14.3 1.3.34c.55-1.3 1.54-1.04 2.58-.64m30.23.54c-.78.4-2.14.1-2.28 1.321m123.37 1.2 4.02.461m-145.13 4.943c-.39.26-.78.5-1.42.94.73.1 1.23.18 1.73.24M270.79 93.7c-.18.341-.36.701-.51.981.49.2.96.38 1.43.56m86.56-14.407-.81 1.78m156.34-9.985-.56 1m181.37-13.967.86 1.44.87-.46m-527.1 48.307h1.16m58.14-10.986-1.43.48m78-12.546 2.3-.3m45.63-6.284c-.6.42-1.2.86-1.62 1.16-.33 1.301 2.6-.3 1.42 1.521m13.42-4.082 1.45.32m13.49-1.54-1.15-.12m233.19-8.986.31.46c-.21.1-.41.18-.6.26m9.77-1.16c.86.3 1.72.62 2.98 1.06-.16-.76-.28-1.3-.4-1.84m-401.57 40.602c.29.04.58.06 1.09.12-.5.42-.91.781-1.32 1.121m-27.2-1.301.62.841m397.3-46.446-2.02.3m-462.29 64.056-.82.9m43.6-18.05-2.84 1.041m307.46-34.68c.28.3.56.62 1.05 1.14.28-.64.47-1.08.66-1.52m-312.17 44.585.38 1.841m511.84-50.808-1.15-.5M426.99 76.53c-.19.34-.37.68-.61 1.1-.28-.16-.55-.32-.82-.48m71.52-7.283c-.32.56-.65 1.12-1.02 1.76-.67.1-1.53.24-2.4.38M303.02 91.98l-1.14.38m325.44-26.755-1.15-.44M481.08 76.49c.08-1.04.18-2.1.18-3.141 0-.08-.72-.1-1.1-.16m88.55-1.621-1.15.52m60.33-7.444 1.15.44m-251.43 16.79.04 1.68m221.21-16.389-4.23.72-.14-.4 1.2-.96m53.47-6.444c.3.74.6 1.501.86 2.161.39 0 .52.02.57 0 .05-.04-.03-.18.02-.22.17-.18.38-.32.57-.48M331.55 92.12c-.29-.2-.59-.4-1.09-.74.26-.28.53-.58.72-.78.91.26 1.49.42 2.07.58m213.91-18.891 1.16.9m-401.06 47.107-.32-.661c-.18.2-.55.481-.51.581.11.32.38.58.59.84m236.94-38.662-1.95 2.382m-245.37 36.8c1 1.281.14 2.562-.96 3.822m381.9-50.127-1.14.32m49.98-2.982L565 74.35m-440.37 49.768.97 1.981.66-.28-.74-1.161m2.58-.54.9.78m27.9-2.661.38 1.861c-.56.36-1.12.7-2 1.26.11-.6.19-1 .26-1.4m274.34-46.746-1.4.44-.09-.54 1.78-.16m-197.74 30.977c-.02.32-.04.66-.06 1.22-.52-.26-.79-.4-1.06-.54m169.23-30.417-1.16-.36m135.15-3.482-1.14.54m93.95-4.002.01 1.921m-333.9 17.67-2.8 2.341m-73.03 19.611c-.02-.56-.05-1.12-.07-1.621 1.05-.12 1.82-.2 2.58-.28m-34.44 4.102 2.34-.18.07.441-1.22.48M505.23 75.83l2.02.84m29.87-2.2c-.33.2-.65.42-1.7 1.08.89.36 1.45.58 2.01.82m-377.72 38.562.62.84M605.2 70.167c1.35.44 2.7.88 4.02 1.3-.1.46-.19.861-.27 1.261m-416.19 32.638c1.61 1.961 1.62 1.981 1.02 3.182m-28.83 7.264-3.88.1-.44-.9-.84 1.58m349.87-51.368-1.4 2.261c-.1-.08-.25-.14-.28-.22-.05-.14-.02-.32-.02-.48m80.51-4.563c-.03.4-.06.8-.09 1.221-.19.06-.48.16-.77.24m-3.66 9.025-1.14.52m-321.8 28.456-1.13.681m77.93-12.747-1.14.38m15.08-5.964.02.961.86-.34m45.25-9.305.9 1.58m50.48 4.503-2.29.66m-251.32 23.233-1.1 1.161.11.4c1.11-.38 2.22-.74 3.34-1.12.19-.661.33-1.161.54-1.901-.91-.2-1.84-.421-3-.681.19.821.28 1.221.37 1.601m6.03-.841.67 2.042m296.2-35.5-.54 1.72m-51.45 2.923.05 2.16M294.35 91.54c-.49-1.28-.8-2.502 1.62-2.902m-68.66 7.604c-1.77.86-.57 1.501-.19 2.201m85.67-15.528-.56.56m9.7 5.163-.23 1.721m223.02-28.996-.86.04m-308.35 44.325-.88-.341m366.19-46.425-.57.5m48.91 3.262c.68.56 1.35 1.1 2.17 1.76-.5.14-.9.26-1.31.38M310.49 83.235l.32.68m188.75-20.21.3.7m149.3-6.244.57.48m27.05-.56-.29.7M208.57 109.97c-.09.18-.19.36-.26.54-.03.08 0 .16 0 .24m171.73-24.313c.23.2.45.4.69.6l1.61-.62M280.83 99.863l.03.961m401.38-37.18c0 .16.03.32-.01.48-.03.1-.18.16-.28.24m-255.41 5.222.03 1.441m-273.73 45.246.32.66.25-.781m28.32-5.803.32.661m385.97-50.469-.28.74M317.7 83.195l.88.38M621 66.704l.57.461m-448.63 46.606-.87-.08m335-48.547-.02-1.2-.64-.1-.78 1.4m-271.24 41.383 1.48.961m448.39-48.487.28.72M334.76 84.455c0 .24.12.52 0 .72-.31.54-.71 1.06-1.08 1.6m-165.39 32.259.41 2.561m437.88-61.314-.86-.22M427.44 71.187c0 .16.04.32 0 .48-.03.1-.18.18-.27.26M246.3 101.745c-.21.26-.42.521-.61.741.26.36.47.64.68.94m215.19-25.134.86-.08m-165.05 9.005-.86.14m104.91-8.784-.39 1.06-.58-.16.67-1.34m-255.47 44.444.37 1.621m331.56-50.308 3.17.22m136.52-4.203-.85.5m-291.35 17.55-.85.36m360.03-20.57-.58.46M668.43 60.2l.87.72M159.54 111.57l-.86.18m28.06-5.523-.86.16M664.7 66.945l-.87-.46m-128.86-2.722c.1.16.23.3.28.46.02.06-.17.16-.27.26m110.44-4.122-2.3.72M479.34 75.43l1.15-.1-.3-.68m-323.05 41.022-2.38 4.323m166.73-35.62.86-.12m44.79-5.724-.86.34m118.2-5.302 1.72-.82-.58-.501 1.72.18m-292.73 41.523c-.2-.12-.4-.24-.89-.56-.18.88-.33 1.561-.47 2.261m495.61-55.07v1.2M171.58 109.45l.66 1.8M162 114.471l-.54.821m-36.53 3.702.6.36m42.08-2.361.6.36m167.07-34.4 1.49 1.482m-10.14 6.924c.13.2.27.42.7 1.08-1.05-.56-1.59-.84-2.14-1.12m370.86-29.977.28.74m-479.77 39.442-.55.581M612.1 70.007l1.15.22m-392.76 35.159c-.2-.2-.4-.4-.8-.82.76-.14 1.33-.24 1.91-.34m115.25-17.39c-.09.18-.21.34-.25.52-.01.06.18.14.28.2m-183.02 26.095-.53.841m342.61-43.825c-1.54-.7-.6.5-.85.78M377.5 78.291l-.85.32m-223.19 38.502.61.6m140.8-27.935.87.34M169.12 112.35c-.14-.38-.27-.78-.41-1.18-.48.34-.76.54-1.05.74M387.9 79.072c-.37-.3-.74-.62-1.33-1.1h-1.87m65.29-2.622-.86.32M323.09 88.957c-.09.18-.21.34-.25.52-.01.06.18.14.28.2M311.73 93.9l.6.64m-53.67 6.104c-.29.2-.58.38-.95.64.57.34 1.08.641 1.59.941m174.24-28.716-.87-.4m253.59-6.804-.82.82-.9-1.54h1.15M280.91 94.32l-.56.56m-53.33 8.165.6.38m66.04-7.204-.85.36M591.4 69.326l.58.7m-118.34 8.265-.86.06m-92.35 1.541-.85.34m213.001-6.863c.36-.42.719-.86 1.139-1.361-.43-.1-.89-.2-1.99-.46.68.66.9.86 1.12 1.08m27.02-1.58 2.01.92.86-.5m23.57-.56h.86m-124.52-2.922.31 1.42M409.68 75.03l.59.66m133.7-5.402-.57.5m129.061 1.42-1.731-.98M226.15 109.45l-1.11 1.16M506.1 76.49l-1.41 1.541m114.03-6.483-.57.5m-72.74-1.361c.48-.26.95-.52 1.57-.88.16.36.3.68.44 1.02M228.16 109.35l.89.58m19.37-12.647-.54.82m2.26-1.1.61.62m37.13-1.96-.56.56m350.65-24.775-.28 1.681m-41.73-9.965c-.09.16-.22.32-.27.5-.02.06.18.16.27.22M321.19 92.36l-.84.82m254.32-29.736-.57.74M441.25 83.354l.48-1.04.62-.5.61 1.14m262.29-19.37.86.5m-93.71 8.564.87.22m-250.09 17.95 1.75.74m-149.45 11.607.59.38m256.18-22.512c.22-.24.43-.48.65-.72-.38-.18-.67-.32-.96-.46m-257.06 29.215c-.09.181-.21.361-.25.541-.01.06.18.12.28.18m267.38-30.277c-.09.16-.2.34-.27.5-.03.08 0 .16 0 .24m147.9-11.326c-.1.16-.22.32-.27.48-.02.06.17.16.27.24m-4.87 3.942.86-.02M323.92 96.542l-.86.12m-54.12 1.401-.72-1.14c-.41.68-.7 1.16-.99 1.66l1.15-.18m319.26-31.577c.14.46.28.92.55 1.761.17-.44.25-.64.32-.84m49.16-1.341 5.47 4.282m-450.5 44.345c.01.24 0 .48.06.7 0 .02.36-.06.55-.1m272.92-36.76c-.76.12-1.53.24-2.25.36-.3-.42-.62-.86-.94-1.301m73.4-16.389.87.66-.34.82-.45-.1.21-.68M325.45 82.134l.04.96M192.1 115.852c-.95.561-1.9 1.101-2.93 1.701-.45-.04-1.03-.1-1.61-.16m90.16-15.849-.81 1.321m408.5-41.843c.14-.38.29-.78.56-1.481.16.38.23.58.31.78m-463.39 40.523 2.07 1.341m400.66-29.817.87.94m-502.03 47.707-1.4.78M526.22 76.45l.87.44m-24-8.604.02.96m137.161.26c.05.24.089.5.159.88-.06.08-.26.321-.45.561m-274.86 7.584c-.39.2-.78.38-1.46.72.68.12 1.08.18 1.48.241"/></svg>