<svg xmlns="http://www.w3.org/2000/svg" width="714" height="225" fill="none"><path stroke="#FEFEFE" stroke-linecap="round" stroke-linejoin="round" stroke-width="2" d="M711.103 5.258c.041 1.284.051 2.532.071 4.33-2.621 1.946-4.426 3.395-6.343 4.625l.765-1.633.285.55M393.174 134.338c-3.641 1.669-2.396 3.523-4.62 5.505-.295-.275-.622-.569-.948-.881m-110.104 30.315c-1.162.514-2.315 1.046-3.325 1.469 0 1.394 1.683 2.459-.948 3.725m329.82-40.023c-.591-.422-1.193-.863-1.591-1.138-2.223 1.028-4.028 1.908-5.996 2.771-.959 1.798.234 2.11 1.346 2.404 1.101.275 2.142.587.836 2.679 1.938.697 4.783-1.89 7.323-3.89m-392.898-23.563c-.133-1.009-.316-1.927-.51-2.954-2.488-2.111-4.13-4.203-5.915-6.405m217.718 7.23c.846-.495 1.682-1.009 3.059-1.835-2.376-1.101 2.417-4.679 2.009-6.808-.377.019-1.152.055-1.927.11l-.643.606.683 1.174M32.33 197.703c.387-.275.785-.514 1.183-.771l.091.367c-1.101 1.157-2.172 2.423-3.243 3.616a935 935 0 0 1-4.303 2.22 576 576 0 0 1-3.59 4.037c-.286.679-.572 1.34-.847 2.001m522.134-50.062-1.856-.422-.53.349 2.804 2.239.072-.588c1.835-.33 3.671-.642 5.629-.99.469.77.704 1.156.928 1.504M20.03 196.529c-1.948.917-3.753 2.624-5.446 5.046-.03.055-.275.129-.377.129-.061 0-.051-.11-.071-.184M442.31 95.25c-.194.66-.378 1.321-.653 2.276-.632.55-1.754 1.541-3.162 2.771-.785.293-2.039.77-3.192 1.211-.755-.716 2.703-4.515-2.396-1.835-.082 1.706-3.264 4.569-1.469 5.597m181.493 23.36c-1.265.367-2.519.753-4.1 1.212-.347.972-.612 1.725-.877 2.459m-392.603-11.029c.531.422 1.061.826 1.785 1.395.561 2.275 1.01 4.055 1.153 4.734l-1.714 2.037c-.061-.44-.173-.973-.285-1.542m351.808 15.856c-.143.367-.285.734-.591 1.504-.602-.422-.908-.697-1.336-1.027l-2.285 2.532m30.066-12.919c-.347-.863-.693-1.743-1.132-2.826-1.509 1.982-2.652 3.67-3.998 5.175-.469.532-1.356.972-2.06 1.468M60.304 173.847c-.949 1.138-1.897 2.257-2.978 3.542a405 405 0 0 0-2.427-1.67c-.643.789-1.224 1.578-1.826 2.349M704.036 10.506c-.357.293-.785.422-1.071.88-1.112 1.78-2.172 3.653-3.253 5.488M508.815 116.923c-1.397-.826-2.723-1.725-4.161-2.386.398.661.663 1.229.938 1.78m-346.474-6.111c.02.22.051.441.082.698-1.744.568-3.488-.679-4.722 1.064-.021 1.798-.041 3.083-.051 4.367l-.663.221.867 1.706m520.084-56.135c-.643.238-1.285.459-2.56.917.071 1.267.102 1.854.132 2.441M56.541 165.02c-.846.367-1.692.753-2.967 1.321-.663 1.597-1.255 3.102-1.846 4.607m568.823-50.355c.357-.808.714-1.615 1.132-2.551 1.071-.184 1.846-.312 2.631-.459v-.55l4.65-4.57m-501.9 12.681c2.336-1.615 4.661-3.083 4.518-5.12-.051-.624 1.581-2.019 2.468-3.083-1.917-.147-2.254 1.34-3.141 2.257m364.638-16.534-.367-1.413.989.826-1.03.825-.622-.513c.378 1.798.734 3.505 1.051 5.303m-145.187 51.621c-.071.569-.133 1.138-.214 1.817-.857.11-1.367.165-2.448.293.877-.844 1.571-1.504 2.264-2.165m187.867-6.606c-.438-.551-.867-1.083-1.244-1.56a31 31 0 0 1-3.988-.496c-2.254-1.651-3.957-3.908-6.751-5.303a44 44 0 0 1-1.663-3.689M183.9 107.325l.316-.771 1.183.606c1.857.183 4.661-1.523 6.415-.184.582.459 1.265.826 1.877 1.285m-31.779-.844c.48-.826.969-1.652 1.734-2.973-1.05.55-1.499.789-1.948 1.028-.041.018-.03.165.031.201.091.056.255.074.387.092m38.918 3.854c1.642 1.963 3.487 1.963 5.374 2.587m28.271 45.033c.438 1.413.928 2.643 1.468 3.946.571 1.211 1.306 2.239 2.234 2.954l1.397 1.395 1.448 1.193-.5.312a34.6 34.6 0 0 0 2.897 4.349c.907-.44 1.601-.917 2.366-1.395-.683-.458-1.204-.825-1.652-1.119-.429-.349-.775-.624-1.132-.918m224.724-65.494c-1.346-.275-2.692-.404-4.283-.606-.03.276-.061.569-.102.881m-56.867 16.186c.877-.33 1.734-.569 2.621-1.009 2.56-1.23 5.304-1.689 7.517-4.827M60.101 167.791c-.031-1.303-.561-2.055-2.418-1.505-.785.239-1.448.221-2.661.404l-1.245 4.203.735-.276 1.815-3.028M699.039 21.663c2.478-2.954 2.009-.165 2.855 0 .765.11 1 1.395-.296 4.24-.183.403.225.568.357.862M75.409 159.35c-.398.679-1.224 1.945-1.122 1.945 1.356-.037 2.835-.294 4.293-.404m571.903-68.926c.143.44.285.881.438 1.358 1.255-1.45 2.193-2.55 3.121-3.633l.286.495-1.968 2.11m-102.802 61.219c.877.863 1.754 1.542 2.989 2.569 1.417-1.101 2.672-2.055 3.895-3.064l2.907-1.028m-368.494-42.17c-1.499-.679-3.049-1.266-4.609-1.817m455.518-15.855c-1.469 2.073-2.927 4.129-4.59 6.478-.397.459-1.121 1.303-1.846 2.128-.122.147-.275.441-.255.496s.235-.073.368-.11m-433.54 6.276-.806.936.694.367c.612-.881 1.173-1.248 2.172-1.01.969.312 2.458 1.083 4.498 3.505m371.287 39.143c-1.377-.44-2.754-.881-4.161-1.34-.031 0-.449.331-.826.624.153.716.316 1.487.51 2.368.856-.588 1.672-1.138 2.488-1.689m97.233-87.46c1.357-.606 2.703-1.211 4.375-1.964-.622 1.193-1.132 2.166-1.631 3.138m-611.83 102.16c-1.877-.441-3.121 1.89-4.528 3.486m318.112-26.884c.826.074 1.642.147 2.499.239-.48.587-.929 1.138-1.387 1.688m-104.698 36.83c-.898.147-1.795.294-3.386.551 3.671 1.596 4.141 1.505 4.936-.184m126.645-61.805c-1.58.789-3.161 1.633-4.691 2.349-.286.495-.612 1.064-.938 1.651m-344.884 55.97-7.925 7.965m32.35-29.82 4.905-1.652M706.3 9.974c-1.102.844-2.244 1.596-3.386 2.33m-25.955 37.51c-.887.88-1.785 1.761-3.182 3.137a330 330 0 0 1-2.407 6.24M344.537 159.533c-.234.533-.469 1.083-.734 1.689-.938.495-2.04 1.082-3.141 1.67-.877.348-1.754.77-2.611 1.027-1.58.496-2.233.349-.897-.972m64.107-34.739c.877-.33 1.755-.642 2.836-1.046-.704 1.212-1.398 2.368-2.234 3.799.734-.22 1.285-.404 3.141-.973-1.02.881-1.621 1.413-2.213 1.927M702.598 29.224c-1.234 1.67-2.519 3.23-3.692 5.01-1.203 1.761-2.397 3.541-3.671 5.413-1.265 1.909-2.611 3.909-4.141 6.02-.235.183-1.152.917-2.101 1.669-.622 2.514-2.06 4.588-3.661 6.533s-3.315 3.872-4.569 5.946m-171.102 57.548.643-1.34c-.357-.715-.745-1.357-1.132-2.018-1.693-.587-3.315-1.156-4.987-1.376m-142.647 31.343c.438 1.229.918 2.441 1.315 3.688.164.514.184 1.12.266 1.689m-278.91-4.221-5.058 3.156m419.822-40.519c-.438-.477-.866-.972-1.499-1.67-.132.478-.234.881-.387 1.45.652.239 1.009.367 1.366.496m-259.674 60.576c-.082.55-.806.514-1.071.862-.265.367-.081 1.267 1.907 3.267M685.006 39.831c.928 1.302 2.213-3.359 3.487-3.542a968 968 0 0 1-.805 4.349m-548.161 78.23c1.458.165 2.804.66 4.915-1.23m325.017-18.167c-.336.22-.683.44-1.081.697.266.11.643.275 1.234.514.48-.697.929-1.358 1.367-2.019m20.632 12.259c-.235-2.166-1.806-2.367-3.295-2.606M96.121 146.174c-.928.587-1.866 1.156-3.498 2.184 1.163.036 1.795.055 2.438.055l-.317.624c-1.6.477-3.202.954-5.394 1.614-.184.239-.735.991-1.224 1.725-.286.441-.48.863-.714 1.267-.867.257-1.5.44-2.132.642M268.6 173.003c2.284.202 2.784.147 3.773-.385m294.779-23.196c-.072-.275-.133-.569-.225-.936-1.774 1.376-1.999 2.606-.714 3.193m31.484-11.671c-.694.606-1.407 1.119-2.366 1.853-.163.588-.357 1.285-.541 1.964m-241.277 6.845c-1.723.312-3.406.716-4.752 2.312m249.466-23.544c-.102 1.174-.204 2.33-.275 3.248 1.06-.275 1.805-.477 1.917-.495 2.213-1.964 4.028-3.854 5.854-5.579.102-.165.296-.459.285-.459h-1.631c.387-.495.816-1.046 1.244-1.615m-399.375-23.984c-1.693.036-1.621.055-.234 2.569-1.377-.055-2.795.147-4.172.495M350.35 147.55l-3.018 3.56M709.859 6.836c-.419.844-.857 1.67-1.265 2.514-.49 1.064-.979 2.11-1.458 3.156m-39.142 48.557c-.602.477-1.204.954-1.877 1.468.561-1.12 1.03-2.074 1.571-3.138-2.734 2.275-2.744 3.651-2.948 5.138 0 .036-.214.275-.306.33-.142.092-.255.129-.387.184m-338.754 103.15c.276.293.551.569 1.234 1.284l2.356-4.239-.581-.091c2.437-1.615 4.875-3.212 7.557-4.992-.755 0-1.448.018-2.152.037m-111.266-39.913c2.916 6.056-.49 1.872.713 5.211.755 1.707 1.061 2.588 1.275 3.726.214 1.156.276 2.587.367 5.45.775-.771 1.316-1.303 1.846-1.835l-.346-1.321-.816-1.101m309.709 27.214c1.02.624 2.009 1.211 3.08 1.725 1.122.477 2.315.862 3.488 1.284M704.158 27.15c.591-.55 1.264-.918 1.754-1.688 1.887-3.028 3.539-6.148 4.65-9.433m-492.303 96.893c-.418-1.523-.775-3.175-1.326-4.643l-.693-.734c.143.679.275 1.34.51 2.478-.867.165-2.346-2.056-4.385-4.46m187.418 21.232c-.092 1.579 1.683 2.313-1.04 5.065m-370.38 71.275-3.896 4.129m29.698-33.215-3.651 3.707m206.938-5.854c-1.499-.386-2.682-.532-3.671.422-.306.33-1.581.092-2.417.11m-59.652-67.201c2.367 0 4.733.202 7.384.918.021-.514.031-.881.041-1.248m312.095 31.086c.031 1.817 1.142 3.707 2.448 5.579m-10.321-34.628c-1.581-1.45-3.121-2.973-4.752-4.148m-424.544 50.41c-.47.367-.949.734-1.56 1.211a66 66 0 0 0 1.61.881m479.556-3.835-2.591 2.441m-200.728 5.193c2.734-1.138 5.436-2.441 8.149-3.67v.348c2.417-1.394 4.824-2.936 7.18-4.404.071-.349.183-.844.296-1.358m171.702-.917c-2.142-.734-4.253-1.615-6.537-2.973-.041-.349-.113-1.065-.184-1.799 2.244.624 4.365 1.157 5.324 3.157.53-.055 1.019-.092 1.499-.147M159.71 108.628c1.52.734.989 2.129-1.203 3.156-1.336.606-2.723 1.083-4.08 1.597m414.295 40.243c.755-.844 1.509-1.67 2.325-2.569-.765-.238-1.377-.44-2.111-.66-.816.734-1.764 1.449-2.866 2.257.796.807 1.591 1.651 2.397 2.422M290.465 175.48l2.182 4.056-.734.294c.51.036 1.02.073 1.693.128.49-.551.969-1.101 1.622-1.853.55.458.907.752 1.264 1.046m330.993-67.238c.857-.514 1.704-1.01 2.754-1.634.52-.862 1.071-1.78 1.754-2.899.826.183 1.673.349 2.519.532m-447.022-8.68c-1.968.955-3.865 2.037-5.996 3.23-.408 2.459-.867 2.863-3.998 3.854-1.673-.202-2.693-.312-3.723-.441m403.22 36.17-4.294.22-.51.918m-174.171-10.882-2.967 3.45m-108.37 40.335c2.519-.587 5.049-1.065 8.006-1.817-.306-1.193-.561-2.165-.959-3.725-1.754 1.376-2.947 2.22-4.14 3.119m327.923-62.154 3.733-1.762M121.74 128.942c1.948-1.009 3.926-1.871 6.017-2.826-.51-.293-1.203-.697-1.887-1.101M21.612 196.033l.765-2.037-.52.221c-1.275 1.816-2.57 3.56-3.825 5.45h-.53l-2.326 3.798m454.6-101.774c1.346.257 2.651 1.046 4.028.478m-171.316 65.219c-.377.513-.744 1.009-1.254 1.706-.612-.348-.979-.569-1.356-.789m-97.957-68.467a83 83 0 0 0-1.295 2.716c.469.55.949 1.119 1.418 1.78a29 29 0 0 1 1.479 2.129c-.99-.257-1.632-.239-2.254-.349m342.222 47.896h-2.244c-.224-.422-.449-.826-.683-1.248-1.469.037-2.876-.073-4.233-.165-2.927-.165-5.843-.606-8.76-1.762m-349.636-49.988q.102-.917-2.723-.073m-82.364 40.922c-.377-.642-.765-1.284-1.193-2.018-2.193 1.817-2.407 3.707-4.814 4.386m26.904-15.489c1.316.165 4.202-.807 1.928 2.019-.714-.129-1.377-.239-2.04-.349M475.905 98.37c.469.477.938.954 1.519 1.541.725-.11 1.449-.091 2.183-.146m31.013 27.966.908 1.285-.143-.918c-.489-.66-.979-1.321-1.468-1.963M93.633 151.936c.102.312.215.642.357 1.101a198 198 0 0 1-2.019.624m490.631-7.964c.551.257 1.091.514 1.581.752 1.733-1.394 3.345-2.973 4.966-4.404m-426.217-25.343c-.999.789-2.009 1.56-2.998 2.423m142.29 49.675.571 2.294m107.319-45.033c2.305-1.945 4.62-3.872 7.17-6.019 1.693.11 3.518.22 5.354.349m26.536-23.875c-.235.294-.367.716-.704.9-2.131 1.156-4.283 2.349-6.833 3.945 1 .679 1.673 1.211 2.346 1.707l.51-.331c-.112.955-.235 1.909-.367 3.01.612-.037 1.397-.074 2.192-.129M308.2 171.37c-.04-.441-.081-.881-.112-1.266 1.979-.771 3.59-1.505 5.079-2.147 1.979-.257 3.906-.514 5.823-.771m-77.58-.698c-.612-.825-1.254-1.523-1.805-2.44l-.275.734m-89.626-54.98-1.57 3.083m-91.491 64.522c-1.632 1.56-1.03 3.689-4.13 5.01M676.938 57.025c0 .881.02 1.744.02 2.863-.601.808-1.315 1.798-2.039 2.79M326.679 163.02l-4.477 1.523-.102.459 2.825-.275m2.663-7.432a194 194 0 0 1-2.886 3.413c.193.367.448.881.714 1.395M142.25 112.922l-3.967 2.643m52.817-14.883c-1.285.239-2.56.496-4.008.863a91 91 0 0 1 1.846 2.679c-1.071.22-1.815.44-2.57.624m507.775-69.201.837 4.147m-94.265 86.396c-.48 2.165 1.57 1.743 2.927 2.037m-49.473 27.159c1.927.275 3.844.239 5.782.257m4.12-1.817c-.999.422-1.999.863-3.008 1.156m-212.507-.55c-.215.459-.439.917-.847 1.798.816.33 2.427.954 4.039 1.597m-30.687 10.68a115 115 0 0 1-4.12 1.486l.142-.238-3.212.385m-189.346-41.051c-2.978 1.028-3.407 2.918-4.304 4.368-.449.734.245 1.358.622 1.908.245.367.826.496 1.254.716m536.056-66.228-.714 4.404m-431.836 67.035c.142 1.065.816 3.065 1.173 4.515.367 1.431.438 2.33-.653 1.229M42.835 180.453c-3.376 3.285-6.731 6.35-10.148 7.873m-11.015 9.395c-.826 1.615-.826 2.276 1.071.734m609.005-93.828 3.753-.513M17.583 202.878l-1.101 3.046-.49.276s.02.201.061.183c.347-.257.704-.514 1.05-.771m69.901-56.722c.082.422.174.844.337 1.651.459-.146 1.55-.513 2.662-.789m-62.466 42.996c-.265.845-.52 1.67-.837 2.68.337 0 .847 0 1.52-.019-1.632 2.257-3.11 4.294-4.64 6.423-2.876 1.395-3.152 1.633-3.886 3.744m582.928-72.945c2.814-3.285 3.61-3.854 4.589-3.34m-201.992-7.56-.52-.606c-.377.33-.755.661-1.295 1.138 1.601 0 2.865 0 4.13-.019l1.112-1.56-2.264.753m-177.445 21.158-1.979-1.871.143 1.394-2.376-7.781c-.071.074-.245.257-.428.423-.602-2.001-1.255-4.001-1.897-5.983m176.618-5.927c-.499.147-.989.275-1.784.495-.082.624-.143 1.138-.204 1.652m-118.284 52.685c.163-.348.327-.679.663-1.358-.826.294-1.519.533-2.223.771m-97.355-76.597 3.916.624m12.453 5.873-1.448.293c.398.239.796.514 1.193.771.806-.404 1.602-.697 2.417-1.009m15.308-2.294a170 170 0 0 1-1.489 6.331c.582.294 1.102.771 1.652 1.23.541.477 1.122.917 1.653 1.468m72.97 65.916.54 1.156-.683.312-2.132-.973m-58.192-26.333c.479-.147.948-.312 1.438-.459-.928-1.982-1.734-3.762-2.499-5.615M707.187 16.653c-.846 1.432-1.693 2.845-2.703 4.551.663-.183 1.02-.293 1.857-.532a442 442 0 0 0-2.54 2.624M500.646 117.4c-.123.22-.245.422-.408.715.642 1.395 1.479 2.973 2.356 5.047.173-.257.306-.459.428-.661m17.95 28.224c-.255.147-.51.312-.775.459a34 34 0 0 0 1.968 2.147m36.409 5.652c.061.293.112.569.234 1.156 1.816-.661 3.345-1.046 4.834-1.743m11.229-5.909c-.673.936-2.029 1.982-3.6 3.046-1.56 1.064-3.345 2.092-4.885 2.569-.265.092-.489.294-1.04.624-.602-.477-1.193-.954-1.775-1.413m-33.91-12.02c-.867-1.56-2.009-2.349-3.223-3.156-1.203-.789-2.478-1.615-3.437-2.991.439.844-.051.935-.357 1.137-.285.184-.418.624.959 1.982M658.02 85.231c2.784-2.588 5.599-5.12 8.373-7.8l.296-1.1c-1.927.99-3.855 1.963-5.793 2.88M9.271 215.376c.735 1.413 1.49.918 4.671-3.12m679.232-172.15c-.561.515-1.132.992-1.958 1.67-.153.698-.286 1.267-.408 1.836M255.454 184.839c-2.142.092-4.304.074-6.517-.33m-137.181-53.511c-2.366 2.092-1.937 3.193-1.274 4.184m506.754-17.213-3.029 3.156.142.147c-1.764 1.266-3.549 2.44-5.333 3.596m-493.15 2.111c-.112-.973-.541-1.432-2.336.312m251.322 15.305 2.672 4.624M187.409 98.131c.938.294 1.968.532 2.794.955.755.385 1.285.917 1.479 1.578 1.336.44 2.662.936 3.947 1.523.357-.129 1.02-.349 1.693-.514m478.352-43.125c-2.305 1.175-4.885 4.203-6.599 8.075M42.457 177.37c.551.129 1.102.257 1.663.404-.204.33-.5.826-.796 1.303M6.446 218.843c.438-1.816.887-3.633 1.305-5.358a70 70 0 0 1 2.56-2.404c-.184.624-.357 1.193-.56 1.872.754-.441 1.509-.881 2.273-1.303m219.565-56.484c.153 1.358.347 2.679.602 4.092.234 1.45.5 3.01.908 4.698-.317-.477-.612-.899-.898-1.321-.265-.459-.51-.881-.744-1.303-.47-.844-.949-1.615-1.387-2.478-.357.441-.153 1.395.316 2.514.459 1.12 1.101 2.496 1.744 3.597m62.016 8.332c-1.254.33-2.509.587-3.039.715-3.366-.459-6.17-.715-9.505-1.266.418-.477 1.05-1.193 1.693-1.908m326.68-43.859c-3.631 2.716-5.365 5.157-5.059 8.423-.918.697-1.846 1.468-2.804 2.147m33.39-41.785 1.397.716 1.142-.79-1.489 2.056m-357.071 72.926-1.326 3.358m23.926-2.293c.04.44.071.881.102 1.229 1.142-.091 1.907-.165 2.672-.238m334.094-81.221c.826-1.157 1.652-2.331 2.672-3.762 3.437-3.047 7.588-7.249 9.576-5.708M36.43 183.335l-.837 3.175M666.74 63.833c-1.234 2-2.427 4.02-3.732 6.001-.367.569-1.081 1.083-1.642 1.633m-212.782 23.03c-.643 2.295 3.498 1.285 4.528 2.46m196.281-9.69c-2.02 2.35-4.039 4.717-6.517 7.598 1.04-2.514 1.938-4.661 2.825-6.808m-215.098 16.992c-1.764 2.184-3.487 4.441-5.201 6.68m-33.461 15.91c.775-.257 1.54-.55 2.825-1.009-.999 1.578-1.815 2.899-2.641 4.147m-170.825-12.643c-.367-1.634-.847-2.771-1.285-3.56-.439-.79-.898-1.175-1.377-1.248m195.097 6.643-4.66 4.9m-282.795 5.432 7.302-4.882-.225-.257c1.591-.715 3.182-1.449 4.794-2.073m-30.371 17.102c.224.202.449.386.887.753a468 468 0 0 0-4.232 3.12l-.694 2.385m267.11-.697c-3.631 2.037-7.292 3.927-10.943 5.835m283.978-55.53c-1.551 3.818-1.357 3.946 2.233 1.505M363.293 142.67c-2.03 1.229-4.069 2.459-6.119 3.596m158.912-11.909c1.031 1.486 2.071 2.918 3.142 4.184l-.072-1.028c-1.04-1.248-2.06-2.661-3.07-4.11m-261.877 39.216c1.704.642.908 1.486 1.071 2.293.133.606.673 1.212 1.04 1.817m148.95-46.611c-1.193 2.642-3.794 3.835-6.292 5.083M1.52 219.908l-.52-.239 1.591-1.908m465.848-125.85c-.979-.092-1.958-.056-2.937-.037-.979 0-1.958 0-2.937.165-.795.092-1.56.422-2.335.642m-43.12 23.966c.448-.514.897-1.009 1.733-1.963-.897.422-1.417.679-1.937.917m-17.368 16.222c.745.349 1.092.845-.805 2.129M42.896 175.811c-1.642 2.33-2.325 4.807-5.273 7.211m491.701-35.6a45 45 0 0 1-.999-2.239 17 17 0 0 0 2.213.734c.234.239.459.514.703.734-.52.404-1.05.789-1.601 1.175M1.979 224c1.764-1.34 3.539-2.698 5.262-3.945.276-.202.398.238.582.367M604.478 128.3c.826 1.211 2.295-.697 4.008-2.33.02-1.046.041-1.964.061-2.9m-130.602-21.581c1.05-.091 2.111-.165 3.436-.275.949.587 1.989 1.23 3.07 1.89 1.071.679 2.142 1.542 3.233 2.312m-208.407 74.817c2.744-1.211 2.989-1.138 3.968 1.395a61 61 0 0 0 2.59-.918m296.613-43.179c-.051.403-.102.826-.204 1.56-.693-.257-1.152-.441-1.713-.661-.622.514-1.295 1.138-2.58 2.165 1.407-.036 2.407-.165 3.416-.238m-113.784-39.693c.347.458.704.936 1.203 1.596-.459.496-1.02 1.101-1.591 1.707m135.895 25.416c-1.07 1.248-2.141 2.477-3.253 3.633-.53.569-1.112 1.12-1.662 1.67m24.476-23.048c.408-.514.816-1.01 1.163-1.432.122.753.234 1.487.346 2.202m-272.871 36.317-2.029 2.238m-17.338 17.324c-.071-.276-.153-.551-.265-.973-.877.587-1.458.991-2.029 1.376M6.711 211.43c-.05.312-.234.917-.122.862.561-.275 1.193-.715 1.805-1.101M672.328 68.073c.785-.496 2.56-2.973 2.009-.771m-275.482 67.274c-1.887 2.588-4.773 3.34-7.129 4.992m-40.386 6.643c.378-.147.765-.276 1.551-.569-1.816 1.615-3.08 2.074-4.141 1.45m103.127-42.208c1.733-.109 3.467 0 5.191.018m51.747 19.398-1.02 1.009M262.909 171.37l1.091.624-.928.532c-.296-.367-.592-.716-1.112-1.34-2.009.807-3.977 1.486-5.966 2.019m-9.342-2.992c.326 1.028.652 2.148 1.121 3.414-1.172-.459-2.213-.918-3.233-1.523l-.204.312c.684.642 1.387 1.284 2.122 1.816m-11.83-18.497a19 19 0 0 1-2.04-1.872m-92.215-37.399c-.541.789-1.091 1.578-1.815 2.642-.898.477-2.55-.073-3.866 1.689m488.001-10.442c-2.122 2.624-4.478 5.212-5.977 8.405 1.173-.826 1.765-1.322 2.366-1.762m-92.103 30.683c-.204.569-.398 1.156-.724 2.073-1.775-3.45-1.663-3.45.377-2.312m-26.394-40.922 1.887 1.027.265.661-2.06.936m158.403-38.886c1.02-.789 2.03-1.578 3.651-2.9-.887 1.891-1.397 2.992-1.907 4.093M40.703 177.132l-4.814 4.22M682.445 54.493l.938 1.23m.786-3.964 1.479 1.358M332.085 162.836c-.225 1.413 3.365.845 1.887 2.9m-67.953 17.617 2.346.972m-167.022-35.802-5.732 3.34m563.827-80.836-1.591 3.395-.888.587c-.03.808-.061 1.615-.112 3.028 1.071-1.651 1.622-2.496 2.692-4.147-1.081.972-1.56 1.413-2.039 1.853m-37.418 35.839-2.336 3.689m-440.557-1.707c-.714-.495-1.427-.972-2.294-1.56-1.132.881-3.682 1.542-1.469 2.239M33.462 184.949l-1.275 3.083m409.074-82.817c.663.165 1.326.293 2.141.532.755-.551 1.54-1.138 2.336-1.707m-248.824 5.138c-1.867.221-3.754.643-5.661 1.212M74.429 158.634c2.264-.055 3.743.771 4.947 1.964.673.66.897.477-.714 2.606m298.765-28.022c.072-.349.143-.698.276-1.303-.847.459-1.622.899-2.254 1.229l-.704 2.881m-142.443 33.105c.939.881 1.969 1.67 2.713 2.588 2.417 3.34 4.998 6.147 7.833 8.056 1.682 1.193 3.528 1.743 5.293 2.33m396.804-92.91c2.52-1.468-.244 2.863 1.245 2.514m-39.744 30.921c-.194.331-.387.643-.897 1.45 1.999-1.303 3.681-2.532 5.711-3.909.081.973.153 1.799.224 2.624m-521.706 27.93 2.743-.293m217.994 14.736-6.578 3.872m-172.559-40.647c1.04-.881 2.019-1.817 3.151-2.625 1.132-.825 2.417-1.504 4.059-2.404.296.11.908.349 1.489.569.021 0-.194.239-.326.349-.082.073-.235.11-.357.165m72.012-14.314c-.663-.146-1.285-.367-1.928-.403m56.286 65.714a175 175 0 0 1-2.355 4.202c-1.173.606-2.509.918-3.641-.091m-222.054-1.285c1.153-.037.388 1.046-.663 2.294m650.412-136.66 2.274-2.385.204-.844-1.02 1.01m-352.879 110.05c3.895-2.056 4.099.183 5.874.587l-1.234 2.514m-329.218 58.65c.06 1.174 1.09.275 2.284-1.01m479.657-109.793c-.887-.202-1.785-.331-3.029-.404-.551-.569-1.479-1.688-2.468-2.569m46.873 51.181a110 110 0 0 0 1.836 3.817 50 50 0 0 1-2.845-1.193m16.99 2.862c-.765.569-1.54 1.028-2.325 1.56m-204.664-9.322c-1.662-.33-2.356.881-3.264 1.78m73.134-34.903c2.611-.441 2.886.715 1.061 3.303m265.579-64.632.316 2.019M46.414 184.527l6.089-5.634c-2.162 1.083-4.314 1.744-6.65 5.065.153.587.347 1.34.449 1.725-1.142 1.67-1.856 2.679-2.56 3.762l1.397-.238 1.01-2.533m335.062-47.804 1.958 2.129m31.677-29.692c2.376-.238 2.376 1.523 2.968 2.771M109.9 134.117c-1.326.753-2.652 1.524-4.141 2.386a94 94 0 0 0-1.162-.789c-.439.716-.684 1.119-.928 1.523m349.177-43.565c.336.202.673.385 1.203.697a29 29 0 0 0-2.274.496m-349.259 38.188-.755 2.514m313.778-20.736c-.285.568-.407 1.229-.907 1.706-1.204 1.156-2.58 2.239-3.774 3.248.663.643 1.092 1.083 1.53 1.505m-309.77 16.791c2.437.11 3.661 1.156 3.396 3.358M336.888 160.8c2.448-1.12 4.793-2.037 6.864-1.634.449.092 1.458-.44 2.203-.679M679.07 51.759c.285.256.561.513.969.862 1.254-1.431 2.967-3.395 4.691-5.358m-68.055 77.844.888 1.67m-336.736 47.4-2.172-.091-.153.605 1.958-.22m238.044-25.489-.459-1.799-.521-.624-.418.551m-84.443-39.271c-.204.349-.408.679-.642 1.064-.735.239-1.479.496-2.224.753M688.176 33.94l-4.283 5.083.071.55 2.101-1.706m-289.759 93.865c.428-.569.856-1.138 1.601-2.147.244 1.303.958 2.22.54 3.596-.489 1.615 1.081.68 1.897.735m-98.049 40.445-4.089-.367a1410 1410 0 0 0-5.701 3.046m318.561-57.034c-.847.091-1.693.183-2.743.293-.878 1.248-1.52 2.166-2.173 3.101m-495.587 16.81-1.775 1.615c.408.055.714.11 1.489.22-2.142 1.027-3.712 1.762-5.283 2.514m-33.94 19.103-.276-1.229c.643 1.211.439 1.449-2.845 3.707M707.646 16.525c.591-.202 1.183-.422 1.774-.624.061-.018.061.092.174.312-1.336 2.9-2.336 5.945-4.671 8.276M547.284 155.918c-.826 0-1.652 0-2.56-.018-.907-.055-1.907-.202-3.07-.33 1.184.642 2.183 1.211 3.08 1.651.908.404 1.724.753 2.54 1.101M194.548 98.7c.673.459 1.407.936 1.968 1.45.5.495.806 1.046 1.183 1.56m323.385 35.343a23 23 0 0 1-1.917-1.651c.408 1.798-.071 3.101 2.193 5.065M219.34 118.96c.337 1.339.592 2.734.877 4.073M78.111 151.092l2.285-2.514c.581.092 1.254.202 2.121.349-1.07.972-1.897 1.706-2.713 2.44m63.364-37.472 1.336 1.229m186.642 42.886c1.775-.238 3.55-.514 5.181-1.945m-251.72-1.101-.948 1.835-1.458.257 2.009-2.055m169.765 25.544c-.786.367-1.581.716-2.397.991m342.079-49.144.999.991m-145.41-28.59-1.632 2.367m-23.008-1.909c-.031-1.009-.704-.807-1.938.477m124.993 49.53c.428.77.847 1.56 1.489 2.716a72 72 0 0 1 1.316-1.468 601 601 0 0 0 4.824 1.963l.713-.349.102 2.625-.938.22-2.039-1.505M702.516 18.562c-.143-.165-.275-.349-.459-.57-.52 1.029-.846 1.67-1.183 2.331M456.252 91.783c-.01-.22.123-.55-.081-.624s-.735.147-1.132.238l.826.478M77.162 156.193l4.253-2.422.102-.587c-.296.073-.581.128-.887.238-.051 0-.204.276-.306.423m305.558-20.131c.367-1.212.724-2.404 1.163-3.872-1.183.587-2.173 1.064-3.162 1.541m-228.824-16.002 3.906-.844.673.404-1.785 1.156m102.577 59.677a55 55 0 0 1-3.355.972l.744-3.523m26.619-2.184c-.153 1.211 3.743.312 2.427 2.129m-50.942-2.991c1.478 3.064 3.345 6 6.149 6.423.072 0 .082-.111.041-.202-.071-.147-.204-.312-.316-.459m-131.316-38.445c3.253-2.679 6.272-3.175 9.25-3.817m518.391-33.729c-2.04 3.542 1.214.422 1.591.918M71.625 153.294l4.834-.385m-34.45 32.389.08 1.89m201.238-14.662c.857 1.945-.571 1.504-1.836.972-.275.532-.51.991-.734 1.432m136.171-33.252 4.824-1.964M245.02 178.802l-.938 3.413m286.467-29.894c.071 1.083-1.02.826-2.418-.018m-356.316-42.684-3.039.367m40.101 2.367c.448.551.836 1.266 1.234 1.927l-.633-.312c.786.716 1.653 1.266 2.417 2.239.408.44.816.899 1.224 1.358.388.55.796 1.101 1.204 1.688-.255-.679-.49-1.284-.735-1.945-.255-.679-.581-1.285-.968-2.147a99 99 0 0 1-.582 3.395m10.147 11.267-.622 3.799m-31.003-28.848c-.469.532-.938 1.065-1.407 1.615m-23.824 3.891-1.224-1.487c-1.122 1.248-1.816 2-2.509 2.771m261.419-3.964c-.724.092-1.448.165-2.417.276-.53.972-.908 1.688-1.326 2.459q2.305-1.047 5.191-3.744h2.009c-1.05.973-1.744 1.615-2.427 2.257m-136.823 58.246 1.948.679m-106.075-65.348c-.367.184-.734.367-1.244.624 1.438.881 3.263-.073 5.089-.789m278.756-9.506c-1.162 0-2.335 0-3.549.11-1.213.074-2.478.166-3.845.423 0 .146.011.238.031.568m-124.29 59.274c.571.459 1.142.899 1.774 1.413-.52.312-1.02.624-1.693 1.028.408.11.714.201 1.02.293m330.341-86.69-1.805 2.551.418-.238-2.223 5.377m-234.271 29.416c2.081-.239 4.151-.477 6.752-.642-.123.734-.276 1.725-.439 2.697m-23.181 4.68c-.632.881-1.264 1.762-2.019 2.808 1.469-.661 2.845-1.267 4.222-1.891m-260.073-.624c-.948-.22-1.907-.44-3.212-.752-1.367.661-3.427 1.798-5.497 2.955m31.36-7.469c.225-.367.449-.734.592-.954 1.183-.166 2.346-.331 3.498-.478m524.439-91.093c.326.66.663 1.32 1.071 2.128-1.081 1.744-2.101 3.377-3.08 4.955-1.01 1.523-1.979 2.973-2.948 4.441M50.116 176.159l-1.744-.275m486.266-16.387a49 49 0 0 0 3.182.679m-55.623-53.218a52 52 0 0 1-1.274-.587c-.47-.165-.98-.349-1.602-.587.316-.771.582-1.432.928-2.276-1.172-.183-2.345-.477-3.436-.514l-.398-1.193m-43.885 12.314c.847-.404 1.693-.752 2.54-1.119m-295.39 15.543-2.958 1.082m354.705-17.873c.346-.055.53-.074.632-.092.622.514 1.214 1.009 1.785 1.468.55.532 1.091 1.064 1.611 1.56.52.514 1.04.972 1.53 1.505.479.55.959 1.082 1.438 1.633m-216.505 55.493c.051.881.113 1.762.184 2.918 1.173-.459 1.876-.716 2.937-1.175.49.551 1 1.12 1.795 2.019a146 146 0 0 1-4.946 2m25.21-2.716-3.018.844m133.662-69.439c-.908.899-1.948 1.78-2.631 2.715-.316.422.071.845.142 1.267m175.761 20.92 1.112-1.212-.194-.091-3.722 3.633m-93.663-4.551-2.254-3.707m-106.177-2.55c-2.498.899-3.691.146-5.262-.147M372.553 149l2.744-.275m221.429-5.45c-1.152.477-2.315.935-3.804 1.541-.234.385-.581.973-1.162 1.927.867-.569 1.479-.973 2.09-1.376M75.632 162.268c-.754.991-1.509 2-2.458 3.266a134 134 0 0 0-1.743-.22m316.072-24.664c-.01.514-2.896 1.615-.907 1.689M278.542 180.82c.826.349 1.642.679 2.54 1.065.459-.147 1.081-.349 1.713-.551M144.81 126.318l-1.642-.642m246.682 5.725c-1.418.936-2.825 1.872-4.355 2.882-.214.477-.51 1.101-.795 1.725m-163.045 6.055-1.05-2.073.143 1.394m180.085-21.525c.408-.129.806-.257 1.091-.367-.336.532-.612.972-.897 1.395m74.561-23.472c-.989-.55-2.152-.844-2.957-1.394-1.622-1.12-3.254-1.064-4.998-.624m78.56 54.337c-.449-2.441-.663-2.367-4.803-2.055 1.346.385 2.345.66 3.345.954M20.611 208.677c-.663.165-1.336.33-1.978.496-1.03 1.816-1.785 3.138-2.53 4.459m290.639-41.4c-2.437 1.725-4.885 3.524-8.047 5.634.245-1.523.388-2.459.531-3.377m-14.31 3.983c.888.11 1.785.22 2.672.311 1.031-.532 2.02-1.046 2.999-1.559M670.115 57.007a845 845 0 0 1-1.325 3.762c-.296.44-.888 1.303-1.489 2.165M221.084 135.66c-.469-.312-.938-.587-1.407-.863M208.245 114.5c-.204-.771-.398-1.615-.694-2.459a5.4 5.4 0 0 1 1.04-.202c.388-.036.888-.147 1.469-.11.367 1.432.551 2.257.734 3.065m256.462-22.058c-.132.88-.244 1.762-.407 2.643-.092.513-.255 1.027-.378 1.541m-207.203 75.385 1.132 1.707m384.79-86.175c-2.631 2.275-2.009 3.633-3.059 5.468m-466.39 13.102-2.927 1.542m44.282 7.891c.643.44 1.183 1.028 2.009 1.78.673 1.817 1.377 4.331 2.081 6.79m215.536-15.69c-.469.036-.948.091-1.418.146l-.489.533.887.275m-67.341 37.821c-.02.918-.03 1.835-.051 2.992a77 77 0 0 0 2.713-1.138m-76.438 19.617-.989 2.018m-225.928-6.055c-.071.77-.143 1.523-.245 2.679-1.968 1.138-3.834 2.44-5.65 3.578-.275-.569-.51-1.027-.683-1.394-1.102.55-2.07 1.009-3.029 1.486m594.288-83.056c-.642.349-1.274.697-2.08 1.138-.276.936-.551 1.908-.806 2.77 1.397-.293 1.938-1.412 2.417-2.642m-63.587 54.429c.591-.422 1.295-1.083 1.754-1.23a81 81 0 0 1 3.508-.862M64.425 161.57c.234-1.101.459-2.202.724-3.45-1.887.826-3.396 1.689-3.6 3.505m167.684-10.808c.071-1.028-.163-2.312-.53-3.744-.367-1.413-.867-2.936-1.306-4.477M127.9 120.189l-1.162.441.142-.459 4.029-.991m131.143 61.09c-.632.348-1.265.697-1.897 1.027m-92.103-78.229 2.651-.698m516.362-60.925c-2.366 2.882-1.917 3.652-1.489 4.46.031.055-.112.385-.234.55-.184.276-.408.532-.612.79m-470.489 57.401c-.581-.459-1.162-.918-1.734-1.376-.591-.386-1.193-.716-1.764-1.046.49 1.78.898 3.101 1.173 4.661m15.216 32.114c.174-.955.388-1.817.49-2.937.01-.165-.439-1.504-.694-2.312m55.939 42.483c.142.201.285.385.53.715-.357.22-.775.477-1.203.734m-79.671-77.679c1.478.238 2.967.679 4.834 1.578-.235.459-.439.863-.643 1.266m152.785 40.538c-.591-.147-1.173-.294-2.182-.551a653 653 0 0 0-.918 4.808c.449-.092 1.122-.22 2.213-.44-.785.752-1.306 1.247-1.897 1.816.826-.073 1.611-.165 2.407-.238m23.946-10.717c-.184.33-.367.679-.949 1.761 1.663-1.064 2.856-1.725 3.998-2.55 1.316-.936 2.58-1.964 3.875-2.936m49.688-26.609-2.203 3.358M140.19 123.786c1.193.183 2.417.33 4.192-.679M97.04 148.872c.978-.459 1.958-.9 3.661-1.707-.133-.734-.255-1.358-.367-1.982m548.773-65.531-2.04 3.156m9.158-10.827-.979 3.652m14.614-8.093a206 206 0 0 1-2.366 3.505m29.209-36.224-.816-.46.51-.678c1.601-.294 3.152-.716 4.743-1.12M458.353 94.297c.204.477.397.954.816 1.945-1.591-.569-2.55-.973-3.784-1.303-.408.459-.785.88-1.173 1.303m-.601 7.028-.235 1.615M315.92 171.278l.143 1.523m-165.715-54.685 1.295 1.064m294.442-22.242-.612 1.56m72.531 41.051c-.785-1.413-1.54-2.881-2.611-5.12.082 1.358.133 2.055.174 2.753m-3.906-16.259c.499.697.979 1.468 1.448 2.202l.051.991c-.724-.973-1.438-1.982-2.213-2.881l-2.009-2.367m-131.459 26.187-.918 1.633m-63.293 25.177c-.979 1.248.133.863 1.214.514m-74.439 3.652c.02 1.064.061 2.165.112 3.248m-154.63-23.746c.316.422.633.844.806 1.064 1.07-.606 1.887-1.083 2.713-1.541m293.728-20.975-3.936 1.027.428-.715c.969.348.775.495 1.509 1.449.49.643 1.642.789 2.499 1.175m129.368-8.974a133 133 0 0 0-1.897-4.221c-.173-.128-.367-.238-.551-.367.092.569.164 1.156.235 1.744m12.829 20.993c-.326.055-.673.129-.999.129l-.418-.514c.102-.331.214-.643.336-1.028-1.448-1.395-1.795-1.615-1.734-1.138.062.459.582 1.523.939 2.368a27 27 0 0 1-1.989-1.817m184.185-121.41c-.744 2.643-1.581 5.12-2.386 7.708M456.446 94.847c1.04-.44 2.08-.863 3.141-1.303a64 64 0 0 1 4.753 2.073c-.255.991-.551 2.184-.857 3.377m107.319 48.721 2.927 1.872m-415.662-41.675-2.08 2.147m505.765-34.866-1.754 5.413-.652.606-.327-.955M107.187 143.55c.133-2.239-2.702-1.212-5.14-.881.337-.569.704-1.211 1.071-1.854m-57.347 44.483c-1.54 1.615-3.05 3.303-4.854 5.358-.47.147-1.153.367-1.785.551-1.611 1.853-1.265 2.275-.367 2.312m336.562-51.915c1.132.478 2.274.955 3.406 1.395m-111.235 30.848c2.234-1.578-1.815-.275-.459-1.541.469-.257 1.663-.936 3.325-1.872.041.862.071 1.45.102 2.055m205.449-80.34c.632.514 1.152 1.083 1.907 1.505.775.403 1.754.825 2.641 1.23m-31.748.898-2.019 1.028c.306-.9.561-1.67.826-2.459 1.55-.22 2.865-.257 4.171-.349M322.03 166.617c-.449-.184-.908-.367-1.357-.551-.703.569-1.183.955-1.662 1.34l.194.44 4.66-2.073m-230.65-22.205-1.285 1.725m119.159-40.299a31 31 0 0 1-.918-.587c-.795.165-1.274.349-1.743.496m-74.102 13.323c-1.081 1.596-2.56 2.404-4.365 2.55m139.179 55.677.499 2.349m204.654-78.781.061-1.082c.367.073.724.183 1.081.275a128 128 0 0 0-1.682 4.037m-116.998 45.474c-.795-.092-1.591-.184-2.427-.276-1.224 1.505-.53 2.001.734 2.184m-54.929 20.737c-.244-.166-.489-.331-.754-.514.306-.202.673-.441 1.274-.826.286.514.551.954.878 1.541 1.152-.22 3.049-.825 2.519.753m11.014-5.927c-2.56.091-5.099.275-7.659.293m115.763-56.154c-.571.496-1.152 1.01-1.591 1.395-.204 1.34-.408 2.624-.612 3.909M687.769 38.6c-1.866 3.634.52 1.873.724 2.882M283.979 169.81c-.867-.092-1.734-.165-2.672-.257-.021-.33-.051-.771-.072-1.211m53.991-8.46c-.112-.183-.225-.385-.327-.551-1.815.79-3.538 1.542-5.956 2.588.357-.973.602-1.615.837-2.276m-9.597 4.001 2.325.109m-22.466 6.516c-.357-.074-.714-.165-1.306-.294-.367.422-.653.752-.928 1.083M88.044 143.99c-.51.844-1.01 1.762-1.652 2.881-.51-.238-.959-.44-1.407-.66l-.48.367c.072.348.02 1.064.225.972 1.897-.826 2.03.055 2.182.936m264.846 3.67 2.284 2.368m-200.38-41.07-3.509 3.157m493.262-30.224c.235 1.468-1.02 2.404-2.692 3.193l-.52.99 1.438 1.194m-75.714 61.108c-.968.294-1.458 1.156-2.151 1.798-.694.643-1.581 1.083-3.305.312l-.479.551.806 1.284M434.703 100.81c-.52.533-1.03 1.065-1.509 1.542.826.679 1.529 1.229 2.447 1.982.898-1.395 1.581-2.441 2.254-3.487m33.777-.532 2.193.752m121.138 39.822-.836 1.945m21.182-20.975 2.998.036m-57.866 29.876c.499.147 1.009.275 1.53.422-1.275 1.101-4.784 1.486-3.998 3.34m78.549-52.227c-1.489 3.065-1.428 3.285.54 1.725m-305.119 50.19-1.081-.11-.663.55 2.285.936m-34.767 8.919c.796.44 3.029-.698 3.101.569m-105.453-63.476c-.755.238-1.51.569-2.254.844m23.313 13.433c.5 1.358.887 2.844 1.326 4.221m-46.475-12.662c1 .018 2.01.11 3.437.238a96 96 0 0 0-1.713 1.652m124.034 61.126-2.172 1.652m222.328-39.803c-.337-.642-.683-1.285-1.255-2.367.572 2-2.61-2.753-.316 2.275m-257.073 44.831c2.927-.734 3.702.789 5.354 1.358M685.77 44.014l2.183-1.56m-224.389 61.164c.724.092 1.458.257 2.183.386m-245.642 35.729c-.418-1.358-.836-2.771-1.265-4.056m-33.736-36.94c-2.04 1.468.816.459.857.88m396.314 48.997 2.581-1.339M429.42 114.243c.092.551.194 1.101.347 1.982-2.091.22-4.977 3.285-5.67 1.413M28.719 190.895c.867-.459 1.724-.973 2.6-1.395m150.694-81.845c-1.58 2.9-1.295 3.12 2.468 1.946m55.654 58.631-.806-1.212c-.265-.422-.499-.88-.744-1.302m27.026 7.964c-1.795-.954-3.448.587-5.212.587-1.438 0-2.947.385-4.416.459m346.16-38.849-.51 3.211M452.386 97.599l-1.784.936.785.514c.816-.844 1.632-1.707 2.876-2.881.989.605 1.877 1.082 2.754 1.688m102.169 51.272c1.051 0 2.101.092 3.162.037-.276 1.138-.49 2-.714 2.844M679.62 50.805c1.143-1.01 2.295-2.038 3.448-3.047.051-.037.183-.385.224-.55.031-.11-.041-.129-.061-.184M444.646 94.773c-.601.532-1.193 1.083-1.244 1.12-.183.844-.285 1.302-.387 1.78m-387.096 71.66c.734-.055 1.468-.092 3.018-.202.276-.863.45-1.377.623-1.89m22.987-6.662c.102-.642.215-1.284.347-2.073 1.183-.11 1.989-.184 2.794-.276m255.504 2.661c-4.569 1.266-5.905 1.78-7.465 2.698m170.325-44.685c-.969-1.468-1.815-2.697.092-1.706.337 2.349.612 4.698.857 6.955m3.875 2.918c-.826-.863-1.662-1.725-2.876-3.01 1.479 2.863 2.469 4.735 3.458 7.01-.327 0-.551 0-.765.019m-130.337 14.423c-.846.789-1.703 1.56-2.784 2.569-.143-.036-.469-.128-.806-.22m269.639-48.795c-.408.936-.806 1.872-.928 2.165a996 996 0 0 0-3.335 3.744M49.157 182.27l.704 1.12m258.135-18.645-2.06 2.624c-2.479-.183-4.233-.385-3.437-2.349-.826-.128-1.877-.275-2.917-.422m-141.688-51.437-2.621.789m14.441-6.075c-1.213 1.579-.806 3.194-3.365 4.735l.816.385m-21.091 11.195.194 1.486m102.923 55.786c-.805.679-.928.643-2.825-.715.714.055 1.397.055 2.071.073m292.636-33.032c-.856-.037-1.723 0-2.57-.091m97.386-38.17c-.897.294-.265-1.982-2.468.477M516.086 126.96l.317 2.239m-409.685 7.212 1.346.844m417.487 15.342c-.704-.294-1.398-.679-2.101-1.101l-.265-.698c.662.496 1.346.918 2.019 1.322m-421.995-12.993.908.624M694.806 31.628c-.184.715-.357 1.431-.592 2.385 2.978-3.34 4.467-3.266 6.293-3.927m-492.915 78.487c-.541.11-1.061.422-1.632.55-.235.037-.683-.091-1.04-.11m91.572 59.916c.47.679-.754 1.964.939 2.22m49.616-16.295c-.215 1.303-.459 2.606-.653 3.909-.184 1.174.673 1.486 2.478.972m-102.251 16.149c1.112 1.248 2.723 2.422.816 3.01m371.42-59.714-1.081 2.239m-142.412-20.517c1.336.459 2.682.863 3.998 1.468m196.617-47.896.827.496-.623.9-.764-.46m-537.188 68.321 1.224-1.652.979-.092-1.316 2.496M92.97 144.412l.56-1.284.898-.551.102 1.56m237.3 16.534c-.153-.239-.347-.734-.469-.697-1.693.642-3.876.899-4.345 2.679m-295.94 22.92c-.653.734-1.306 1.45-1.948 2.239m1.366 7.891c-.051 1.835 2.407-.22 3.702-.385m608.842-101.94c-.347.165-.694.33-1.071.514q-.48 1.634.989.587m-612.88 95.168c.5-.238 1.448-.752 1.468-.569.163 1.578.153 3.303.194 4.973m207.193-17.249-.714.844M3.712 213.026q-.274 1.01 1.958-.771m274.321-32.811-2.815.055-.295.569 1.285.826c-1.112.642-2.224 1.321-3.345 1.927m-46.272-34.408c-.193-.312-.489-.624-.571-.936-2.06-7.524-3.651-9.176-5.313-10.35-.214-.165-.571-.936-.857-1.413m-89.165-10.056c-.51.091-1.02.183-1.622.293-.03.496-.061.973-.091 1.45m475.261-5.505c-1.03.33-2.019.642-2.345 2.092m-581.93 78.964c-.428 1.468-.856 2.936-1.264 4.44M702.64 27.15c.357 1.064 1.03-.642 1.611-1.927M111.062 133.916l.979 1.064m-49.79 26.113c.348.459.684.918 1.051 1.395 1.255-1.615 2.02.459 3.345-2.056m434.132-48.537c-.051.293-.092.587-.072.44.877.844 1.612 1.798 2.326 2.642.703.881 1.417 1.634 2.039 2.57M32.004 196.529l-.46 2.899m127.737-87.717-.836 2.808m111.021 60.778c-1.428-.918-3.1-.606-4.916.294l-1.917-1.322m271.363-25.416a33 33 0 0 1-2.122-.954M688.901 44.767c1.173.66 3.59-3.248 5.242-4.643M310.872 171.04c.714-.312 1.418-.605 2.703-1.174-.429.862-.623 1.266-.959 1.945 1.479-.385 2.723-.697 3.977-1.027l.062-.459 1.387.587c1.968-.367 3.732-.697 5.497-1.028m-72.573 8.9c.387-.312.775-.605 1.05-.825.857.293 1.632.458 2.407.642m-209.875 3.578 1 .643m19.05-18.737c-.051.257-.092.514-.235 1.285.765-1.083 1.05-1.468 1.336-1.853m593.698-82.139c-.092.606.02 1.138-.316 1.872-.582 1.248-1.438 2.642-2.193 3.945M85.22 150.083c-.633.293-1.265.587-2.336 1.101.765-.918 1.244-1.505 1.418-1.707 1.01-.385 1.815-.679 2.62-.991m197.71 19.635c1.336.734 2.661 1.468 4.12 2.276 3.029-1.725 6.354-2.881 9.913-2.9m-76.795-48.299-1.489-.752m270.903-13.397c.969.478 1.928 1.138 2.846 1.817 1.162.826 2.916 1.89 2.876 3.34m-381.212 21.177c2.509-.752 3.794-.055 5.212.459m253.413 9.084c-1.245 1.302-2.479 2.624-3.702 3.908.917.698 1.57 1.175 2.223 1.67m262.327-48.721-3.335 4.642m-87.218 47.089c-.153 2.532.694 3.028 4.079 2.459m-371.654-47.107 3.773-.899m-79.701 39.546-.48 1.67m515.343-22.241-1.602 1.908.663.881m-73.236 30.297c-1.795-.201-3.58-.348-5.375-.752M324.099 167.92c.367-.202.724-.422 1.102-.587.091-.037.255.055.387.073l-1.101.587m-110.022-43.785c.092-.147.194-.275.367-.532-1.397-2.808-2.947-4.937-4.497-6.79m301.142 13.121.235 2.385m-60.926-31.214c1.254-.221 2.499-.459 3.753-.569m180.28 2.697c.754-1.082 1.519-2.183 2.08-2.991 2.081-1.67 2.764.147 5.099-3.321m-366.28 81.257c-.53.496-1.06.991-1.948 1.817l-1.081-1.321m-37.327-17.599c-.337-.55-.887-1.083-1.275-1.651-.357-.624-.551-1.248-.194-1.872m-9.964-9.946c.663.404 1.337.826 2.061 1.266.224 2.22.418 3.927.652 5.634m323.62-5.909c.051.44.102.88.204 1.78-1.04-.9-1.642-1.413-2.243-1.946-.276.074-.775.221-1.275.349m-376.51-41.455c.867-.422 1.724-.899 2.743-1.357-.652-.202-1.244-.349-2.274-.588.092.477.153.753.214 1.046m218.973 24.077c1.203.055 2.468.091 3.61.201.673.074 1.163.368 1.734.551M19.633 211.154l-1.979 1.946m566.743-63.751.275 1.688m-257.911 5.67 3.417-.367m216.749-5.707c1.346.587 2.713 1.285 4.09 1.78l.469-.807c-.653 0-1.295 0-1.948-.074m66.689-34.132c-2.122 2.44-3.335 2.606-4.294 2.055-1.785 1.743-3.6 3.413-5.456 5.175-.653-.642-1.153-1.119-1.652-1.615m-467.593-6.551-1.092.715v.368l1.551-.588m306.772-10.845-1.122 3.156m251.434-80.964c.183.404.642.532.479 1.248-.428 1.909-.173 2.55 1.499.991M591.108 137.586c.51-.11 1.03-.202 1.754-.349q-.688 1.019-1.347 1.982c-.703.183-1.325.33-2.284.495.061.606.112 1.046.153 1.487m-69.309 2.495a51 51 0 0 1-1.438-3.266 78 78 0 0 1-1.989 2.643c1.173 1.614 2.315 3.009 3.519 4.202m157.566-89.369c.53-.642 1.061-1.266 1.571-1.927.418-.55.805-1.137 1.193-1.725m12.565-25.49c1.978-1.78 1.091.515.836 1.891M99.599 141.22l.816 2.294m8.689-11.708c-.316-.092-.642-.165-1.152-.294-.449 1.285-.796 2.258-1.132 3.23m20.254-12.111 2.275-.643m89.247 11.635c-.388-1.395-.816-2.661-1.214-3.982m-46.831-13.543-2.356-.532m-71.594 28.92c-.959.588-1.907 1.193-3.223 2.001l.245 1.248m180.402 27.489c-2.672-1.505-4.824.551-7.159 1.376m-88.861-74.889.5 1.192m-33.808 16.663c-.153-.165-.306-.312-.489-.514l-3.876 2.863m96.101 47.015c-.388.165-.744.239-1.122.367m-101.842-40.629c.969.569 2.142 1.083-.755 2.863M474.67 93.232c1.612 2.807-2.529.183-3.161.88M341.121 151c-.398-.073-.786-.128-1.306-.22-.877 1.395-.489 2.991-3.651 4m-.499 2.221.153 1.284-.816-.348m186.317-19.434c.173-.403.347-.807.673-1.578-1.132-1.211-1.836-2.129-2.539-3.046M709.91 13.809c.694-1.046 1.397-2.11 2.397-3.597.133-.679.347-1.615.52-2.606-.255.276-.51.532-.775.771l-1.03 3.523M250.282 183.06c.796.073 1.591.11 2.683.147.163.605.316 1.156.469 1.688m235.881-89.167c3.172 1.964 6.313 4.184 9.281 7.047m-378.987 32.573c-.234.991-3.426 2.881-.673 3.119-.102-.642-.173-1.064-.244-1.486m293.013-11.029c.398-.11 5.16-2.624 5.823-3.046m-24.007 6.808c1.244-.44 2.488-.881 4.63-1.651a763 763 0 0 1-1.367-3.157c1.438-.422 2.683-.789 3.937-1.156l-.265.679-2.152.936.591-1.064m-204-28.26c.683.128 1.356.201 2.049.385m379.457 55.621c2.489.514 3.019.404 4.182-1.431m-320 32.848-1.56.973m217.3-81.313c.133.403.255.825.429 1.376-.215.055-.694.184-1.214.312-.153-.349-.265-.587-.367-.844m-321.53 6.111.582 1.578m331.574-17.452c.367.294.735.642 1.102.973-.408-.055-.806-.129-1.214-.129m-39.621 11.782c-1.458.514-2.917.991-4.365 1.578m131.061 46.244c-1.315.092-2.906-.147-3.834.367-.928.532-1.214 1.743-1.785 2.642m-441.831-23.47-6.048 3.854m276.105-13.415.551.826m-55.603 37.803c1.734.899 4.549-.624 6.894-1.248m81.599-58.044c1.398-.477 2.785-.954 4.182-1.358m25.852 1.34c.847-.074 1.693-.147 2.55-.129m-286.976.752c-.612.276-1.234.514-2.651 1.156.346-1.192.632-2.147.907-3.101m-39.285 28.132-1.785 1.083m160.138 34.701 3.386-.605m-44.527 18.534a39 39 0 0 1-2.468-.404m-124.004-49.951c1.775-.312 3.57-.514 5.355-.789m339.376-43.381c-1.071.495-2.121 1.082-3.162 1.706m-234.934 72.615c.408 1.615.898 3.174 1.469 5.083-.897-1.174-1.856-2.294-2.713-3.56l-.061.642c1.907 3.432 3.988 6.772 6.394 9.249m78.754-14.057c2.029 0 4.069-.073 6.098-.183l.449-.624 1.255 1.156c.408-.275.887-.587 1.366-.899M45.089 176.178l3.08-1.083m565.334-59.953c1.928-1.302 4.121-3.266 4.569-1.67M91.644 141.751c.653-.091 1.398.037 1.938-.348.745-.514 1.357-1.395 2.02-2.129m414.815-21.269c.438 2.404.856 4.716 1.162 7.084m-466.307 48.52c.806-.092 1.601-.184 2.53-.276l2.834-3.413m-38.815 39.656.194 2.055m613.717-104.012c.866-.936 1.744-1.835 2.58-2.826 1.275-1.542 2.529-3.046 3.794-4.57m-77.326 50.924 1.326.275c.438.055.877.092 1.315.147.878.092 1.734.184 2.55.275.184-1.119.367-2.257.612-3.762-1.04.643-1.805 1.138-2.866 1.799 1.601.128 2.886.22 4.171.33M697.03 28.985c.03-.532.061-1.064.132-2.422 1.275-.697 2.101-1.156 2.937-1.615m-673 164.736-1.133 2.055m-9.178 9.909 1.397-1.119m296.664-40.317-1.346 1.982m-74.694 5.138-.724.496-.847-1.193a37 37 0 0 0 1.612-1.652m-70.197-59.878c-.204.679-.408 1.376-.673 2.293-1.244-.055-2.111-.091-2.978-.146m415.479 37.472c-1.397 1.634-1.571 2.79-.653 3.542m77.161-64.76c-.081-.844-.163-1.689-.265-2.716-.979.55-1.978 1.12-2.957 1.67q-.122-.358-.368-1.101c-1.652 2.257-2.865 3.908-3.498 4.77.255.771.48 1.469.704 2.166m-267.987 42.648-2.049 1.816m-66.168 34.739c.54-.624 1.081-1.266 1.601-1.872a112 112 0 0 0 3.916-.771m76.519-38.794c-.234.367-.479.716-.866 1.303.581-.11 1.019-.202 1.458-.275m-25.067 10.754-2.305 2.807m192.64 4.753c.255.147.591.275.764.459.582.642 1.112 1.321 1.673 2M19.776 202.969c.56-.055 1.122-.073 1.693-.109m318.021-46.263c.979-.477 1.958-.936 2.529-1.229.928.293 1.693.532 2.468.789m276.92-45.822c1.142-3.248 1.53-3.744 3.457-4.129m7.884-8.148c.143-.477.275-.954.357-1.23a584 584 0 0 0 4.436-2.88M3.264 219.852l.306.954M697.315 28.545l1.05.275-.908 1.541-.357-1.21M36.818 187.884c-.286 0-.694-.11-.826.019-1.081 1.138-2.101 2.312-3.264 3.615.04.147.153.532.255.936m119.506-75.844-4.529 1.082m-77.977 37.491 1.336-.385-.286.642-1.662.661m138.72-55.897a18.8 18.8 0 0 0-5.374-2.386m187.316 34.647-2.947 3.56m-257.962-10.277c-.357.257-.714.496-1.152.808l1.866 1.358m222.44 25.14-3.386.991m21.122-16.112c-1.969 1.578-3.957 3.065-5.956 4.57m250.037-19.049c-1.999.422-2.479.826-3.764 3.45-.295.588-1.009 1.358-1.54 2.037m-490.682 4.441.602-1.229c-1.152.293-2.284.587-3.427.881m12.106-5.763c-.662.771-1.336 1.56-2.182 2.533.775.532 1.601 1.101 2.427 1.67m335.817-34.023-1.897-.055m71.717 55.016c-.184.697.744 2.294-2.081 1.064m18.378.918-2.284.422m-48.159-49.125c.082.734.174 1.431.245 2.202m-142.84 44.794c-1.662-.825-3.855.679-6.017 1.799m205.316-5.193c-1.07.367-2.131.752-3.763 1.303.908.44 1.285.623 2.356 1.156-.031-.936-.041-1.303-.051-1.689m-326.801.991-.306 1.156m400.608-47.473-2.61 1.339m66.933-69.366c-.592.917-1.183 1.835-1.795 2.716l.163.44c.754-.917 1.489-1.908 2.233-2.881M374.99 141.99l-1.907 2.844m53.145-32.885-.368 2.294m-255.045-3.156-1.866.642m501.472-51.4q1.56-.551-.071 3.192c-.225-1.027-.357-1.651-.49-2.257m-489.927 40.317 1.265 1.193m89.543 75.184-3.355 1.651m291.31-32.591c.357-.147.724-.275 1.632-.642-.184.715-.316 1.229-.459 1.743m11.229-4.551c.775.165 1.56.385 2.335.477m82.934-62.43-2.182 4.13M38.316 188.785c-.367.862-.745 1.706-1.02 2.33-1.54 1.468-1.356-1.486-3.304 1.927m79.019-56.98.336 1.193c-.857.441-1.57.881-2.295 1.285m490.621-4.698-4.427 4.111M56.643 174.049l.938.459m52.36-37.858.938 3.156m114.57 5.542c-.021-.697-.041-1.395-.082-2.422-.55-.294-.999-.514-1.428-.734.531 2.055 1.051 4.129 1.622 6.202m59.621 28.261.072 1.082m327.27-58.521 4.324-4.11m-244.03 30.554 3.947-2.514m270.863-58.613c.897.257 1.101 1.101-.204 3.303-.112.202.347.294.53.422m2.937-7.193 2.132-1.505m-98.702 68.981h-2.59m25.159 1.248c-1.356.642-2.702 1.413-4.079 1.927m5.967-2.514c2.294-2.165 1.009.385 1.978-.037m-555.3 51.236c-.163.403-.336.807-.622 1.504 1.744-1.247 3.417-2.422 5.1-3.615 1.172-1.541 2.294-3.028 3.436-4.441m39.152-38.353-3.05 2.918m289.333-9.029c-.622 1.12-1.132 2.239-1.917 3.358-.429.606-1.346 1.248-2.04 1.872m166.674-7.138c.245.697.5 1.358.765 2.019m-394.51-19.691 3.203.514m90.502 5.707c-.357-1.211-.745-2.349-1.245-3.909.48.257.765.404 1.347.697v3.102m452.376-72.12a834 834 0 0 0-3.284 3.56c-.204.698-.408 1.377-.602 2.056m-516.137 49.566c-1.326.661-3.1-.184-4.038 1.798m454.558 12.589-2.183 2.165-2.223 2.074m12.932-19.782c1.01-1.799 1.826-2.404 2.469-1.707m56.978-50.263c.225 1.34-.693 3.23-2.539 5.597M68.433 166.507l2.988-1.211m421.025-63.953a53 53 0 0 0-.775-1.028q-.367.055-.703.11m47.22 46.318c1.05 1.358-1 2.514.897 3.909m-267.069 29.985.459 1.468m175.914-74.762c-.744-.458-1.489-.954-2.661-1.596a76 76 0 0 1 4.946-1.872l-.337-.55c-.754.367-1.509.825-2.264 1.229m92.98 53.823c-1.081-.293-2.162-.495-3.325-.899 1.336-.752 2.04-.532 2.57.367m135.681-97.26c-.714 1.211-1.428 2.423-2.325 3.872a71 71 0 0 0 3.355-1.137c.051-.019.235-.257.306-.367.112-.202.173-.386.255-.57m-292.075 75.955c-.704 1.303 1.122 2.11-2.111 3.927m-161.718-5.634c.601 3.689 2.162 8.442 2.325 11.727.02.569-.143.715-.214 1.064M689.288 35.463c.255.11.51.22.765.349-.602.807-1.101 1.486-1.611 2.147M559.298 157.753c1.275-.477 2.549-.844 3.804-1.431m-20.683-4.643c-1.744-.293-3.498-.459-5.221-.917m128.297-77.698c1.713-1.101 3.457-2.129 5.16-3.285m-298.113 66.852c.143.936.082 2.056 2.193 1.377m-4.977 10.845 3.957-2.532m-286.14-.624 2.723-.551m126.788-19.8c-.979-.312-1.203-2.624-1.825-3.927-.286-.661-.551-1.377-.847-2.019m43.814 62.613c-.714 1.101-4.294 1.743-.704 3.523-1 .019-1.54-.036-2.081-.055m262.734-52.942c.439 1.358-.805.918.684 3.358m-113.836-7.028 3.661-1.89m150.816 21.213-1.857.109m13.891-4.201-.979 1.468m-459.607-5.34.653.808.754-.624-1.081-.606m55.368-24.388-2.845 2.11m229.936 17.636c-.326.422-.652.844-1.295 1.688 1.632-.606 3.06-1.193 4.498-1.78m-204.696-26.609a53 53 0 0 0-3.09 1.009l-.438.753 1.805.091m-85.412 34.885 3.416-.807m84.811-46.465 1.285-1.633-.652-.275c-.623.532-1.245 1.046-1.836 1.615m57.601 73.054c-.683-.091-1.367-.22-2.05-.348-.663-.202-1.356-.33-2.009-.606m-102.822-49.363 1.224.367M699.548 18.598c-1.081 1.487-2.162 2.992-3.437 4.753.051-.385.122-.844.214-1.523-.469.66-.867 1.23-1.254 1.799m-547.915 96.911-3.651 1.817m-21.979.275-.592 1.229m-4.14 11.139.418 2.533m98.722-21.636c-.357-.349-.694-.642-1.051-1.009-.673-.643-1.407-1.212-2.09-1.781m296.889 10.534-1.101-.899m117.609-5.047 1.866-1.064m-233.423 14.736c-.102.22-.204.44-.49 1.009.643-.514.959-.771 1.285-1.028m43.956-31.196c3.049.349-.673 1.395-1.264 2.184M659.03 77.67l-1.163.495M51.452 178.197l.55.514m300.98-20.516c1.407.734 2.662.238 3.702-1.689m235.167-19.176-2.172-.936m9.118-6.184 1.193-.147m-181.584-21.251c-.5.147-1 .294-1.449.423-.224.477-.428.917-.632 1.357m-145.798 70.725-.337.936M662.517 68.366l.897.017m-2.314-1.54.265.752m-566.11 69.807.642 1.23m13.972-9.341c-.867.808-1.733 1.615-2.876 2.661-.03 0-.357-.073-.693-.147m120.353 27.967c-.632-1.652-1.132-3.34-1.683-5.01m301.988 1.964c-.51-.459-1.02-.9-1.53-1.395M65.689 172.342l1.387-1.064-.02-.22-1.764 1.339m565.61-64.907-2.142 2.918m-31.503 18.296 2.866-1.578m-2.305 15.415 1.479-.826m-178.974-31.307-.561 1.285m89.288 16.937-.347.624m-30.524-30.59-1.06-1.909c-1.612.184-.419 2.092-3.091 1.248M41.59 183.701c.45-.385.898-.807 1.357-1.174l.173.587c-.693.569-1.377 1.193-2.06 1.78m238.35-15.304c.5-.019 1.01-.037 1.672-.074-.316.294-.591.551-.877.808m-119.649-61.109c-.989.404-1.969.899-2.958 1.34M49.28 177.811c-.805.752-1.611 1.486-2.407 2.22.347.606.602 1.046.847 1.487m283.468-16.333c-.235.386-.47.753-.816 1.322.469 0 .918.036 1.366.055M488.408 98.7l-.857.239m26.598 28.462.153 1.596m35.236 21.434-.367.881m-3.385 1.285c-.602.513-1.204 1.082-2.244 1.816 1.122.276 2.05.276 2.978.386M34.104 193.446l3.672-2m138.332-89.388c-.479.367-.958.735-1.081.826.092.955.164 1.762.245 2.551m140.924 56.814-2.754 3.322m-82.435-17.525c-.143 1.064-2.04-1.395-.061 3.927m450.938-98.93.898-.073M439.404 97.416c-.102.202-.214.403-.326.624l-.765.091m-200.003 74.56c.316.312.643.624.959.936.326.275.622.532.867.789.479.532.713 1.046.377 1.523m450.775-144.66c-.021.679-.041 1.376-.072 2.092 1.255-1.138 2.53-2.276 3.794-3.432M29.628 191.06l-.123 1.101m19.948-18.608-2.906 3.359m541.46-32.353-1.316 1.688.877.422m-462.023-23.764-1.234-.312c-.612.294-1.234.587-1.836.918m158.873 53.015-1.092.863m-22.804-.202-.377.881m-37.878-63.623c-.02 1.01-.04 2.001-.071 2.973m30.004 56.007c-.907.642-1.856 1.358-2.815 1.872m244.53-70.064c-1.019-.22-2.009-.532-3.029-.661m-120.24 35.326-1.459.697M470.02 91.342l-1.57-.092-.194.257 1.754.495c.806-1.138 2.162-.66 3.549-.036m37.133 29.746c-.928-1.046-2.162-3.578-2.733-2.936m147.736-35.16c1.57-1.487 3.121-3.065 4.681-4.588M485.93 104.297c-.521-.037-1.02-.128-1.887-.092.897.477 1.479.955 2.08 1.34m-290.362-5.358c-.255.312-.52.605-.724.862.653.22 1.275.404 1.897.661m95.785 67.715-1.02 1.798m200.034-64.485-.867.367M700.67 16.819l1.315-.367.674-1.67M65.209 159.588l1.46-.825m73.582-43.162-1.826 1.028m92.358 32.426c.51 1.468 1.03 2.936 1.591 4.294m53.45 15.617c-.775.495-1.56.991-2.101 1.339-.408 1.267 3.396-.734 1.887 1.138m17.44-6.442 1.907-.072m17.49-5.414-1.509.294m291.505-34.647.479.074c-.234.293-.448.55-.663.807m11.32-11.286c1.081-.715 2.152-1.431 3.733-2.477-.377-.441-.642-.734-.908-1.046m-491.773 14.607c.378-.11.755-.202 1.418-.385-.622.624-1.122 1.119-1.622 1.633m-35.103 12.68.877.386m487.897-3.762-2.447 1.67M19.368 207.392l-.816 1.56m50.952-52.226-3.448 2.954m378.815-56.429c.388.147.775.312 1.448.569l.735-1.633M63.589 170.36l.724 1.358M688.034 47.281l-1.366 1.303m-305.273 89.02c-.194.422-.398.826-.642 1.358-.378.018-.735.055-1.102.073m91.042-43.473c-.449.477-.908.936-1.428 1.468-.887 0-2.029 0-3.161.11m-239.37 50.043c-.296-.752-.571-1.504-.856-2.275m402.678-36.555-1.448.917m-177.261-6.019c.031-.973.092-1.964.031-2.918 0-.073-.938.165-1.448.257m107.727 56.613-1.53.569m74.347-50.869 1.449-.936m-312.371 59.512.153 1.523m276.604-29.031c-1.724 1.285-3.427 2.698-5.181 3.89l-.245-.257c.459-.568.918-1.101 1.377-1.688m61.436-61.53c.53.238 1.061.458 1.53.66.438-.477.601-.605.642-.697s-.081-.11-.04-.202c.152-.349.336-.716.509-1.064M257.442 182.472c-.387-.202-.775-.44-1.438-.844.367-.22.745-.441 1.01-.587 1.203.33 1.988.55 2.764.715m267.415-28.829c.459.587.928 1.12 1.397 1.688M39.57 187.188l-.499-.293c-.194.33-.602.88-.53.954.183.183.55.165.856.238m286.977-24.296-2.407 2.844M26.802 197.648c1.438.202.602 2.092-.5 4.184m469.225-89.259-1.346-.935m58.916 46.721-1.917 1.707M12.748 211.173l1.53.734.734-.863-1.09-.293m2.987-2.936 1.234-.221m33.575-26.7.744 1.321c-.632.771-1.275 1.523-2.274 2.734.051-.623.082-1.027.112-1.449m334.868-47.052-1.744 1.266-.173-.44 2.243-1.248m-239.562-12.919v1.138c-.684-.037-1.04-.055-1.408-.074m203.094 29.068-1.53.202m166.194-17.342-1.213-1.707m118.803-21.818.469 1.541m-408.533 12.056c-.938-1.688-1.968-3.248-2.968-4.771m-91.674 12.13c-.071-.495-.153-.991-.224-1.431 1.336-.569 2.325-.991 3.304-1.413m-43.558 22.645c.979-.569 1.947-1.156 2.927-1.689l.142.349c-.5.385-.989.807-1.479 1.211m392.44-49.511c.816.533 1.601 1.23 2.397 1.836m31.534 35.307c-.398-.459-.796-.899-2.019-2.404.683 1.835 1.142 3.009 1.631 4.165M54.114 172.159l.898.275m548.18-37.381c1.744-.899 3.488-1.798 5.201-2.679-.03.477-.05.899-.081 1.321m-513.659 6.882c2.264.771 2.274.789 1.632 2.239m-35.501 26.113-4.824 3.065-.684-.459-.815 2.037m433.396-76.523-2.172.954c-.112-.129-.306-.257-.337-.367-.041-.165.021-.294.041-.44m95.683 43.785c.02.367.031.734.051 1.137-.235.165-.581.422-.938.679m-3.672 10.112-1.448 1.082m-392.194-45.253-1.449.881m84.465 70.651-1.52.422m19.856-7.157.051.863 1.122-.459m58.549-22.058 1.296 1.028m65.036-26.022-2.774 2.257m-309.169 9.598-1.285 1.725.184.293c1.377-1.027 2.743-2.055 4.161-3.009.173-.697.306-1.248.51-2.019-1.193.331-2.417.643-3.926 1.156.326.624.489.918.642 1.212m7.649-4.203 1.061 1.468m365.627-38.849-.826 1.432m-65.821 25.196.367 1.853M221.9 128.52c.265-1.523.663-2.734 2.325 2.368m-85.687-16.351c-2.254 1.505-.643 1.597-.102 2.092m98.904 44.262c-.214-.146-.448-.238-.652-.44m8.444 14.993-.591 1.266m281.888-35.106c-.306-.238-.592-.495-.898-.734m-375.734-20.956h-1.173m447.164 9.377-.601.918m57.703-49.75a480 480 0 0 1 2.927-1.23c-.53.717-.959 1.304-1.377 1.873m-418.956 76.486-.04.881m238.972-67.935.357.716M651.697 76.88l.775-.33m29.525-34.977-.092.917m-566.57 93.26c-.102.202-.214.422-.285.605-.031.092.02.147.031.22m206.398 32.243c.306.11.612.202.938.312a96 96 0 0 1 2.081-1.101m-117.019-57.383-.194.807m482.136-73.422c.051.11.133.184.133.367 0 .11-.143.367-.214.569m-309.352 92.727.224 1.266m-334.4 46.006.5.312.194-.881m34.665-26.297.49.386m473.353-5.322-.346.679m-313.064 19.287.795 1.174m379.049-52.043.785-.239m-551.72 45.199-1.101.55m415.029-66.54.132-1.083-.846-.477-1.214.77M148.4 121.144l1.978.331M690.105 31.83l.52.109M261.929 175.646c0 .22.143.477 0 .66-.418.496-.959.991-1.448 1.45m-195.108-8.533.867 1.981m536.718-45.803-1.07.605m-220.565 6.57c.021.147.092.257.061.422-.02.11-.204.275-.306.404m-217.432-20.755c-.265.293-.53.587-.754.862.357.257.642.459.928.661m261.439 1.138 1.071-.643m-200.626 18.718-.56-1.816m123.636 21.635-.418 1.12-.754.128.744-1.523M37.96 190.565l.714 1.082m406.462-89.405c1.367-.422 2.754-.679 4.12-1.028m168.511 21.691-.918 1.303m-367.648 52.575c-.377 0-.754-.092-1.132-.147m444.727-138.53-.448 1.192m-18.683 15.066 1.142-.587M53.421 169.351c-.347.257-.704.551-1.05.826m34.674-25.067-1.07.715m585.466-81.44-1.091.751m-153.61 65.348c.02.257.082.569.061.752 0 .055-.214-.201-.326-.312m131.56-47.84-2.437 3.303m-198.076 16.552c.49-.165.979-.349 1.479-.514l-.438-.514M51.045 174.893l-2.295 5.781m196.647-9.249c.327.202.673.348 1.01.495m57.816-6.569-1.102.532M454.08 99.599l2.213-1.174-.775-.312c.754-.11 1.509-.165 2.264-.183M97.906 147.165c-.265 0-.53.018-1.183.037-.143.899-.245 1.614-.357 2.312M695.265 26.177l.387.863M68.229 158.359l1.07 1.119m-12.39 10.534-.551 1.137m569.465-64.631c-.663 1.303-.745 2.899-3.345 3.67.999-1.487 1.887-2.79 2.774-4.111M12.168 206.457l.785-.276m51.298-38.243.795-.128m185.808 12.717c.163.238.326.477.836 1.229-1.376-.844-2.06-1.45-2.753-1.927M702.628 15.717l.53.055M124.933 124.116l-.673.771m487.316 3.431 1.448-.972m-482.707-1.487a31 31 0 0 1-1.101-.385c.968-.459 1.713-.826 2.447-1.174m132.979 53.492c-.122.165-.286.331-.337.477-.02.056.235.111.368.184m-217.984-2.624-.54 1.174m422.994-80.872c-2.009-.844-.806.367-1.152.587m-150.265 65.513-1.091.569M46.71 179.205l.847.018m175.465-50.299.378 2.018M65.505 162.69c-.224-.239-.448-.496-.673-.753l-1.224 1.468m267.681-4.11c-.499-.147-.999-.276-1.795-.514-.438.128-1.427.422-2.427.716m83.251-38.482-1.03.899M246.54 176.526c-.143.092-.326.147-.408.276-.031.036.204.238.316.367m-14.216-11.396.306 1.523m-52.768-58.962c-.377.239-.755.496-1.224.808.755.183 1.438.33 2.111.495m208.672 21.14-1.152.221m306.262-96.893c-.163.477-.316.973-.592 1.799l-1.428.22m-483.471 70.155-.805-.147m-69.524 14.718.796.109m79.905 8.02-.694-1.56m367.117 18.002.836.202M693.613 34.417l-1.194 1.688m-251.924 71.936-1.081.495m-117.793 54.172-1.091.606m267.303-15.177c.398-.624.796-1.266 1.265-2-.561.22-1.163.459-2.611 1.028.969.091 1.285.11 1.601.147m33.023-26.26 2.601-1.45.907-1.358m27.119-27.838.989-1.046m-149.603 23.599-.091 1.486m-143.922 31.619.826.293m163.625 1.836c-.275-.055-.541-.165-.806-.239m158.751-89.846-2.182 1.578m-541.41 67.366c-.449.496-.898.973-1.346 1.505m345.149-23.819c-.632.165-1.285.458-1.917.697m140.066 17.287-.571 1.027m-94.051 26.279c.653.22 1.306.458 2.152.642.133.44.265.826.388 1.229m-387.269-25.764 1.183.165m24.538-18.351-.673.899m2.916-1.67.816.386m46.189 10.019-.683-.642m427.502-16.222.092 1.688m-51.849 34.371c-.092.22-.225.459-.255.642 0 .055.245 0 .367 0M243.5 177.975c-.418 0-.846 0-1.254-.072m321.396-29.527-.693.863m-162.523-14.92.479-1.248.704-.881.948.588M712.052 2.174 713 1M612.503 130.209l1.102-.679M299.47 177.535l2.336.294m-178.149-51.731.806.073m314.574-14.937c.245-.331.49-.661.745-.991-.5.037-.878.073-1.265.11M123.362 131.75c-.102.202-.245.422-.275.606-.01.055.245.018.377.036m328.118-26.755c-.113.183-.235.367-.317.532-.03.073 0 .147.011.22m181.094 1.652c-.071.238-.183.514-.194.697 0 .074.235-.073.368-.128m-4.712 8.735 1.01-.991M246.479 183.72c-.408-.129-.826-.349-1.234-.514m-52.074-79.074c-.244-.257-.489-.532-.938-1.028-.551.643-.928 1.12-1.305 1.597.499-.11.999-.165 1.499-.239m388.186 41.106c.235.312.479.643.918 1.23l.306-.936m58.866-48.813 7.353-3.047M95.531 149.35c.04.201.06.422.153.605 0 0 .112-.055.255-.147.142-.091.306-.202.428-.275m334.766-36.702c-.948.587-1.887 1.193-2.784 1.744a33 33 0 0 1-1.346-.551m91.786 17.433.49 1.817-.592-.037-.347-.789.439-.073m-268.425 39.363-.072.881M94.938 150.413c-1.142 1.083-2.284 2.147-3.528 3.322-.572.238-1.316.55-2.05.862m114.418-44.978-1.112.697M691.89 31.554c.02-.495.051-.972.102-1.871.285.055.418.073.56.11m-559.461 90.855 2.794.257m492.325-5.194 1.254-.22m-208.805 4.973-.581 1.046c-.877.955-1.622-.881-2.54 1.395M11.974 208.659l-1.55 2.037m493.72-86.653.673 1.505m-26.026-29.6-.072.862m165.736-.33c.113.146.235.293.408.513-.051.147-.214.551-.377.973m-342.894 67.898c-.5.275-1 .532-1.877.991a62 62 0 0 0 1.948-.11"/></svg>